<?xml version="1.0" standalone="no"?>
<!DOCTYPE svg PUBLIC "-//W3C//DTD SVG 1.1//EN" "http://www.w3.org/Graphics/SVG/1.1/DTD/svg11.dtd" >
<svg>
<metadata>
Created by FontForge 20090914 at Mon May 31 19:21:26 2021
 By www-data
Copyright (c) 2015 by Mariya Pigoulevskaya. All rights reserved.
</metadata>
<defs>
<font id="Stolzl-Bold" horiz-adv-x="0" >
  <font-face 
    font-family="Stolzl Bold"
    font-weight="700"
    font-stretch="normal"
    units-per-em="1000"
    panose-1="0 0 8 0 0 0 0 0 0 0"
    ascent="800"
    descent="-200"
    x-height="550"
    cap-height="700"
    bbox="-588 -263.004 1498 1074"
    underline-thickness="50"
    underline-position="-150"
    unicode-range="U+0020-U+25CA"
  />
<missing-glyph horiz-adv-x="510" 
d="M418 770v-1020h-323v1020h323zM340 702h-169v-34h67v-38h-68v-33h170v33h-68v38h68v34zM272 570h-102v-106h170v35h-68v71zM238 535v-36h-34v36h34zM340 436h-170v-33h68v-38h-68v-34h102v72h68v33zM340 375h-34v-67h-136v-35h170v102zM340 251h-102v-57h34v23h34v-48
h-102v82h-34v-115h170v115zM340 74h-170v-115h170v115zM306 41v-48h-102v48h102zM340 -64h-170v-34h72l-72 -48v-34h170v34h-104l71 48h33v34z" />
    <glyph glyph-name=".notdef" horiz-adv-x="510" 
d="M418 770v-1020h-323v1020h323zM340 702h-169v-34h67v-38h-68v-33h170v33h-68v38h68v34zM272 570h-102v-106h170v35h-68v71zM238 535v-36h-34v36h34zM340 436h-170v-33h68v-38h-68v-34h102v72h68v33zM340 375h-34v-67h-136v-35h170v102zM340 251h-102v-57h34v23h34v-48
h-102v82h-34v-115h170v115zM340 74h-170v-115h170v115zM306 41v-48h-102v48h102zM340 -64h-170v-34h72l-72 -48v-34h170v34h-104l71 48h33v34z" />
    <glyph glyph-name="space" unicode=" " horiz-adv-x="300" 
 />
    <glyph glyph-name="exclam" unicode="!" horiz-adv-x="346" 
d="M258 700v-214l-11 -240h-148l-11 240v214h170zM173 183c29.333 0 53.833 -9.16699 73.5 -27.5s29.5 -41.833 29.5 -70.5s-9.83301 -52.167 -29.5 -70.5s-44.167 -27.5 -73.5 -27.5s-53.833 9.16699 -73.5 27.5s-29.5 41.833 -29.5 70.5s9.83301 52.167 29.5 70.5
s44.167 27.5 73.5 27.5z" />
    <glyph glyph-name="quotedbl" unicode="&#x22;" horiz-adv-x="534" 
d="M90 377l-20 215v108h170v-108l-20 -215h-130zM314 377l-20 215v108h170v-108l-20 -215h-130z" />
    <glyph glyph-name="numbersign" unicode="#" horiz-adv-x="966" 
d="M860 457h-141l-36 -139h140l-36 -136h-140l-48 -182h-156l48 182h-124l-48 -182h-156l48 182h-141l36 136h141l36 139h-140l36 136h140l47 177h156l-47 -177h124l47 177h156l-47 -177h141zM527 318l36 139h-124l-36 -139h124z" />
    <glyph glyph-name="dollar" unicode="$" horiz-adv-x="649" 
d="M614 212c0 -63.333 -19.3311 -112.837 -57.998 -148.504s-86.334 -58.834 -143.001 -69.501v-118h-169v122c-44.667 10 -82.5 27.667 -113.5 53s-53.667 52.833 -68 82.5s-23.5 62.167 -27.5 97.5h172c8.66699 -30 22.834 -51.667 42.501 -65s50.834 -20 93.501 -20
c66.667 0 100 19.667 100 59c0 16.667 -7.83301 28.5 -23.5 35.5s-47.834 15.5 -96.501 25.5c-5.33301 0.666992 -9.5 1.33398 -12.5 2.00098s-7 1.66699 -12 3s-9.83301 2.33301 -14.5 3c-33.333 6.66699 -61.833 14.334 -85.5 23.001s-47.5 20.834 -71.5 36.501
s-42.333 36.167 -55 61.5s-19 55.333 -19 90c0 58 17.667 105.667 53 143s80.333 62.333 135 75v121h169v-119c62.667 -13.333 110 -40.166 142 -80.499s50.667 -88.166 56 -143.499h-172c-6 23.333 -17.167 41.333 -33.5 54s-42.833 19 -79.5 19
c-34.667 0 -59.834 -5.83301 -75.501 -17.5s-23.5 -26.167 -23.5 -43.5c0 -14 6.16699 -24 18.5 -30s34.5 -12.333 66.5 -19c3.33301 -0.666992 6.16602 -1.16699 8.49902 -1.5s4.83301 -0.833008 7.5 -1.5c105.333 -22.667 179.833 -49.5 223.5 -80.5
s65.5 -80.5 65.5 -148.5z" />
    <glyph glyph-name="percent" unicode="%" horiz-adv-x="1122" 
d="M271 291c-60.667 0 -109.334 18.833 -146.001 56.5s-55 89.167 -55 154.5s18.333 116.833 55 154.5s85.334 56.5 146.001 56.5s109.334 -18.833 146.001 -56.5s55 -89.167 55 -154.5s-18.333 -116.833 -55 -154.5s-85.334 -56.5 -146.001 -56.5zM841 700l-400 -700h-160
l400 700h160zM271 422c20 0 34 6.5 42 19.5s12 33.167 12 60.5s-4 47.5 -12 60.5s-22 19.5 -42 19.5s-34 -6.5 -42 -19.5s-12 -33.167 -12 -60.5s4 -47.5 12 -60.5s22 -19.5 42 -19.5zM851 409c60.667 0 109.334 -18.833 146.001 -56.5s55 -89.167 55 -154.5
s-18.333 -116.833 -55 -154.5s-85.334 -56.5 -146.001 -56.5s-109.334 18.833 -146.001 56.5s-55 89.167 -55 154.5s18.333 116.833 55 154.5s85.334 56.5 146.001 56.5zM851 278c-20 0 -34 -6.5 -42 -19.5s-12 -33.167 -12 -60.5s4 -47.5 12 -60.5s22 -19.5 42 -19.5
s34 6.5 42 19.5s12 33.167 12 60.5s-4 47.5 -12 60.5s-22 19.5 -42 19.5z" />
    <glyph glyph-name="ampersand" unicode="&#x26;" horiz-adv-x="769" 
d="M734 0l-215.999 0.00195312l-35 37c-56 -33.333 -120 -50 -192 -50s-132.667 17.167 -182 51.5s-74 86.166 -74 155.499c0 42.667 10.5 78.167 31.5 106.5s54.5 56.166 100.5 83.499c-36.667 50.667 -55 97 -55 139c0 62 21.5 109.167 64.5 141.5s93.167 48.5 150.5 48.5
c58 0 108 -16.667 150 -50s63 -80 63 -140c0 -75.333 -43.333 -138 -130 -188l65 -68c7.33301 19.333 12.666 38 15.999 56h172c-6 -66 -28 -126.667 -66 -182zM326.001 558.002c-28 0 -42 -15.333 -42 -46c0 -16 7.33301 -35 22 -57c22.667 12 38.667 22.5 48 31.5
s14 20.167 14 33.5c0 25.333 -14 38 -42 38zM301.001 142.002c25.333 0 48.667 3.66699 70 11l-103 110c-23.333 -12 -39.333 -22.5 -48 -31.5s-13 -19.5 -13 -31.5c0 -18 8 -32.167 24 -42.5s39.333 -15.5 70 -15.5z" />
    <glyph glyph-name="quotesingle" unicode="'" horiz-adv-x="310" 
d="M240 700v-108l-20 -215h-130l-20 215v108h170z" />
    <glyph glyph-name="parenleft" unicode="(" horiz-adv-x="442" 
d="M372 707c-48.667 -96.667 -82.667 -176.832 -102 -240.499s-29 -132.5 -29 -206.5s9.66699 -142.833 29 -206.5s53.333 -143.834 102 -240.501l-129 -76c-115.333 158.667 -173 333 -173 523s57.667 364.333 173 523z" />
    <glyph glyph-name="parenright" unicode=")" horiz-adv-x="442" 
d="M70 707l129 75.998c115.333 -158.667 173 -333 173 -523s-57.667 -364.333 -173 -523l-129 76c48.667 96.667 82.667 176.834 102 240.501s29 132.5 29 206.5s-9.66699 142.833 -29 206.5s-53.333 143.834 -102 240.501z" />
    <glyph glyph-name="asterisk" unicode="*" horiz-adv-x="576" 
d="M506 516l-118 -54l82 -102l-98 -79l-85 105l-84 -105l-98 79l82 103l-117 53l50 114l106 -47v117h123v-117l106 47z" />
    <glyph glyph-name="plus" unicode="+" horiz-adv-x="641" 
d="M406 545v-169h165v-162h-165v-170h-170v170h-166v162h166v169h170z" />
    <glyph glyph-name="comma" unicode="," horiz-adv-x="368" 
d="M194 183c26.667 0 50.668 -8.16602 72.001 -24.499s32 -43.833 32 -82.5s-40 -121.334 -120 -248.001h-108l81 167c-39.333 14 -59 43.333 -59 88c0 29.333 9.66699 53.333 29 72s43.666 28 72.999 28z" />
    <glyph glyph-name="hyphen" unicode="-" horiz-adv-x="483" 
d="M414 376v-162h-344v162h344z" />
    <glyph glyph-name="period" unicode="." horiz-adv-x="346" 
d="M173 183c29.333 0 53.833 -9.16699 73.5 -27.5s29.5 -41.833 29.5 -70.5s-9.83301 -52.167 -29.5 -70.5s-44.167 -27.5 -73.5 -27.5s-53.833 9.16699 -73.5 27.5s-29.5 41.833 -29.5 70.5s9.83301 52.167 29.5 70.5s44.167 27.5 73.5 27.5z" />
    <glyph glyph-name="slash" unicode="/" horiz-adv-x="395" 
d="M385 770l-203 -770h-172l203 770h172z" />
    <glyph glyph-name="zero" unicode="0" horiz-adv-x="700" 
d="M350 713c96 0 171.667 -33 227 -99s83 -154 83 -264s-27.667 -198 -83 -264s-131 -99 -227 -99s-171.667 33 -227 99s-83 154 -83 264s27.667 198 83 264s131 99 227 99zM350 149c48 0 83 16.833 105 50.5s33 83.834 33 150.501s-11 116.834 -33 150.501
s-57 50.5 -105 50.5s-83 -16.833 -105 -50.5s-33 -83.834 -33 -150.501s11 -116.834 33 -150.501s57 -50.5 105 -50.5z" />
    <glyph glyph-name="one" unicode="1" horiz-adv-x="420" 
d="M273 700h77v-700h-170v502l-155 -65v167z" />
    <glyph glyph-name="two" unicode="2" horiz-adv-x="612" 
d="M314 162l262.999 0.00195312v-162h-542v121l205 179c67.333 59.333 109.5 98.666 126.5 117.999s25.5 39.333 25.5 60c0 20 -6.83301 37.167 -20.5 51.5s-35.167 21.5 -64.5 21.5c-54.667 0 -85.667 -31.667 -93 -95h-171c2.66699 78 29.167 140.333 79.5 187
s114.5 70 192.5 70c76 0 136.5 -22 181.5 -66s67.5 -97.667 67.5 -161c0 -21.333 -3.33301 -41.833 -10 -61.5s-13.667 -36.334 -21 -50.001s-21.166 -31 -41.499 -52s-36.333 -36.667 -48 -47l-62.5 -55.5l-65 -57z" />
    <glyph glyph-name="three" unicode="3" horiz-adv-x="615" 
d="M485 366c30 -13.333 53.3369 -34.001 70.0039 -62.001s25 -61 25 -99c0 -68.667 -24 -122.167 -72 -160.5s-112.667 -57.5 -194 -57.5c-78.667 0 -143.834 20.5 -195.501 61.5s-79.5 100.167 -83.5 177.5h172c7.33301 -52 42.333 -78 105 -78c64 0 96 24.667 96 74
c0 20 -6.33301 34.667 -19 44s-35.334 14 -68.001 14h-92v148h76c26 0 46.333 3.83301 61 11.5s22 21.834 22 42.501c0 46.667 -29.333 70 -88 70c-50.667 0 -80 -23.667 -88 -71h-172c4.66699 72.667 31.667 129.5 81 170.5s110.666 61.5 183.999 61.5
c75.333 0 136.666 -19.667 183.999 -59s71 -89 71 -149c0 -62.667 -25 -109 -75 -139z" />
    <glyph glyph-name="four" unicode="4" horiz-adv-x="650" 
d="M625 306v-159h-95v-147h-170v147l-335 -1v160l254 394h251v-394h95zM204 307h156v235h-8z" />
    <glyph glyph-name="five" unicode="5" horiz-adv-x="617" 
d="M350 474c64.667 0 119.499 -20.833 164.499 -62.5s67.5 -98.5 67.5 -170.5c0 -78 -25.667 -139.833 -77 -185.5s-116.666 -68.5 -195.999 -68.5c-46.667 0 -89.834 8.16699 -129.501 24.5s-73.167 43.5 -100.5 81.5s-42 84 -44 138h172
c2.66699 -28.667 13.5 -49.667 32.5 -63s41.5 -20 67.5 -20c32 0 57.167 8.83301 75.5 26.5s27.5 40.5 27.5 68.5s-9.16699 50.167 -27.5 66.5s-42.5 24.5 -72.5 24.5c-22.667 0 -42.167 -4.33301 -58.5 -13s-28.166 -18.667 -35.499 -30h-162l87 409h408v-162h-280l-18 -88
c28.667 16 61.667 24 99 24z" />
    <glyph glyph-name="six" unicode="6" horiz-adv-x="622" 
d="M361 479c61.333 0 114.332 -19.668 158.999 -59.001s67 -95.333 67 -168c0 -78.667 -26.333 -142.5 -79 -191.5s-118 -73.5 -196 -73.5c-77.333 0 -142.833 24.333 -196.5 73s-80.5 111.667 -80.5 189c0 21.333 1.83301 42 5.5 62s10.834 41.667 21.501 65l27 58.5
c7.33301 15.667 20.833 37.334 40.5 65.001l43 60.5c9 12.667 26.667 36.167 53 70.5l53.5 69.5h201l-187 -234c20 8.66699 42.667 13 68 13zM310.999 148.999c30.667 0 55.667 9.33301 75 28s29 43.667 29 75c0 30.667 -9.5 54.834 -28.5 72.501s-44.167 26.5 -75.5 26.5
s-56.5 -8.83301 -75.5 -26.5s-28.5 -41.834 -28.5 -72.501c0 -31.333 9.66699 -56.333 29 -75s44.333 -28 75 -28z" />
    <glyph glyph-name="seven" unicode="7" horiz-adv-x="560" 
d="M25 700h510v-121l-286 -579h-192l273 538h-305v162z" />
    <glyph glyph-name="eight" unicode="8" horiz-adv-x="616" 
d="M480 365c32 -14.667 56.8311 -36.667 74.498 -66s26.5 -62.333 26.5 -99c0 -64.667 -25.5 -116.334 -76.5 -155.001s-116.5 -58 -196.5 -58s-145.5 19.333 -196.5 58s-76.5 90.334 -76.5 155.001c0 36.667 8.83301 69.667 26.5 99s42.5 51.333 74.5 66
c-25.333 14 -45.5 33.833 -60.5 59.5s-22.5 54.167 -22.5 85.5c0 58.667 24.333 107.167 73 145.5s109.334 57.5 182.001 57.5s133.334 -19.167 182.001 -57.5s73 -86.833 73 -145.5c0 -31.333 -7.5 -59.833 -22.5 -85.5s-35.167 -45.5 -60.5 -59.5zM307.998 553
c-56.667 0 -85 -21.667 -85 -65c0 -38 28.333 -57 85 -57s85 19 85 57c0 43.333 -28.333 65 -85 65zM307.998 147c68 0 102 23 102 69c0 45.333 -34 68 -102 68s-102 -22.667 -102 -68c0 -46 34 -69 102 -69z" />
    <glyph glyph-name="nine" unicode="9" horiz-adv-x="622" 
d="M310 713c77.333 0 142.834 -24.332 196.501 -72.999s80.5 -111.667 80.5 -189c0 -21.333 -1.83301 -42 -5.5 -62s-10.834 -41.667 -21.501 -65l-27 -58.5c-7.33301 -15.667 -20.833 -37.334 -40.5 -65.001l-43 -60.5c-9 -12.667 -26.667 -36.167 -53 -70.5l-53.5 -69.5
h-201l187 234c-20 -8.66699 -42.667 -13 -68 -13c-61.333 0 -114.333 19.667 -159 59s-67 95.333 -67 168c0 78.667 26.333 142.5 79 191.5s118 73.5 196 73.5zM311.001 349.001c31.333 0 56.5 8.83301 75.5 26.5s28.5 41.834 28.5 72.501c0 31.333 -9.66699 56.333 -29 75
s-44.333 28 -75 28s-55.667 -9.33301 -75 -28s-29 -43.667 -29 -75c0 -30.667 9.5 -54.834 28.5 -72.501s44.167 -26.5 75.5 -26.5z" />
    <glyph glyph-name="colon" unicode=":" horiz-adv-x="346" 
d="M173 531c29.333 0 53.833 -9.16699 73.5 -27.5s29.5 -41.833 29.5 -70.5s-9.83301 -52.167 -29.5 -70.5s-44.167 -27.5 -73.5 -27.5s-53.833 9.16699 -73.5 27.5s-29.5 41.833 -29.5 70.5s9.83301 52.167 29.5 70.5s44.167 27.5 73.5 27.5zM173 183
c29.333 0 53.833 -9.16699 73.5 -27.5s29.5 -41.833 29.5 -70.5s-9.83301 -52.167 -29.5 -70.5s-44.167 -27.5 -73.5 -27.5s-53.833 9.16699 -73.5 27.5s-29.5 41.833 -29.5 70.5s9.83301 52.167 29.5 70.5s44.167 27.5 73.5 27.5z" />
    <glyph glyph-name="semicolon" unicode=";" horiz-adv-x="368" 
d="M195 335c-29.333 0 -53.833 9.16699 -73.5 27.5s-29.5 41.833 -29.5 70.5s9.83301 52.167 29.5 70.5s44.167 27.5 73.5 27.5s53.833 -9.16699 73.5 -27.5s29.5 -41.833 29.5 -70.5s-9.83301 -52.167 -29.5 -70.5s-44.167 -27.5 -73.5 -27.5zM194 183
c26.667 0 50.668 -8.16602 72.001 -24.499s32 -43.833 32 -82.5s-40 -121.334 -120 -248.001h-108l81 167c-39.333 14 -59 43.333 -59 88c0 29.333 9.66699 53.333 29 72s43.666 28 72.999 28z" />
    <glyph glyph-name="less" unicode="&#x3c;" horiz-adv-x="641" 
d="M571 520v-177l-234 -54l234 -53v-178l-501 177v108z" />
    <glyph glyph-name="equal" unicode="=" horiz-adv-x="641" 
d="M571 484v-155h-501v155h501zM571 274v-156h-501v156h501z" />
    <glyph glyph-name="greater" unicode="&#x3e;" horiz-adv-x="641" 
d="M70 520l501 -177v-108l-501 -177v178l234 53l-234 54v177z" />
    <glyph glyph-name="question" unicode="?" horiz-adv-x="578" 
d="M203 246v53.0029c0 34.667 6.33301 60 19 76s39.667 34.667 81 56c28.667 15.333 47.334 26.666 56.001 33.999s13 17.666 13 30.999c0 39.333 -27.333 59 -82 59c-25.333 0 -45.333 -6.16699 -60 -18.5s-22.667 -35.5 -24 -69.5h-171
c1.33301 77.333 26.5 137.666 75.5 180.999s111.167 65 186.5 65c71.333 0 130.166 -18.667 176.499 -56s69.5 -89 69.5 -155c0 -46 -11.167 -81.167 -33.5 -105.5s-57.833 -49.5 -106.5 -75.5c-14.667 -8 -24 -15.667 -28 -23s-6 -18.333 -6 -33v-19h-166zM285 -12.9971
c-30.667 0 -56 9 -76 27s-30 41.667 -30 71s10 53 30 71s45.333 27 76 27s56 -9 76 -27s30 -41.667 30 -71s-10 -53 -30 -71s-45.333 -27 -76 -27z" />
    <glyph glyph-name="at" unicode="@" horiz-adv-x="1129" 
d="M577 783c96.667 0 183.505 -19 260.505 -57s138.167 -94.333 183.5 -169s68 -161.667 68 -261c0 -95.333 -20.667 -168.5 -62 -219.5s-99.333 -76.5 -174 -76.5c-84.667 0 -142.667 31 -174 93c-36.667 -62 -89.334 -93 -158.001 -93c-63.333 0 -116 24 -158 72
s-63 109 -63 183c0 74.667 21.167 136 63.5 184s94.166 72 155.499 72c58 0 104.667 -22.667 140 -68v56h150l-1 -286c0 -47.333 19.667 -71 59 -71c23.333 0 40.666 9.83301 51.999 29.5s17 54.167 17 103.5c0 64 -9.16699 120.167 -27.5 168.5s-44 86.5 -77 114.5
s-70.333 48.833 -112 62.5s-87.834 20.5 -138.501 20.5c-116.667 0 -210.5 -34 -281.5 -102s-106.5 -160.667 -106.5 -278c0 -118.667 34.5 -212 103.5 -280s159.833 -102 272.5 -102c66 0 124.333 11.667 175 35l29 -138c-63.333 -26 -133 -39 -209 -39
c-154 0 -279.833 48.5 -377.5 145.5s-146.5 222.833 -146.5 377.5c0 154 50.167 279.667 150.5 377s229.166 146 386.499 146zM556.005 144c29.333 0 53.833 10.167 73.5 30.5s29.5 47.166 29.5 80.499s-9.83301 60.333 -29.5 81s-44.167 31 -73.5 31
c-30 0 -54.667 -10.333 -74 -31s-29 -47.667 -29 -81s9.83301 -60.166 29.5 -80.499s44.167 -30.5 73.5 -30.5z" />
    <glyph glyph-name="A" unicode="A" horiz-adv-x="772" 
d="M567 0l-50 145h-262l-50 -145h-180l254 700h214l254 -700h-180zM311 307h150l-75 218z" />
    <glyph glyph-name="B" unicode="B" horiz-adv-x="660" 
d="M519 379c34.667 -12.667 61 -34.499 79 -65.499s27 -67.167 27 -108.5c0 -64.667 -21.833 -115 -65.5 -151s-101.5 -54 -173.5 -54h-316v700h316c64 0 115.833 -15.667 155.5 -47s59.5 -77 59.5 -137c0 -62.667 -27.333 -108.334 -82 -137.001zM429 486.001
c0 20 -5.33203 33.667 -15.999 41s-27.334 11 -50.001 11h-123v-105h130c39.333 0 59 17.667 59 53zM382.001 162.001c26.667 0 45.167 4.83301 55.5 14.5s15.5 24.167 15.5 43.5c0 20.667 -5 35.5 -15 44.5s-28.667 13.5 -56 13.5h-142v-116h142z" />
    <glyph glyph-name="C" unicode="C" horiz-adv-x="784" 
d="M408 -13c-104.667 0 -191.334 34.667 -260.001 104s-103 155.666 -103 258.999s34.333 189.666 103 258.999s155.334 104 260.001 104c84.667 0 157.834 -24 219.501 -72s102.167 -110.667 121.5 -188h-182c-14 30.667 -34.833 54.667 -62.5 72s-59.834 26 -96.501 26
c-57.333 0 -103.5 -18.667 -138.5 -56s-52.5 -85.666 -52.5 -144.999s17.5 -107.666 52.5 -144.999s81.167 -56 138.5 -56c36.667 0 68.834 8.66699 96.501 26s48.5 41.333 62.5 72h182c-19.333 -77.333 -59.833 -140 -121.5 -188s-134.834 -72 -219.501 -72z" />
    <glyph glyph-name="D" unicode="D" horiz-adv-x="729" 
d="M331 700c102 0 187.167 -33.5 255.5 -100.5s102.5 -150.167 102.5 -249.5s-34.167 -182.5 -102.5 -249.5s-153.5 -100.5 -255.5 -100.5h-261v700h261zM331 162c55.333 0 100.5 17.5 135.5 52.5s52.5 80.167 52.5 135.5c0 56 -17.5 101.333 -52.5 136
s-80.167 52 -135.5 52h-91v-376h91z" />
    <glyph glyph-name="E" unicode="E" horiz-adv-x="587" 
d="M552 538h-312v-104h284v-162h-284v-110h312v-162h-482v700h482v-162z" />
    <glyph glyph-name="F" unicode="F" horiz-adv-x="587" 
d="M552 538h-312v-111h284v-162h-284v-265h-170v700h482v-162z" />
    <glyph glyph-name="G" unicode="G" horiz-adv-x="816" 
d="M362 387l389 0.000976562v-387h-145v98c-16 -32.667 -43.5 -59.334 -82.5 -80.001s-84.833 -31 -137.5 -31c-97.333 0 -179.333 34.167 -246 102.5s-100 154.5 -100 258.5c0 105.333 34.333 192.5 103 261.5s155.334 103.5 260.001 103.5
c84.667 0 157.834 -23.167 219.501 -69.5s102.167 -106.833 121.5 -181.5h-182c-14 28 -34.833 49.833 -62.5 65.5s-59.834 23.5 -96.501 23.5c-58 0 -104.333 -18.667 -139 -56s-52 -87 -52 -149c0 -58.667 16.167 -107 48.5 -145s78.5 -57 138.5 -57
c39.333 0 74.166 8.66699 104.499 26s52.5 42.333 66.5 75h-208v142z" />
    <glyph glyph-name="H" unicode="H" horiz-adv-x="749" 
d="M509 700h170v-700h-170v276h-269v-276h-170v700h170v-262h269v262z" />
    <glyph glyph-name="I" unicode="I" horiz-adv-x="310" 
d="M70 0v700h170v-700h-170z" />
    <glyph glyph-name="J" unicode="J" horiz-adv-x="594" 
d="M352 700l172.002 -0.000976562v-462c0 -80.667 -23.833 -142.667 -71.5 -186s-107.834 -65 -180.501 -65c-71.333 0 -130.333 21.333 -177 64s-70 104.334 -70 185.001v32h172v-27c0 -36 6.66699 -60.333 20 -73s31.666 -19 54.999 -19c24.667 0 44.167 6.66699 58.5 20
s21.5 38 21.5 74v457z" />
    <glyph glyph-name="K" unicode="K" horiz-adv-x="711" 
d="M686 0h-212l-234 317v-317h-170v700h170v-298l219 298h209l-252 -338z" />
    <glyph glyph-name="L" unicode="L" horiz-adv-x="549" 
d="M240 162h284v-162h-454v700h170v-538z" />
    <glyph glyph-name="M" unicode="M" horiz-adv-x="841" 
d="M578 700h193v-700h-170v462l-175 -267h-16l-175 267v-462h-170v700h193l160 -240z" />
    <glyph glyph-name="N" unicode="N" horiz-adv-x="742" 
d="M507 700h170v-700h-193l-263 441l14 -148v-293h-170v700h193l262 -441l-13 148v293z" />
    <glyph glyph-name="O" unicode="O" horiz-adv-x="812" 
d="M406 713c103.333 0 190.166 -34.833 260.499 -104.5s105.5 -155.834 105.5 -258.501s-35.167 -188.834 -105.5 -258.501s-157.166 -104.5 -260.499 -104.5s-190.166 34.833 -260.499 104.5s-105.5 155.834 -105.5 258.501s35.167 188.834 105.5 258.501
s157.166 104.5 260.499 104.5zM406 551c-56 0 -102.333 -18.833 -139 -56.5s-55 -85.834 -55 -144.501s18.333 -106.834 55 -144.501s83 -56.5 139 -56.5s102.333 18.833 139 56.5s55 85.834 55 144.501s-18.333 106.834 -55 144.501s-83 56.5 -139 56.5z" />
    <glyph glyph-name="P" unicode="P" horiz-adv-x="662" 
d="M370 700c76 0 136.999 -21 182.999 -63s69 -101 69 -177s-23.167 -135.667 -69.5 -179s-107.166 -65 -182.499 -65h-130v-216h-170v700h300zM362.999 378c58 0 87 26.667 87 80s-29 80 -87 80h-123v-160h123z" />
    <glyph glyph-name="Q" unicode="Q" horiz-adv-x="812" 
d="M772 350c0 -97.333 -31.332 -179.334 -93.999 -246.001l94 -124l-129 -98l-99 130c-44 -16.667 -90 -25 -138 -25c-103.333 0 -190.166 34.833 -260.499 104.5s-105.5 155.834 -105.5 258.501s35.167 188.834 105.5 258.501s157.166 104.5 260.499 104.5
s190.166 -34.833 260.499 -104.5s105.5 -155.834 105.5 -258.501zM212.001 349.999c0 -58.667 18.333 -106.834 55 -144.501s83 -56.5 139 -56.5s102.333 18.833 139 56.5s55 85.834 55 144.501s-18.333 106.834 -55 144.501s-83 56.5 -139 56.5
s-102.333 -18.833 -139 -56.5s-55 -85.834 -55 -144.501z" />
    <glyph glyph-name="R" unicode="R" horiz-adv-x="691" 
d="M458 0l-165 243.001h-53v-243h-170v700h312c74 0 132.5 -20.833 175.5 -62.5s64.5 -98.834 64.5 -171.501c0 -107.333 -46.667 -176.333 -140 -207l184 -259h-208zM450 464.001c0 49.333 -29 74 -87 74h-123v-146h123c58 0 87 24 87 72z" />
    <glyph glyph-name="S" unicode="S" horiz-adv-x="649" 
d="M325 441c105.333 -22.667 179.83 -49.5049 223.497 -80.5049s65.5 -80.5 65.5 -148.5c0 -32.667 -5.83301 -62.167 -17.5 -88.5s-26.667 -47.833 -45 -64.5s-39.666 -30.667 -63.999 -42s-48.333 -19.166 -72 -23.499s-47.5 -6.5 -71.5 -6.5
c-51.333 0 -96.666 7 -135.999 21s-70.666 33 -93.999 57s-41.333 49.667 -54 77s-21 57 -25 89h172c8.66699 -30 22.834 -51.667 42.501 -65s50.834 -20 93.501 -20c66.667 0 100 19.667 100 59c0 16.667 -7.83301 28.5 -23.5 35.5s-47.834 15.5 -96.501 25.5
c-5.33301 0.666992 -9.5 1.33398 -12.5 2.00098s-7 1.66699 -12 3s-9.83301 2.33301 -14.5 3c-33.333 6.66699 -61.833 14.334 -85.5 23.001s-47.5 20.834 -71.5 36.501s-42.333 36.167 -55 61.5s-19 55.333 -19 90c0 48.667 13.5 90.834 40.5 126.501s60.5 61.5 100.5 77.5
s83 24 129 24c92 0 160.833 -21.667 206.5 -65s71.834 -99 78.501 -167h-172c-6 23.333 -17.167 41.333 -33.5 54s-42.833 19 -79.5 19c-34.667 0 -59.834 -5.83301 -75.501 -17.5s-23.5 -26.167 -23.5 -43.5c0 -14 6.16699 -24 18.5 -30s34.5 -12.333 66.5 -19
c3.33301 -0.666992 6.16602 -1.16699 8.49902 -1.5s4.83301 -0.833008 7.5 -1.5z" />
    <glyph glyph-name="T" unicode="T" horiz-adv-x="601" 
d="M576 700v-162h-191v-538h-170v538h-190v162h551z" />
    <glyph glyph-name="U" unicode="U" horiz-adv-x="725" 
d="M487 700h172.998l-1 -414c0 -96 -27.167 -169.833 -81.5 -221.5s-125.166 -77.5 -212.499 -77.5s-158.166 25.833 -212.499 77.5s-81.5 125.5 -81.5 221.5l-1 414h173v-404c0 -98 40.667 -147 122 -147s122 49 122 147v404z" />
    <glyph glyph-name="V" unicode="V" horiz-adv-x="704" 
d="M499 700h180l-221 -700h-214l-219 700h180l147 -494z" />
    <glyph glyph-name="W" unicode="W" horiz-adv-x="1017" 
d="M818 700h174l-169 -700h-209l-61 253l-36 247l-17 1l-35 -248l-61 -253h-210l-169 700h175l80 -335l21 -163l21 163l80 335h213l80 -335l22 -167l21 167z" />
    <glyph glyph-name="X" unicode="X" horiz-adv-x="706" 
d="M681 0h-202l-128 218l-124 -218h-202l224 364l-213 336h202l118 -201l118 201h202l-217 -349z" />
    <glyph glyph-name="Y" unicode="Y" horiz-adv-x="705" 
d="M680 700l-242 -476v-224h-170v222l-243 478h191l137 -285l137 285h190z" />
    <glyph glyph-name="Z" unicode="Z" horiz-adv-x="598" 
d="M250 162h313v-162h-528v162l311 376h-295v162h509l1 -162z" />
    <glyph glyph-name="bracketleft" unicode="[" horiz-adv-x="437" 
d="M367 770v-162h-127v-696h127v-162h-297v1020h297z" />
    <glyph glyph-name="backslash" unicode="\" horiz-adv-x="515" 
d="M242 770l203 -770h-172l-203 770h172z" />
    <glyph glyph-name="bracketright" unicode="]" horiz-adv-x="437" 
d="M70 770h297v-1020h-297v162h127v696h-127v162z" />
    <glyph glyph-name="asciicircum" unicode="^" horiz-adv-x="643" 
d="M322 713l251 -252l-120 -120l-131 132l-132 -132l-120 120z" />
    <glyph glyph-name="underscore" unicode="_" horiz-adv-x="600" 
d="M530 -19v-162h-460v162h460z" />
    <glyph glyph-name="grave" unicode="`" horiz-adv-x="401" 
d="M170 838l161 -161l-73 -73l-188 134z" />
    <glyph glyph-name="a" unicode="a" horiz-adv-x="664" 
d="M444 550h170l-1 -550h-170v59c-39.333 -48 -91 -72 -155 -72c-70.667 0 -129.667 27 -177 81s-71 123 -71 207s23.833 153 71.5 207s106.167 81 175.5 81c66 0 118.333 -25 157 -75v62zM328 149c33.333 0 61 11.5 83 34.5s33 53.5 33 91.5
c0 37.333 -11 67.666 -33 90.999s-49.667 35 -83 35s-61 -11.667 -83 -35s-33 -53.666 -33 -90.999c0 -38 11 -68.5 33 -91.5s49.667 -34.5 83 -34.5z" />
    <glyph glyph-name="b" unicode="b" horiz-adv-x="664" 
d="M377 563c69.333 0 127.833 -27 175.5 -81s71.5 -123 71.5 -207s-23.667 -153 -71 -207s-106.333 -81 -177 -81c-64 0 -116 24 -156 72v-59h-170v770h170v-282c38.667 50 91 75 157 75zM336 149c33.333 0 61 11.5 83 34.5s33 53.5 33 91.5c0 37.333 -11 67.666 -33 90.999
s-49.667 35 -83 35s-61 -11.667 -83 -35s-33 -53.666 -33 -90.999c0 -38 11 -68.5 33 -91.5s49.667 -34.5 83 -34.5z" />
    <glyph glyph-name="c" unicode="c" horiz-adv-x="636" 
d="M328 -13c-83.333 0 -152.166 27.501 -206.499 82.501s-81.5 123.5 -81.5 205.5s27.167 150.5 81.5 205.5s123.5 82.5 207.5 82.5c71.333 0 133.333 -20.5 186 -61.5s83 -97.167 91 -168.5h-175c-12 48.667 -46 73 -102 73c-36.667 0 -65.334 -12 -86.001 -36
s-31 -55.667 -31 -95s10.5 -71 31.5 -95s49.167 -36 84.5 -36c24.667 0 46.5 6.16699 65.5 18.5s31.5 30.833 37.5 55.5h175c-8.66699 -72.667 -39.5 -129.334 -92.5 -170.001s-114.833 -61 -185.5 -61z" />
    <glyph glyph-name="d" unicode="d" horiz-adv-x="674" 
d="M454 770h170v-770h-170v59c-40 -48 -92 -72 -156 -72c-70.667 0 -129.667 27 -177 81s-71 123 -71 207s23.833 153 71.5 207s106.167 81 175.5 81c66 0 118.333 -25 157 -75v282zM338 149c33.333 0 61 11.5 83 34.5s33 53.5 33 91.5c0 37.333 -11 67.666 -33 90.999
s-49.667 35 -83 35s-61 -11.667 -83 -35s-33 -53.666 -33 -90.999c0 -38 11 -68.5 33 -91.5s49.667 -34.5 83 -34.5z" />
    <glyph glyph-name="e" unicode="e" horiz-adv-x="646" 
d="M330 563c90 0 162.002 -31.1689 216.002 -93.502s76.667 -139.166 68 -230.499h-401c4 -40 17.167 -70.167 39.5 -90.5s49.5 -30.5 81.5 -30.5c23.333 0 43.666 5.5 60.999 16.5s29.333 26.167 36 45.5h175c-18 -64.667 -51.833 -113 -101.5 -145s-106.5 -48 -170.5 -48
c-86.667 0 -157.334 27.333 -212.001 82s-82 123.334 -82 206.001c0 82 27.167 150.5 81.5 205.5s123.833 82.5 208.5 82.5zM329.002 431.998c-58 0 -95.001 -29.999 -111.001 -89.999h219c-6 27.333 -18.167 49.166 -36.5 65.499s-42.166 24.5 -71.499 24.5z" />
    <glyph glyph-name="f" unicode="f" horiz-adv-x="492" 
d="M367 634c-55.333 0 -83 -27.667 -83 -83v-1h166v-160h-166v-390h-170v390h-94v160h94v10c0 74.667 23.167 130.5 69.5 167.5s100.833 55.5 163.5 55.5c52.667 0 97.667 -9 135 -27l-30 -137l-22 6c-22.667 6 -43.667 9 -63 9z" />
    <glyph glyph-name="g" unicode="g" horiz-adv-x="664" 
d="M444 550h170.002v-542c0 -81.333 -25.167 -146.833 -75.5 -196.5s-117.5 -74.5 -201.5 -74.5c-72.667 0 -135.834 18.333 -189.501 55s-84.834 91 -93.501 163h175c10.667 -44.667 45 -67 103 -67c74.667 0 112 38 112 114v67c-40 -48 -92 -72 -156 -72
c-70.667 0 -129.667 26.667 -177 80s-71 121 -71 203s23.833 149.667 71.5 203s106.5 80 176.5 80c64.667 0 116.667 -24.667 156 -74v61zM328.002 159c33.333 0 61 11.333 83 34s33 51.667 33 87s-11 64.333 -33 87s-49.667 34 -83 34s-61 -11.333 -83 -34
s-33 -51.667 -33 -87s11.167 -64.333 33.5 -87s49.833 -34 82.5 -34z" />
    <glyph glyph-name="h" unicode="h" horiz-adv-x="626" 
d="M384 563c60.667 0 108.667 -19.668 144 -59.001s53 -92.666 53 -159.999v-344h-170v306c0 32 -6.16699 55.833 -18.5 71.5s-34.833 23.5 -67.5 23.5c-66.667 0 -100 -36.333 -100 -109v-292h-170v770h170v-282c40.667 50 93.667 75 159 75z" />
    <glyph glyph-name="i" unicode="i" horiz-adv-x="270" 
d="M135 810c30 0 54.667 -9.16699 74 -27.5s29 -41.5 29 -69.5c0 -28.667 -9.66699 -52.167 -29 -70.5s-44 -27.5 -74 -27.5c-29.333 0 -53.833 9.33301 -73.5 28s-29.5 42 -29.5 70s9.83301 51.167 29.5 69.5s44.167 27.5 73.5 27.5zM50 0v550h170v-550h-170z" />
    <glyph glyph-name="j" unicode="j" horiz-adv-x="270" 
d="M135 810c30 0 54.667 -9.16699 74 -27.5s29 -41.5 29 -69.5c0 -28.667 -9.66699 -52.167 -29 -70.5s-44 -27.5 -74 -27.5c-29.333 0 -53.833 9.33301 -73.5 28s-29.5 42 -29.5 70s9.83301 51.167 29.5 69.5s44.167 27.5 73.5 27.5zM50 -250v800h170v-800h-170z" />
    <glyph glyph-name="k" unicode="k" horiz-adv-x="654" 
d="M634 0h-215l-194 226v-226h-170v770h170v-439l181 219h215l-235 -262z" />
    <glyph glyph-name="l" unicode="l" horiz-adv-x="270" 
d="M50 0v770h170v-770h-170z" />
    <glyph glyph-name="m" unicode="m" horiz-adv-x="961" 
d="M723 563c59.333 0 106.333 -19.832 141 -59.499s52 -92.834 52 -159.501v-344h-170v306c0 32 -6 55.833 -18 71.5s-33.333 23.5 -64 23.5c-64 0 -96 -36.333 -96 -109v-292h-170v306c0 32 -6 55.833 -18 71.5s-33.333 23.5 -64 23.5c-64 0 -96 -36.333 -96 -109v-292
h-170v550h170v-62c40.667 50 92.667 75 156 75c76.667 0 131.667 -32 165 -96c44 64 104.667 96 182 96z" />
    <glyph glyph-name="n" unicode="n" horiz-adv-x="623" 
d="M379 563c62 0 110.668 -19.668 146.001 -59.001s53 -92.666 53 -159.999v-344h-170v306c0 32 -6.33301 55.833 -19 71.5s-35.334 23.5 -68.001 23.5c-67.333 0 -101 -36.333 -101 -109v-292h-170v550h170v-62c40.667 50 93.667 75 159 75z" />
    <glyph glyph-name="o" unicode="o" horiz-adv-x="656" 
d="M328 563c80 0 148 -27.499 204 -82.499s84 -123.5 84 -205.5c0 -82.667 -27.667 -151.334 -83 -206.001s-123.666 -82 -204.999 -82c-80.667 0 -148.834 27.5 -204.501 82.5s-83.5 123.5 -83.5 205.5s28 150.5 84 205.5s124 82.5 204 82.5zM328 401.001
c-33.333 0 -61 -11.667 -83 -35s-33 -53.666 -33 -90.999c0 -38 11 -68.5 33 -91.5s49.667 -34.5 83 -34.5s61 11.5 83 34.5s33 53.5 33 91.5c0 37.333 -11 67.666 -33 90.999s-49.667 35 -83 35z" />
    <glyph glyph-name="p" unicode="p" horiz-adv-x="669" 
d="M382 563c69.333 0 127.833 -27 175.5 -81s71.5 -123 71.5 -207s-23.667 -153 -71 -207s-106.333 -81 -177 -81c-64 0 -116 24 -156 72v-309h-170v800h170v-62c38.667 50 91 75 157 75zM341 149c33.333 0 61 11.5 83 34.5s33 53.5 33 91.5c0 37.333 -11 67.666 -33 90.999
s-49.667 35 -83 35s-61 -11.667 -83 -35s-33 -53.666 -33 -90.999c0 -38 11 -68.5 33 -91.5s49.667 -34.5 83 -34.5z" />
    <glyph glyph-name="q" unicode="q" horiz-adv-x="664" 
d="M444 550h170v-800h-170v309c-40 -48 -92 -72 -156 -72c-70.667 0 -129.667 27 -177 81s-71 123 -71 207s23.833 153 71.5 207s106.167 81 175.5 81c66 0 118.333 -25 157 -75v62zM328 149c33.333 0 61 11.5 83 34.5s33 53.5 33 91.5c0 37.333 -11 67.666 -33 90.999
s-49.667 35 -83 35s-61 -11.667 -83 -35s-33 -53.666 -33 -90.999c0 -38 11 -68.5 33 -91.5s49.667 -34.5 83 -34.5z" />
    <glyph glyph-name="r" unicode="r" horiz-adv-x="431" 
d="M380 563c12.667 0 23.001 -1.00098 31.001 -3.00098v-175c-14.667 1.33301 -26 2 -34 2c-22 0 -41.5 -2 -58.5 -6s-33.5 -11.167 -49.5 -21.5s-28.167 -25.666 -36.5 -45.999s-12.5 -45.5 -12.5 -75.5v-238h-170v550h170v-85c33.333 65.333 86.666 98 159.999 98z" />
    <glyph glyph-name="s" unicode="s" horiz-adv-x="590" 
d="M303 -13c-74.667 0 -137.168 16.6689 -187.501 50.002s-80.5 79 -90.5 137h172c9.33301 -39.333 45.333 -59 108 -59c50 0 75 12.667 75 38c0 10.667 -6.33301 18.5 -19 23.5s-43.334 12.833 -92.001 23.5c-80.667 17.333 -137.667 38.666 -171 63.999
s-50 61.666 -50 108.999c0 59.333 22.5 105.666 67.5 138.999s107.167 50 186.5 50c146.667 0 229.334 -57.333 248.001 -172h-172c-8 29.333 -35.667 44 -83 44c-50 0 -75 -13 -75 -39c0 -8.66699 3.83301 -14.5 11.5 -17.5s26.834 -7.83301 57.501 -14.5
c6 -1.33301 10.333 -2.33301 13 -3c91.333 -20 156.333 -42.167 195 -66.5s58 -63.166 58 -116.499c0 -61.333 -23.5 -108.333 -70.5 -141s-107.5 -49 -181.5 -49z" />
    <glyph glyph-name="t" unicode="t" horiz-adv-x="531" 
d="M467 172l28.998 -137c-17.333 -12 -42.333 -23 -75 -33s-65 -15 -97 -15c-59.333 0 -109.166 18.5 -149.499 55.5s-60.5 93.833 -60.5 170.5v177h-94v160h94v113l170 37v-150h185v-160h-185v-167c0 -52 23.333 -78 70 -78c18.667 0 56.334 9 113.001 27z" />
    <glyph glyph-name="u" unicode="u" horiz-adv-x="619" 
d="M399 550l170.001 0.000976562v-550h-170v63c-40.667 -50.667 -93.334 -76 -158.001 -76c-60.667 0 -108.5 19.667 -143.5 59s-52.5 92.666 -52.5 159.999v344h170v-306c0 -32 6.16699 -55.833 18.5 -71.5s34.5 -23.5 66.5 -23.5c66 0 99 36.333 99 109v292z" />
    <glyph glyph-name="v" unicode="v" horiz-adv-x="604" 
d="M403 550h181l-181 -550h-202l-181 550h181l101 -359z" />
    <glyph glyph-name="w" unicode="w" horiz-adv-x="893" 
d="M705 550h168l-146 -550h-195l-49 185l-28 198h-17l-28 -198l-49 -185h-195l-146 550h168l44 -173l35 -182l34 182l45 173h201l44 -173l35 -180l34 180z" />
    <glyph glyph-name="x" unicode="x" horiz-adv-x="629" 
d="M609 0h-202l-95 151l-88 -151h-204l191 284l-181 266h202l86 -139l79 139h204l-182 -271z" />
    <glyph glyph-name="y" unicode="y" horiz-adv-x="636" 
d="M435 550h181l-351 -800h-181l143 326l-207 474h181l116 -287z" />
    <glyph glyph-name="z" unicode="z" horiz-adv-x="548" 
d="M259 160h254v-160h-478v160l245 230h-230v160h454v-160z" />
    <glyph glyph-name="braceleft" unicode="{" horiz-adv-x="539" 
d="M363 389c0 -46.667 -9.5 -78.6689 -28.5 -96.002s-49.167 -28.333 -90.5 -33c41.333 -4.66699 71.5 -15.667 90.5 -33s28.5 -49.333 28.5 -96v-14c0 -44.667 2.33301 -81.167 7 -109.5s12.167 -49.833 22.5 -64.5s21 -24.834 32 -30.501s25.833 -10.167 44.5 -13.5v-162
c-33.333 0 -65.5 5.66699 -96.5 17s-60.333 28.833 -88 52.5s-49.834 56.834 -66.501 99.501s-25 92.334 -25 149.001v23c0 37.333 -5.33301 62.833 -16 76.5s-33.667 20.5 -69 20.5h-38v170h38c35.333 0 58.333 6.83301 69 20.5s16 39.167 16 76.5v23
c0 56.667 8.33301 106.334 25 149.001s38.834 75.834 66.501 99.501s57 41.167 88 52.5s63.167 17 96.5 17v-162c-18.667 -3.33301 -33.5 -7.83301 -44.5 -13.5s-21.667 -15.834 -32 -30.501s-17.833 -36.167 -22.5 -64.5s-7 -64.833 -7 -109.5v-14z" />
    <glyph glyph-name="bar" unicode="|" horiz-adv-x="310" 
d="M240 700v-794h-170v794h170z" />
    <glyph glyph-name="braceright" unicode="}" horiz-adv-x="539" 
d="M431 345l38 0.00195312v-170h-38c-35.333 0 -58.333 -6.83301 -69 -20.5s-16 -39.167 -16 -76.5v-23c0 -56.667 -8.33301 -106.334 -25 -149.001s-38.834 -75.834 -66.501 -99.501s-57 -41.167 -88 -52.5s-63.167 -17 -96.5 -17v162
c18.667 3.33301 33.5 7.83301 44.5 13.5s21.667 15.834 32 30.501s17.833 36.167 22.5 64.5s7 64.833 7 109.5v14c0 46.667 9.5 78.667 28.5 96s49.167 28.333 90.5 33c-41.333 4.66699 -71.5 15.667 -90.5 33s-28.5 49.333 -28.5 96v14c0 44.667 -2.33301 81.167 -7 109.5
s-12.167 49.833 -22.5 64.5s-21 24.834 -32 30.501s-25.833 10.167 -44.5 13.5v162c33.333 0 65.5 -5.66699 96.5 -17s60.333 -28.833 88 -52.5s49.834 -56.834 66.501 -99.501s25 -92.334 25 -149.001v-23c0 -37.333 5.33301 -62.833 16 -76.5s33.667 -20.5 69 -20.5z" />
    <glyph glyph-name="asciitilde" unicode="~" horiz-adv-x="641" 
d="M436 214c-19.333 0 -37 2.5 -53 7.5s-39 13.833 -69 26.5c-42.667 18.667 -68 28 -76 28c-10.667 0 -18.167 -3.83301 -22.5 -11.5s-6.5 -21.5 -6.5 -41.5h-139c0 76.667 11.667 129.667 35 159s56.666 44 99.999 44c19.333 0 37 -2.5 53 -7.5s39 -13.833 69 -26.5
c42.667 -18.667 68 -28 76 -28c10.667 0 18.167 3.83301 22.5 11.5s6.5 21.5 6.5 41.5h139c0 -76.667 -11.667 -129.667 -35 -159s-56.666 -44 -99.999 -44z" />
    <glyph glyph-name="exclamdown" unicode="&#xa1;" horiz-adv-x="346" 
d="M173 287c-29.333 0 -53.833 9.16699 -73.5 27.5s-29.5 41.833 -29.5 70.5s9.83301 52.167 29.5 70.5s44.167 27.5 73.5 27.5s53.833 -9.16699 73.5 -27.5s29.5 -41.833 29.5 -70.5s-9.83301 -52.167 -29.5 -70.5s-44.167 -27.5 -73.5 -27.5zM258 -230h-170v214l11 240
h148l11 -240v-214z" />
    <glyph glyph-name="cent" unicode="&#xa2;" horiz-adv-x="636" 
d="M328 144c24.667 0 46.5 6.16895 65.5 18.502s31.5 30.833 37.5 55.5h175c-6.66699 -57.333 -27.5 -104.833 -62.5 -142.5s-78.5 -63.5 -130.5 -77.5v-148h-169v148c-61.333 17.333 -110.666 51.166 -147.999 101.499s-56 108.833 -56 175.5s18.5 125.167 55.5 175.5
s86.5 84.166 148.5 101.499v148h169v-148c52 -14 95.667 -40 131 -78s56 -85 62 -141h-175c-12 48.667 -46 73 -102 73c-36.667 0 -65.334 -12 -86.001 -36s-31 -55.667 -31 -95s10.5 -71 31.5 -95s49.167 -36 84.5 -36z" />
    <glyph glyph-name="sterling" unicode="&#xa3;" horiz-adv-x="753" 
d="M512 236h171c0 -82.667 -18 -142.667 -54 -180s-91 -56 -165 -56h-394v162h20c26 0 43.667 5.5 53 16.5s14 28.833 14 53.5v39h-87v150h87v65c0 64.667 19.833 118.667 59.5 162s97.167 65 172.5 65c74 0 133.167 -21.667 177.5 -65s66.5 -100.333 66.5 -171h-171
c0 24.667 -4.83301 43.167 -14.5 55.5s-26.5 18.5 -50.5 18.5c-20 0 -35.5 -4 -46.5 -12s-17.667 -16.667 -20 -26s-3.5 -21 -3.5 -35v-57h152v-150h-152v-28c0 -39.333 -11 -66.333 -33 -81h145c30.667 0 50.5 5 59.5 15s13.5 29.667 13.5 59z" />
    <glyph glyph-name="currency" unicode="&#xa4;" horiz-adv-x="761" 
d="M622 346c0 -36.667 -7 -70.333 -21 -101l90 -90l-119 -119l-90 90c-30 -14 -63.667 -21 -101 -21c-34.667 0 -68.667 7 -102 21l-89 -90l-120 119l90 89c-14 33.333 -21 67.333 -21 102c0 35.333 7 69 21 101l-90 90l120 119l90 -90c33.333 14 67 21 101 21
c36.667 0 70 -7 100 -21l90 90l120 -119l-90 -90c14 -30 21 -63.667 21 -101zM381 254.001c25.333 0 46.5 8.33301 63.5 25s25.5 39 25.5 67c0 27.333 -8.5 49.5 -25.5 66.5s-38.167 25.5 -63.5 25.5s-46.5 -8.5 -63.5 -25.5s-25.5 -39.167 -25.5 -66.5
c0 -28 8.5 -50.333 25.5 -67s38.167 -25 63.5 -25z" />
    <glyph glyph-name="yen" unicode="&#xa5;" horiz-adv-x="795" 
d="M725 700l-210 -414h113v-88h-145v-35h145v-88h-145v-75h-170v75h-146v88h146v35h-146v88h113l-210 414h191l137 -285l137 285h190z" />
    <glyph glyph-name="brokenbar" unicode="&#xa6;" horiz-adv-x="310" 
d="M240 700v-357h-170v357h170zM240 263v-357h-170v357h170z" />
    <glyph glyph-name="section" unicode="&#xa7;" horiz-adv-x="637" 
d="M487 211c53.333 -26 80 -69.333 80 -130c0 -62 -22.333 -109.5 -67 -142.5s-104 -49.5 -178 -49.5c-71.333 0 -127.5 15 -168.5 45s-66.167 72.333 -75.5 127h172c7.33301 -29.333 32.666 -44 75.999 -44c46 0 69 14.667 69 44c0 7.33301 -3.5 12.5 -10.5 15.5
s-25.5 7.83301 -55.5 14.5c-21.333 4.66699 -38.166 8.5 -50.499 11.5s-27.833 7.16699 -46.5 12.5s-33.5 10.333 -44.5 15s-23.5 10.334 -37.5 17.001s-24.833 13.834 -32.5 21.501s-15.334 16.5 -23.001 26.5s-13.167 21 -16.5 33s-5 25.333 -5 40
c0 48.667 25.667 89.667 77 123c-53.333 26 -80 69.333 -80 130c0 62 22.333 109.5 67 142.5s104 49.5 178 49.5c71.333 0 127.5 -15 168.5 -45s66.167 -72.333 75.5 -127h-172c-7.33301 29.333 -32.666 44 -75.999 44c-46 0 -69 -14.667 -69 -44
c0 -7.33301 3.5 -12.5 10.5 -15.5s25.5 -7.83301 55.5 -14.5c21.333 -4.66699 38.166 -8.5 50.499 -11.5s27.833 -7.16699 46.5 -12.5s33.5 -10.333 44.5 -15s23.5 -10.334 37.5 -17.001s24.833 -13.834 32.5 -21.501s15.334 -16.5 23.001 -26.5s13.167 -21 16.5 -33
s5 -25.333 5 -40c0 -48.667 -25.667 -89.667 -77 -123zM248 306c0 -12.667 6.33301 -22 19 -28s42 -14.333 88 -25c22.667 14.667 34 29 34 43c0 12.667 -6.33301 22 -19 28s-42 14.333 -88 25c-22.667 -14.667 -34 -29 -34 -43z" />
    <glyph glyph-name="dieresis" unicode="&#xa8;" horiz-adv-x="554" 
d="M163 801c26.667 0 48.832 -8.33301 66.499 -25s26.5 -37.667 26.5 -63c0 -26 -8.66699 -47.333 -26 -64s-39.666 -25 -66.999 -25c-26.667 0 -48.834 8.33301 -66.501 25s-26.5 38 -26.5 64c0 25.333 8.83301 46.333 26.5 63s39.834 25 66.501 25zM389.998 801
c27.333 0 49.833 -8.33301 67.5 -25s26.5 -37.667 26.5 -63c0 -26 -8.83301 -47.333 -26.5 -64s-40.167 -25 -67.5 -25c-26.667 0 -48.834 8.33301 -66.501 25s-26.5 38 -26.5 64c0 25.333 8.83301 46.333 26.5 63s39.834 25 66.501 25z" />
    <glyph glyph-name="copyright" unicode="&#xa9;" horiz-adv-x="680" 
d="M340 783c74.667 0 138.334 -26.333 191.001 -79s79 -116.334 79 -191.001s-26.333 -138.334 -79 -191.001s-116.334 -79 -191.001 -79s-138.334 26.333 -191.001 79s-79 116.334 -79 191.001s26.333 138.334 79 191.001s116.334 79 191.001 79zM340 305
c57.333 0 106.166 20.335 146.499 61.002s60.5 89.667 60.5 147s-20.167 106.166 -60.5 146.499s-89.166 60.5 -146.499 60.5s-106.166 -20.333 -146.499 -61s-60.5 -89.334 -60.5 -146.001c0 -57.333 20.167 -106.333 60.5 -147s89.166 -61 146.499 -61zM342 573.002
c-16.667 0 -30 -5.49805 -40 -16.498s-15 -25.5 -15 -43.5s5 -32.5 15 -43.5s23.333 -16.5 40 -16.5c24.667 0 40 10.667 46 32h85c-4.66699 -33.333 -19.334 -60 -44.001 -80s-53.667 -30 -87 -30c-39.333 0 -72.166 13.167 -98.499 39.5s-39.5 59.166 -39.5 98.499
s13.167 72.166 39.5 98.499s59.166 39.5 98.499 39.5c33.333 0 62.333 -10 87 -30s39.334 -46.667 44.001 -80h-85c-6 21.333 -21.333 32 -46 32z" />
    <glyph glyph-name="guillemotleft" unicode="&#xab;" horiz-adv-x="831" 
d="M318 31l-248 248l248 248l116 -117l-132 -131l132 -131zM645 31l-248 248l248 248l116 -117l-132 -131l132 -131z" />
    <glyph glyph-name="logicalnot" unicode="&#xac;" horiz-adv-x="641" 
d="M571 376v-287h-170v125h-331v162h501z" />
    <glyph glyph-name="registered" unicode="&#xae;" horiz-adv-x="680" 
d="M340 783c74.667 0 138.334 -26.333 191.001 -79s79 -116.334 79 -191.001s-26.333 -138.334 -79 -191.001s-116.334 -79 -191.001 -79s-138.334 26.333 -191.001 79s-79 116.334 -79 191.001s26.333 138.334 79 191.001s116.334 79 191.001 79zM340 305
c57.333 0 106.166 20.335 146.499 61.002s60.5 89.667 60.5 147s-20.167 106.166 -60.5 146.499s-89.166 60.5 -146.499 60.5s-106.166 -20.333 -146.499 -61s-60.5 -89.334 -60.5 -146.001c0 -57.333 20.167 -106.333 60.5 -147s89.166 -61 146.499 -61zM458 553.002
c0 -36.667 -17.333 -61.667 -52 -75l66 -91h-95l-57 82h-7v-82h-80v251h139c26.667 0 47.667 -7.5 63 -22.5s23 -35.833 23 -62.5zM375 550.002c0 14 -7.66699 21 -23 21h-39v-43h39c15.333 0 23 7.33301 23 22z" />
    <glyph glyph-name="macron" unicode="&#xaf;" horiz-adv-x="390" 
d="M320 770v-122h-250v122h250z" />
    <glyph glyph-name="degree" unicode="&#xb0;" horiz-adv-x="483" 
d="M242 783c47.333 0 87.833 -16.667 121.5 -50s50.167 -73.666 49.5 -120.999c0.666992 -47.333 -15.833 -87.833 -49.5 -121.5s-74.167 -50.5 -121.5 -50.5s-87.833 16.833 -121.5 50.5s-50.5 74.167 -50.5 121.5s16.833 87.666 50.5 120.999s74.167 50 121.5 50zM242 663
c-14.667 0 -26.835 -4.83301 -36.502 -14.5s-14.5 -22.5 -14.5 -38.5c0 -15.333 4.83301 -27.666 14.5 -36.999s21.834 -14 36.501 -14s26.834 4.66699 36.501 14s14.167 21.666 13.5 36.999c0 16 -4.83301 28.833 -14.5 38.5s-21.5 14.5 -35.5 14.5z" />
    <glyph glyph-name="plusminus" unicode="&#xb1;" horiz-adv-x="641" 
d="M406 545v-116h165v-127h-165v-116h-170v116h-166v127h166v116h170zM571 151v-128h-501v128h501z" />
    <glyph glyph-name="uni00B2" unicode="&#xb2;" horiz-adv-x="428" 
d="M228 489l170 -0.000976562v-115h-368v104l147 112c26 19.333 42.333 32.833 49 40.5s10 16.167 10 25.5c0 14.667 -8 22 -24 22c-10.667 0 -18.667 -3.16699 -24 -9.5s-8.33301 -17.5 -9 -33.5h-147c2 39.333 18.333 73.833 49 103.5s75.334 44.5 134.001 44.5
c55.333 0 97.166 -13.333 125.499 -40s42.5 -58.334 42.5 -95.001c0 -29.333 -10.5 -55.166 -31.5 -77.499s-53.833 -45.166 -98.5 -68.499z" />
    <glyph glyph-name="uni00B3" unicode="&#xb3;" horiz-adv-x="430" 
d="M346 581c36 -21.333 53.9971 -51.333 53.9971 -90c0 -34.667 -14.667 -65 -44 -91s-74 -39 -134 -39c-62 0 -109.167 13.667 -141.5 41s-49.166 61 -50.499 101h147c2.66699 -14 6.83398 -23.667 12.501 -29s14.5 -8 26.5 -8c24.667 0 37 10.333 37 31
c0 21.333 -10.667 32 -32 32h-44v90h44c14.667 0 22 10.667 22 32c0 18 -9.66699 27 -29 27s-30 -12.333 -32 -37h-147c1.33301 40.667 17.833 74.5 49.5 101.5s75.5 40.5 131.5 40.5c56.667 0 99.834 -13.167 129.501 -39.5s44.5 -56.5 44.5 -90.5
c0 -32 -14.667 -56 -44 -72z" />
    <glyph glyph-name="acute" unicode="&#xb4;" horiz-adv-x="401" 
d="M231 840l100 -100l-188 -134l-73 73z" />
    <glyph glyph-name="paragraph" unicode="&#xb6;" horiz-adv-x="731" 
d="M172 700l489 0.00195312v-801h-170v639h-111v-639h-170v500h-38c-29.333 0 -53.666 9.66699 -72.999 29s-29 43.666 -29 72.999v97c0 29.333 9.66699 53.666 29 72.999s43.666 29 72.999 29z" />
    <glyph glyph-name="periodcentered" unicode="&#xb7;" horiz-adv-x="346" 
d="M173 410c29.333 0 53.833 -9.16699 73.5 -27.5s29.5 -41.833 29.5 -70.5s-9.83301 -52.167 -29.5 -70.5s-44.167 -27.5 -73.5 -27.5s-53.833 9.16699 -73.5 27.5s-29.5 41.833 -29.5 70.5s9.83301 52.167 29.5 70.5s44.167 27.5 73.5 27.5z" />
    <glyph glyph-name="cedilla" unicode="&#xb8;" horiz-adv-x="339" 
d="M213 -76c50.667 -15.333 76 -45.333 76 -90c0 -32.667 -14.167 -57 -42.5 -73s-67.5 -24 -117.5 -24c-23.333 0 -43 1 -59 3v81c18.667 -2.66699 31.667 -4 39 -4c34 0 51 9 51 27s-23.333 31.333 -70 40l50 116h114z" />
    <glyph glyph-name="uni00B9" unicode="&#xb9;" horiz-adv-x="310" 
d="M203 770h77v-396h-145v250l-105 -32v129z" />
    <glyph glyph-name="guillemotright" unicode="&#xbb;" horiz-adv-x="831" 
d="M186 31l-116 117l132 131l-132 131l116 117l248 -248zM513 31l-116 117l132 131l-132 131l116 117l248 -248z" />
    <glyph glyph-name="onequarter" unicode="&#xbc;" horiz-adv-x="1023" 
d="M280 304h-145v250l-105 -32v129l173 49h77v-396zM600 700h160l-400 -700h-160zM993 183v-115h-69v-68h-145v68h-189v115l158 213h176v-213h69zM703 183h76v106z" />
    <glyph glyph-name="onehalf" unicode="&#xbd;" horiz-adv-x="1048" 
d="M280 304h-145v250l-105 -32v129l173 49h77v-396zM600 700h160l-400 -700h-160zM848 115l170 -0.000976562v-115h-368v104l147 112c26 19.333 42.333 32.833 49 40.5s10 16.167 10 25.5c0 14.667 -8 22 -24 22c-10.667 0 -18.667 -3.16699 -24 -9.5
s-8.33301 -17.5 -9 -33.5h-147c2 39.333 18.333 73.833 49 103.5s75.334 44.5 134.001 44.5c55.333 0 97.166 -13.333 125.499 -40s42.5 -58.334 42.5 -95.001c0 -29.333 -10.5 -55.166 -31.5 -77.499s-53.833 -45.166 -98.5 -68.499z" />
    <glyph glyph-name="threequarters" unicode="&#xbe;" horiz-adv-x="1113" 
d="M400 421c0 -34.667 -14.6699 -65 -44.0029 -91s-74 -39 -134 -39c-62 0 -109.167 13.667 -141.5 41s-49.166 61 -50.499 101h147c2.66699 -14 6.83398 -23.667 12.501 -29s14.5 -8 26.5 -8c24.667 0 37 10.333 37 31c0 21.333 -10.667 32 -32 32h-44v90h44
c14.667 0 22 10.667 22 32c0 18 -9.66699 27 -29 27s-30 -12.333 -32 -37h-147c1.33301 40.667 17.833 74.5 49.5 101.5s75.5 40.5 131.5 40.5c56.667 0 99.834 -13.167 129.501 -39.5s44.5 -56.5 44.5 -90.5c0 -32 -14.667 -56 -44 -72c36 -21.333 54 -51.333 54 -90z
M689.997 700h160l-400 -700h-160zM1083 183v-115h-69v-68h-145v68h-189v115l158 213h176v-213h69zM792.997 183h76v106z" />
    <glyph glyph-name="questiondown" unicode="&#xbf;" horiz-adv-x="578" 
d="M293 463c30.667 0 56 -9 76 -27s30 -41.667 30 -71s-10 -53 -30 -71s-45.333 -27 -76 -27s-56 9 -76 27s-30 41.667 -30 71s10 53 30 71s45.333 27 76 27zM375 204v-53.0029c0 -34.667 -6.33301 -60 -19 -76s-39.667 -34.667 -81 -56
c-28.667 -15.333 -47.334 -26.666 -56.001 -33.999s-13 -17.666 -13 -30.999c0 -39.333 27.333 -59 82 -59c25.333 0 45.333 6.16699 60 18.5s22.667 35.5 24 69.5h171c-1.33301 -77.333 -26.5 -137.666 -75.5 -180.999s-111.167 -65 -186.5 -65
c-71.333 0 -130.166 18.667 -176.499 56s-69.5 89 -69.5 155c0 46 11.167 81.167 33.5 105.5s57.833 49.5 106.5 75.5c14.667 8 24 15.667 28 23s6 18.333 6 33v19h166z" />
    <glyph glyph-name="Agrave" unicode="&#xc0;" horiz-adv-x="772" 
d="M516 843l-73 -73l-188 134l100 100zM567 0l-50 145h-262l-50 -145h-180l254 700h214l254 -700h-180zM311 307h150l-75 218z" />
    <glyph glyph-name="Aacute" unicode="&#xc1;" horiz-adv-x="772" 
d="M516 904l-188 -134l-73 73l161 161zM567 0l-50 145h-262l-50 -145h-180l254 700h214l254 -700h-180zM311 307h150l-75 218z" />
    <glyph glyph-name="Acircumflex" unicode="&#xc2;" horiz-adv-x="772" 
d="M386 852l-72 -82l-89 89l161 161l161 -161l-89 -89zM567 0l-50 145h-262l-50 -145h-180l254 700h214l254 -700h-180zM311 307h150l-75 218z" />
    <glyph glyph-name="Atilde" unicode="&#xc3;" horiz-adv-x="772" 
d="M330 816c-18 0 -27 -12.333 -27 -37h-100c0 111.333 40 167 120 167c22.667 0 46.667 -8 72 -24c20 -12.667 35.667 -19 47 -19c18 0 27 12.333 27 37h100c0 -111.333 -40 -167 -120 -167c-22.667 0 -46.667 8 -72 24c-20 12.667 -35.667 19 -47 19zM567 0l-50 145h-262
l-50 -145h-180l254 700h214l254 -700h-180zM311 307h150l-75 218z" />
    <glyph glyph-name="Adieresis" unicode="&#xc4;" horiz-adv-x="772" 
d="M272 790c-26.667 0 -48.8359 8.33301 -66.5029 25s-26.5 38 -26.5 64c0 25.333 8.83301 46.333 26.5 63s39.834 25 66.501 25s48.834 -8.33301 66.501 -25s26.5 -37.667 26.5 -63c0 -26 -8.66699 -47.333 -26 -64s-39.666 -25 -66.999 -25zM498.998 790
c-26.667 0 -48.834 8.33301 -66.501 25s-26.5 38 -26.5 64c0 25.333 8.83301 46.333 26.5 63s39.834 25 66.501 25c27.333 0 49.833 -8.33301 67.5 -25s26.5 -37.667 26.5 -63c0 -26 -8.83301 -47.333 -26.5 -64s-40.167 -25 -67.5 -25zM566.998 0l-50 145h-262l-50 -145
h-180l254 700h214l254 -700h-180zM310.998 307h150l-75 218z" />
    <glyph glyph-name="Aring" unicode="&#xc5;" horiz-adv-x="772" 
d="M385 770c-36.667 0 -68.167 13.167 -94.5 39.5s-39.5 58.166 -39.5 95.499c0 36.667 13.167 68.167 39.5 94.5s57.833 39.5 94.5 39.5c37.333 0 69.166 -13 95.499 -39s39.5 -57.667 39.5 -95s-13.167 -69.166 -39.5 -95.499s-58.166 -39.5 -95.499 -39.5zM385 945
c-11.333 0 -20.833 -3.83301 -28.5 -11.5s-11.167 -17.5 -10.5 -29.5c-0.666992 -12 2.83301 -21.833 10.5 -29.5s17.167 -11.5 28.5 -11.5s20.833 3.83301 28.5 11.5s11.5 17.5 11.5 29.5s-3.83301 21.833 -11.5 29.5s-17.167 11.5 -28.5 11.5zM567 0l-50 145h-262
l-50 -145h-180l254 700h214l254 -700h-180zM311 307h150l-75 218z" />
    <glyph glyph-name="AE" unicode="&#xc6;" horiz-adv-x="905" 
d="M870 538h-312v-104h284v-162h-284v-110h312v-162h-482v145h-133l-50 -145h-180l254 700h214h377v-162zM311 307h77v223z" />
    <glyph glyph-name="Ccedilla" unicode="&#xc7;" horiz-adv-x="784" 
d="M408 149c36.667 0 68.832 8.66602 96.499 25.999s48.5 41.333 62.5 72h182c-18 -71.333 -54.167 -130.5 -108.5 -177.5s-119.5 -73.833 -195.5 -80.5l-35 -65c50.667 -15.333 76 -45.333 76 -90c0 -32.667 -14.167 -57 -42.5 -73s-67.5 -24 -117.5 -24
c-23.333 0 -43 1 -59 3v81c18.667 -2.66699 31.667 -4 39 -4c34 0 51 9 51 27s-23.333 31.333 -70 40l47 110c-86 16 -155.667 56.833 -209 122.5s-80 143.5 -80 233.5c0 103.333 34.333 189.666 103 258.999s155.334 104 260.001 104c84.667 0 157.834 -24 219.501 -72
s102.167 -110.667 121.5 -188h-182c-14 30.667 -34.833 54.667 -62.5 72s-59.834 26 -96.501 26c-57.333 0 -103.5 -18.667 -138.5 -56s-52.5 -85.666 -52.5 -144.999s17.5 -107.666 52.5 -144.999s81.167 -56 138.5 -56z" />
    <glyph glyph-name="Egrave" unicode="&#xc8;" horiz-adv-x="587" 
d="M424 843l-73 -73l-188 134l100 100zM552 538h-312v-104h284v-162h-284v-110h312v-162h-482v700h482v-162z" />
    <glyph glyph-name="Eacute" unicode="&#xc9;" horiz-adv-x="587" 
d="M424 904l-188 -134l-73 73l161 161zM552 538h-312v-104h284v-162h-284v-110h312v-162h-482v700h482v-162z" />
    <glyph glyph-name="Ecircumflex" unicode="&#xca;" horiz-adv-x="587" 
d="M294 852l-72 -82l-89 89l161 161l161 -161l-89 -89zM552 538h-312v-104h284v-162h-284v-110h312v-162h-482v700h482v-162z" />
    <glyph glyph-name="Edieresis" unicode="&#xcb;" horiz-adv-x="587" 
d="M180 790c-26.667 0 -48.8359 8.33301 -66.5029 25s-26.5 38 -26.5 64c0 25.333 8.83301 46.333 26.5 63s39.834 25 66.501 25s48.834 -8.33301 66.501 -25s26.5 -37.667 26.5 -63c0 -26 -8.66699 -47.333 -26 -64s-39.666 -25 -66.999 -25zM406.998 790
c-26.667 0 -48.834 8.33301 -66.501 25s-26.5 38 -26.5 64c0 25.333 8.83301 46.333 26.5 63s39.834 25 66.501 25c27.333 0 49.833 -8.33301 67.5 -25s26.5 -37.667 26.5 -63c0 -26 -8.83301 -47.333 -26.5 -64s-40.167 -25 -67.5 -25zM551.998 538h-312v-104h284v-162
h-284v-110h312v-162h-482v700h482v-162z" />
    <glyph glyph-name="Igrave" unicode="&#xcc;" horiz-adv-x="310" 
d="M124 1004l161 -161l-73 -73l-188 134zM70 0v700h170v-700h-170z" />
    <glyph glyph-name="Iacute" unicode="&#xcd;" horiz-adv-x="310" 
d="M185 1004l100 -100l-188 -134l-73 73zM70 0v700h170v-700h-170z" />
    <glyph glyph-name="Icircumflex" unicode="&#xce;" horiz-adv-x="310" 
d="M316 859l-89 -89l-72 82l-72 -82l-89 89l161 161zM70 0v700h170v-700h-170z" />
    <glyph glyph-name="Idieresis" unicode="&#xcf;" horiz-adv-x="310" 
d="M41 967c26.667 0 48.832 -8.33301 66.499 -25s26.5 -37.667 26.5 -63c0 -26 -8.66699 -47.333 -26 -64s-39.666 -25 -66.999 -25c-26.667 0 -48.834 8.33301 -66.501 25s-26.5 38 -26.5 64c0 25.333 8.83301 46.333 26.5 63s39.834 25 66.501 25zM267.998 967
c27.333 0 49.833 -8.33301 67.5 -25s26.5 -37.667 26.5 -63c0 -26 -8.83301 -47.333 -26.5 -64s-40.167 -25 -67.5 -25c-26.667 0 -48.834 8.33301 -66.501 25s-26.5 38 -26.5 64c0 25.333 8.83301 46.333 26.5 63s39.834 25 66.501 25zM69.998 0v700h170v-700h-170z" />
    <glyph glyph-name="Eth" unicode="&#xd0;" horiz-adv-x="729" 
d="M331 700c102 0 187.167 -33.5 255.5 -100.5s102.5 -150.167 102.5 -249.5s-34.167 -182.5 -102.5 -249.5s-153.5 -100.5 -255.5 -100.5h-261v269h-51v162h51v269h261zM331 162c55.333 0 100.5 17.5 135.5 52.5s52.5 80.167 52.5 135.5c0 56 -17.5 101.333 -52.5 136
s-80.167 52 -135.5 52h-91v-107h90v-162h-90v-107h91z" />
    <glyph glyph-name="Ntilde" unicode="&#xd1;" horiz-adv-x="742" 
d="M315 816c-18 0 -27 -12.333 -27 -37h-100c0 111.333 40 167 120 167c22.667 0 46.667 -8 72 -24c20 -12.667 35.667 -19 47 -19c18 0 27 12.333 27 37h100c0 -111.333 -40 -167 -120 -167c-22.667 0 -46.667 8 -72 24c-20 12.667 -35.667 19 -47 19zM507 700h170v-700
h-193l-263 441l14 -148v-293h-170v700h193l262 -441l-13 148v293z" />
    <glyph glyph-name="Ograve" unicode="&#xd2;" horiz-adv-x="812" 
d="M375 1004l161 -161l-73 -73l-188 134zM406 713c103.333 0 190.166 -34.833 260.499 -104.5s105.5 -155.834 105.5 -258.501s-35.167 -188.834 -105.5 -258.501s-157.166 -104.5 -260.499 -104.5s-190.166 34.833 -260.499 104.5s-105.5 155.834 -105.5 258.501
s35.167 188.834 105.5 258.501s157.166 104.5 260.499 104.5zM406 551c-56 0 -102.333 -18.833 -139 -56.5s-55 -85.834 -55 -144.501s18.333 -106.834 55 -144.501s83 -56.5 139 -56.5s102.333 18.833 139 56.5s55 85.834 55 144.501s-18.333 106.834 -55 144.501
s-83 56.5 -139 56.5z" />
    <glyph glyph-name="Oacute" unicode="&#xd3;" horiz-adv-x="812" 
d="M436 1004l100 -100l-188 -134l-73 73zM406 713c103.333 0 190.166 -34.833 260.499 -104.5s105.5 -155.834 105.5 -258.501s-35.167 -188.834 -105.5 -258.501s-157.166 -104.5 -260.499 -104.5s-190.166 34.833 -260.499 104.5s-105.5 155.834 -105.5 258.501
s35.167 188.834 105.5 258.501s157.166 104.5 260.499 104.5zM406 551c-56 0 -102.333 -18.833 -139 -56.5s-55 -85.834 -55 -144.501s18.333 -106.834 55 -144.501s83 -56.5 139 -56.5s102.333 18.833 139 56.5s55 85.834 55 144.501s-18.333 106.834 -55 144.501
s-83 56.5 -139 56.5z" />
    <glyph glyph-name="Ocircumflex" unicode="&#xd4;" horiz-adv-x="812" 
d="M567 859l-89 -89l-72 82l-72 -82l-89 89l161 161zM406 713c103.333 0 190.166 -34.833 260.499 -104.5s105.5 -155.834 105.5 -258.501s-35.167 -188.834 -105.5 -258.501s-157.166 -104.5 -260.499 -104.5s-190.166 34.833 -260.499 104.5
s-105.5 155.834 -105.5 258.501s35.167 188.834 105.5 258.501s157.166 104.5 260.499 104.5zM406 551c-56 0 -102.333 -18.833 -139 -56.5s-55 -85.834 -55 -144.501s18.333 -106.834 55 -144.501s83 -56.5 139 -56.5s102.333 18.833 139 56.5s55 85.834 55 144.501
s-18.333 106.834 -55 144.501s-83 56.5 -139 56.5z" />
    <glyph glyph-name="Otilde" unicode="&#xd5;" horiz-adv-x="812" 
d="M489 940h100c0 -111.333 -40 -167 -120 -167c-22.667 0 -46.667 8 -72 24c-20 12.667 -35.667 19 -47 19c-18 0 -27 -12.333 -27 -37h-100c0 111.333 40 167 120 167c22.667 0 46.667 -8 72 -24c20 -12.667 35.667 -19 47 -19c18 0 27 12.333 27 37zM406 713
c103.333 0 190.166 -34.833 260.499 -104.5s105.5 -155.834 105.5 -258.501s-35.167 -188.834 -105.5 -258.501s-157.166 -104.5 -260.499 -104.5s-190.166 34.833 -260.499 104.5s-105.5 155.834 -105.5 258.501s35.167 188.834 105.5 258.501s157.166 104.5 260.499 104.5
zM406 551c-56 0 -102.333 -18.833 -139 -56.5s-55 -85.834 -55 -144.501s18.333 -106.834 55 -144.501s83 -56.5 139 -56.5s102.333 18.833 139 56.5s55 85.834 55 144.501s-18.333 106.834 -55 144.501s-83 56.5 -139 56.5z" />
    <glyph glyph-name="Odieresis" unicode="&#xd6;" horiz-adv-x="812" 
d="M292 967c26.667 0 48.832 -8.33301 66.499 -25s26.5 -37.667 26.5 -63c0 -26 -8.66699 -47.333 -26 -64s-39.666 -25 -66.999 -25c-26.667 0 -48.834 8.33301 -66.501 25s-26.5 38 -26.5 64c0 25.333 8.83301 46.333 26.5 63s39.834 25 66.501 25zM518.998 967
c27.333 0 49.833 -8.33301 67.5 -25s26.5 -37.667 26.5 -63c0 -26 -8.83301 -47.333 -26.5 -64s-40.167 -25 -67.5 -25c-26.667 0 -48.834 8.33301 -66.501 25s-26.5 38 -26.5 64c0 25.333 8.83301 46.333 26.5 63s39.834 25 66.501 25zM405.998 713
c103.333 0 190.166 -34.833 260.499 -104.5s105.5 -155.834 105.5 -258.501s-35.167 -188.834 -105.5 -258.501s-157.166 -104.5 -260.499 -104.5s-190.166 34.833 -260.499 104.5s-105.5 155.834 -105.5 258.501s35.167 188.834 105.5 258.501s157.166 104.5 260.499 104.5
zM405.998 551c-56 0 -102.333 -18.833 -139 -56.5s-55 -85.834 -55 -144.501s18.333 -106.834 55 -144.501s83 -56.5 139 -56.5s102.333 18.833 139 56.5s55 85.834 55 144.501s-18.333 106.834 -55 144.501s-83 56.5 -139 56.5z" />
    <glyph glyph-name="multiply" unicode="&#xd7;" horiz-adv-x="641" 
d="M456 545l115 -115l-136 -136l136 -136l-115 -114l-136 136l-135 -136l-115 114l136 136l-136 136l115 115l135 -136z" />
    <glyph glyph-name="Oslash" unicode="&#xd8;" horiz-adv-x="812" 
d="M624 645c46 -33.333 82.1689 -75.667 108.502 -127s39.5 -107.333 39.5 -168c0 -102.667 -35.167 -188.834 -105.5 -258.501s-157.166 -104.5 -260.499 -104.5c-26.667 0 -51.334 2.33301 -74.001 7l-13 -29h-172l41 91c-46 33.333 -82.167 75.333 -108.5 126
s-39.5 106.667 -39.5 168c0 102.667 35.167 188.834 105.5 258.501s157.166 104.5 260.499 104.5c27.333 0 51.666 -2.33301 72.999 -7l13 29h172zM212.002 349.999c0 -53.333 15.667 -98.332 47 -134.999l151 336h-4c-56 0 -102.333 -18.833 -139 -56.5
s-55 -85.834 -55 -144.501zM406.002 149c56 0 102.333 18.833 139 56.5s55 85.834 55 144.501c0 53.333 -16 98.666 -48 135.999l-151 -337h5z" />
    <glyph glyph-name="Ugrave" unicode="&#xd9;" horiz-adv-x="725" 
d="M332 1004l161 -161l-73 -73l-188 134zM487 700h172.998l-1 -414c0 -96 -27.167 -169.833 -81.5 -221.5s-125.166 -77.5 -212.499 -77.5s-158.166 25.833 -212.499 77.5s-81.5 125.5 -81.5 221.5l-1 414h173v-404c0 -98 40.667 -147 122 -147s122 49 122 147v404z" />
    <glyph glyph-name="Uacute" unicode="&#xda;" horiz-adv-x="725" 
d="M393 1004l100 -100l-188 -134l-73 73zM487 700h172.998l-1 -414c0 -96 -27.167 -169.833 -81.5 -221.5s-125.166 -77.5 -212.499 -77.5s-158.166 25.833 -212.499 77.5s-81.5 125.5 -81.5 221.5l-1 414h173v-404c0 -98 40.667 -147 122 -147s122 49 122 147v404z" />
    <glyph glyph-name="Ucircumflex" unicode="&#xdb;" horiz-adv-x="725" 
d="M524 859l-89 -89l-72 82l-72 -82l-89 89l161 161zM487 700h172.998l-1 -414c0 -96 -27.167 -169.833 -81.5 -221.5s-125.166 -77.5 -212.499 -77.5s-158.166 25.833 -212.499 77.5s-81.5 125.5 -81.5 221.5l-1 414h173v-404c0 -98 40.667 -147 122 -147s122 49 122 147
v404z" />
    <glyph glyph-name="Udieresis" unicode="&#xdc;" horiz-adv-x="725" 
d="M249 967c26.667 0 48.832 -8.33301 66.499 -25s26.5 -37.667 26.5 -63c0 -26 -8.66699 -47.333 -26 -64s-39.666 -25 -66.999 -25c-26.667 0 -48.834 8.33301 -66.501 25s-26.5 38 -26.5 64c0 25.333 8.83301 46.333 26.5 63s39.834 25 66.501 25zM475.998 967
c27.333 0 49.833 -8.33301 67.5 -25s26.5 -37.667 26.5 -63c0 -26 -8.83301 -47.333 -26.5 -64s-40.167 -25 -67.5 -25c-26.667 0 -48.834 8.33301 -66.501 25s-26.5 38 -26.5 64c0 25.333 8.83301 46.333 26.5 63s39.834 25 66.501 25zM486.998 700h172.998l-1 -414
c0 -96 -27.167 -169.833 -81.5 -221.5s-125.166 -77.5 -212.499 -77.5s-158.166 25.833 -212.499 77.5s-81.5 125.5 -81.5 221.5l-1 414h173v-404c0 -98 40.667 -147 122 -147s122 49 122 147v404z" />
    <glyph glyph-name="Yacute" unicode="&#xdd;" horiz-adv-x="705" 
d="M483 904l-188 -134l-73 73l161 161zM680 700l-242 -476v-224h-170v222l-243 478h191l137 -285l137 285h190z" />
    <glyph glyph-name="Thorn" unicode="&#xde;" horiz-adv-x="662" 
d="M370 618c76 0 136.999 -21 182.999 -63s69 -101 69 -177s-23.167 -135.667 -69.5 -179s-107.166 -65 -182.499 -65h-130v-134h-170v700h170v-82h130zM362.999 296c58 0 87 26.667 87 80s-29 80 -87 80h-123v-160h123z" />
    <glyph glyph-name="germandbls" unicode="&#xdf;" horiz-adv-x="649" 
d="M495 402c37.333 -12.667 66.5 -36.333 87.5 -71s31.5 -75.667 31.5 -123c0 -68.667 -20.833 -122.667 -62.5 -162s-93.167 -59 -154.5 -59c-55.333 0 -103.333 8.66699 -144 26l34 156c34 -13.333 60.333 -20 79 -20c24 0 42.667 6.5 56 19.5s20 30.833 20 53.5
c0 48 -30.333 72 -91 72h-74v162h68c14.667 0 28.5 7 41.5 21s19.5 33.333 19.5 58c0 24 -7 44.333 -21 61s-36.667 25 -68 25s-55.333 -9.16699 -72 -27.5s-25 -44.833 -25 -79.5v-514h-170v518c0 82.667 24.167 147.5 72.5 194.5s113.166 70.5 194.499 70.5
c80.667 0 144.334 -22 191.001 -66s70 -98.333 70 -163c0 -68 -27.667 -118.667 -83 -152z" />
    <glyph glyph-name="agrave" unicode="&#xe0;" horiz-adv-x="664" 
d="M472 677l-73 -73l-188 134l100 100zM444 550h170l-1 -550h-170v59c-39.333 -48 -91 -72 -155 -72c-70.667 0 -129.667 27 -177 81s-71 123 -71 207s23.833 153 71.5 207s106.167 81 175.5 81c66 0 118.333 -25 157 -75v62zM328 149c33.333 0 61 11.5 83 34.5
s33 53.5 33 91.5c0 37.333 -11 67.666 -33 90.999s-49.667 35 -83 35s-61 -11.667 -83 -35s-33 -53.666 -33 -90.999c0 -38 11 -68.5 33 -91.5s49.667 -34.5 83 -34.5z" />
    <glyph glyph-name="aacute" unicode="&#xe1;" horiz-adv-x="664" 
d="M472 740l-188 -134l-73 73l161 161zM444 550h170l-1 -550h-170v59c-39.333 -48 -91 -72 -155 -72c-70.667 0 -129.667 27 -177 81s-71 123 -71 207s23.833 153 71.5 207s106.167 81 175.5 81c66 0 118.333 -25 157 -75v62zM328 149c33.333 0 61 11.5 83 34.5
s33 53.5 33 91.5c0 37.333 -11 67.666 -33 90.999s-49.667 35 -83 35s-61 -11.667 -83 -35s-33 -53.666 -33 -90.999c0 -38 11 -68.5 33 -91.5s49.667 -34.5 83 -34.5z" />
    <glyph glyph-name="acircumflex" unicode="&#xe2;" horiz-adv-x="664" 
d="M342 688l-72 -82l-89 89l161 161l161 -161l-89 -89zM444 550h170l-1 -550h-170v59c-39.333 -48 -91 -72 -155 -72c-70.667 0 -129.667 27 -177 81s-71 123 -71 207s23.833 153 71.5 207s106.167 81 175.5 81c66 0 118.333 -25 157 -75v62zM328 149
c33.333 0 61 11.5 83 34.5s33 53.5 33 91.5c0 37.333 -11 67.666 -33 90.999s-49.667 35 -83 35s-61 -11.667 -83 -35s-33 -53.666 -33 -90.999c0 -38 11 -68.5 33 -91.5s49.667 -34.5 83 -34.5z" />
    <glyph glyph-name="atilde" unicode="&#xe3;" horiz-adv-x="664" 
d="M286 661c-18 0 -27 -12.333 -27 -37h-100c0 111.333 40 167 120 167c22.667 0 46.667 -8 72 -24c20 -12.667 35.667 -19 47 -19c18 0 27 12.333 27 37h100c0 -111.333 -40 -167 -120 -167c-22.667 0 -46.667 8 -72 24c-20 12.667 -35.667 19 -47 19zM444 550h170l-1 -550
h-170v59c-39.333 -48 -91 -72 -155 -72c-70.667 0 -129.667 27 -177 81s-71 123 -71 207s23.833 153 71.5 207s106.167 81 175.5 81c66 0 118.333 -25 157 -75v62zM328 149c33.333 0 61 11.5 83 34.5s33 53.5 33 91.5c0 37.333 -11 67.666 -33 90.999s-49.667 35 -83 35
s-61 -11.667 -83 -35s-33 -53.666 -33 -90.999c0 -38 11 -68.5 33 -91.5s49.667 -34.5 83 -34.5z" />
    <glyph glyph-name="adieresis" unicode="&#xe4;" horiz-adv-x="664" 
d="M228 624c-26.667 0 -48.8359 8.33301 -66.5029 25s-26.5 38 -26.5 64c0 25.333 8.83301 46.333 26.5 63s39.834 25 66.501 25s48.834 -8.33301 66.501 -25s26.5 -37.667 26.5 -63c0 -26 -8.66699 -47.333 -26 -64s-39.666 -25 -66.999 -25zM454.998 624
c-26.667 0 -48.834 8.33301 -66.501 25s-26.5 38 -26.5 64c0 25.333 8.83301 46.333 26.5 63s39.834 25 66.501 25c27.333 0 49.833 -8.33301 67.5 -25s26.5 -37.667 26.5 -63c0 -26 -8.83301 -47.333 -26.5 -64s-40.167 -25 -67.5 -25zM443.998 550h170l-1 -550h-170v59
c-39.333 -48 -91 -72 -155 -72c-70.667 0 -129.667 27 -177 81s-71 123 -71 207s23.833 153 71.5 207s106.167 81 175.5 81c66 0 118.333 -25 157 -75v62zM327.998 149c33.333 0 61 11.5 83 34.5s33 53.5 33 91.5c0 37.333 -11 67.666 -33 90.999s-49.667 35 -83 35
s-61 -11.667 -83 -35s-33 -53.666 -33 -90.999c0 -38 11 -68.5 33 -91.5s49.667 -34.5 83 -34.5z" />
    <glyph glyph-name="aring" unicode="&#xe5;" horiz-adv-x="664" 
d="M341 606c-36.667 0 -68.167 13.167 -94.5 39.5s-39.5 58.166 -39.5 95.499c0 36.667 13.167 68.167 39.5 94.5s57.833 39.5 94.5 39.5c37.333 0 69.166 -13 95.499 -39s39.5 -57.667 39.5 -95s-13.167 -69.166 -39.5 -95.499s-58.166 -39.5 -95.499 -39.5zM341 781
c-11.333 0 -20.833 -3.83301 -28.5 -11.5s-11.167 -17.5 -10.5 -29.5c-0.666992 -12 2.83301 -21.833 10.5 -29.5s17.167 -11.5 28.5 -11.5s20.833 3.83301 28.5 11.5s11.5 17.5 11.5 29.5s-3.83301 21.833 -11.5 29.5s-17.167 11.5 -28.5 11.5zM444 550h170l-1 -550h-170
v59c-39.333 -48 -91 -72 -155 -72c-70.667 0 -129.667 27 -177 81s-71 123 -71 207s23.833 153 71.5 207s106.167 81 175.5 81c66 0 118.333 -25 157 -75v62zM328 149c33.333 0 61 11.5 83 34.5s33 53.5 33 91.5c0 37.333 -11 67.666 -33 90.999s-49.667 35 -83 35
s-61 -11.667 -83 -35s-33 -53.666 -33 -90.999c0 -38 11 -68.5 33 -91.5s49.667 -34.5 83 -34.5z" />
    <glyph glyph-name="ae" unicode="&#xe6;" horiz-adv-x="1050" 
d="M734 563c90 0 162.001 -31.168 216.001 -93.501s76.667 -139.166 68 -230.499h-401c4 -40 17.167 -70.167 39.5 -90.5s49.5 -30.5 81.5 -30.5c23.333 0 43.666 5.5 60.999 16.5s29.333 26.167 36 45.5h175c-18 -64.667 -51.833 -113 -101.5 -145s-106.5 -48 -170.5 -48
c-57.333 0 -109 13 -155 39v-27h-140v59c-39.333 -48 -91 -72 -155 -72c-70.667 0 -129.667 27 -177 81s-71 123 -71 207s23.833 153 71.5 207s106.167 81 175.5 81c66 0 118.333 -25 157 -75v62h140v-24c45.333 25.333 95.333 38 150 38zM733.001 431.999
c-58 0 -95.001 -29.999 -111.001 -89.999h219c-6 27.333 -18.167 49.166 -36.5 65.499s-42.166 24.5 -71.499 24.5zM328 148c33.333 0 61 11.5 83 34.5s33 53.5 33 91.5c0 37.333 -11 67.666 -33 90.999s-49.667 35 -83 35s-61 -11.667 -83 -35s-33 -53.666 -33 -90.999
c0 -38 11 -68.5 33 -91.5s49.667 -34.5 83 -34.5z" />
    <glyph glyph-name="ccedilla" unicode="&#xe7;" horiz-adv-x="636" 
d="M328 144c24.667 0 46.501 6.16699 65.501 18.5s31.5 30.833 37.5 55.5h175c-7.33301 -64 -32.5 -115.833 -75.5 -155.5s-94.833 -63.834 -155.5 -72.501l-36 -66c50.667 -15.333 76 -45.333 76 -90c0 -32.667 -14.167 -57 -42.5 -73s-67.5 -24 -117.5 -24
c-23.333 0 -43 1 -59 3v81c18.667 -2.66699 31.667 -4 39 -4c34 0 51 9 51 27s-23.333 31.333 -70 40l47 110c-66.667 13.333 -120.5 45.833 -161.5 97.5s-61.5 112.834 -61.5 183.501c0 82 27.167 150.5 81.5 205.5s123.5 82.5 207.5 82.5
c71.333 0 133.333 -20.5 186 -61.5s83 -97.167 91 -168.5h-175c-12 48.667 -46 73 -102 73c-36.667 0 -65.334 -12 -86.001 -36s-31 -55.667 -31 -95s10.5 -71 31.5 -95s49.167 -36 84.5 -36z" />
    <glyph glyph-name="egrave" unicode="&#xe8;" horiz-adv-x="646" 
d="M455 677l-73 -73l-188 134l100 100zM330 563c90 0 162.002 -31.1689 216.002 -93.502s76.667 -139.166 68 -230.499h-401c4 -40 17.167 -70.167 39.5 -90.5s49.5 -30.5 81.5 -30.5c23.333 0 43.666 5.5 60.999 16.5s29.333 26.167 36 45.5h175
c-18 -64.667 -51.833 -113 -101.5 -145s-106.5 -48 -170.5 -48c-86.667 0 -157.334 27.333 -212.001 82s-82 123.334 -82 206.001c0 82 27.167 150.5 81.5 205.5s123.833 82.5 208.5 82.5zM329.002 431.998c-58 0 -95.001 -29.999 -111.001 -89.999h219
c-6 27.333 -18.167 49.166 -36.5 65.499s-42.166 24.5 -71.499 24.5z" />
    <glyph glyph-name="eacute" unicode="&#xe9;" horiz-adv-x="646" 
d="M455 740l-188 -134l-73 73l161 161zM330 563c90 0 162.002 -31.1689 216.002 -93.502s76.667 -139.166 68 -230.499h-401c4 -40 17.167 -70.167 39.5 -90.5s49.5 -30.5 81.5 -30.5c23.333 0 43.666 5.5 60.999 16.5s29.333 26.167 36 45.5h175
c-18 -64.667 -51.833 -113 -101.5 -145s-106.5 -48 -170.5 -48c-86.667 0 -157.334 27.333 -212.001 82s-82 123.334 -82 206.001c0 82 27.167 150.5 81.5 205.5s123.833 82.5 208.5 82.5zM329.002 431.998c-58 0 -95.001 -29.999 -111.001 -89.999h219
c-6 27.333 -18.167 49.166 -36.5 65.499s-42.166 24.5 -71.499 24.5z" />
    <glyph glyph-name="ecircumflex" unicode="&#xea;" horiz-adv-x="646" 
d="M325 688l-72 -82l-89 89l161 161l161 -161l-89 -89zM330 563c90 0 162.002 -31.1689 216.002 -93.502s76.667 -139.166 68 -230.499h-401c4 -40 17.167 -70.167 39.5 -90.5s49.5 -30.5 81.5 -30.5c23.333 0 43.666 5.5 60.999 16.5s29.333 26.167 36 45.5h175
c-18 -64.667 -51.833 -113 -101.5 -145s-106.5 -48 -170.5 -48c-86.667 0 -157.334 27.333 -212.001 82s-82 123.334 -82 206.001c0 82 27.167 150.5 81.5 205.5s123.833 82.5 208.5 82.5zM329.002 431.998c-58 0 -95.001 -29.999 -111.001 -89.999h219
c-6 27.333 -18.167 49.166 -36.5 65.499s-42.166 24.5 -71.499 24.5z" />
    <glyph glyph-name="edieresis" unicode="&#xeb;" horiz-adv-x="646" 
d="M211 624c-26.667 0 -48.8359 8.33301 -66.5029 25s-26.5 38 -26.5 64c0 25.333 8.83301 46.333 26.5 63s39.834 25 66.501 25s48.834 -8.33301 66.501 -25s26.5 -37.667 26.5 -63c0 -26 -8.66699 -47.333 -26 -64s-39.666 -25 -66.999 -25zM437.998 624
c-26.667 0 -48.834 8.33301 -66.501 25s-26.5 38 -26.5 64c0 25.333 8.83301 46.333 26.5 63s39.834 25 66.501 25c27.333 0 49.833 -8.33301 67.5 -25s26.5 -37.667 26.5 -63c0 -26 -8.83301 -47.333 -26.5 -64s-40.167 -25 -67.5 -25zM329.998 563
c90 0 162.002 -31.1689 216.002 -93.502s76.667 -139.166 68 -230.499h-401c4 -40 17.167 -70.167 39.5 -90.5s49.5 -30.5 81.5 -30.5c23.333 0 43.666 5.5 60.999 16.5s29.333 26.167 36 45.5h175c-18 -64.667 -51.833 -113 -101.5 -145s-106.5 -48 -170.5 -48
c-86.667 0 -157.334 27.333 -212.001 82s-82 123.334 -82 206.001c0 82 27.167 150.5 81.5 205.5s123.833 82.5 208.5 82.5zM329 431.998c-58 0 -95.001 -29.999 -111.001 -89.999h219c-6 27.333 -18.167 49.166 -36.5 65.499s-42.166 24.5 -71.499 24.5z" />
    <glyph glyph-name="igrave" unicode="&#xec;" horiz-adv-x="270" 
d="M104 838l161 -161l-73 -73l-188 134zM50 0v550h170v-550h-170z" />
    <glyph glyph-name="iacute" unicode="&#xed;" horiz-adv-x="270" 
d="M165 840l100 -100l-188 -134l-73 73zM50 0v550h170v-550h-170z" />
    <glyph glyph-name="icircumflex" unicode="&#xee;" horiz-adv-x="270" 
d="M296 695l-89 -89l-72 82l-72 -82l-89 89l161 161zM50 0v550h170v-550h-170z" />
    <glyph glyph-name="idieresis" unicode="&#xef;" horiz-adv-x="270" 
d="M21 801c26.667 0 48.832 -8.33301 66.499 -25s26.5 -37.667 26.5 -63c0 -26 -8.66699 -47.333 -26 -64s-39.666 -25 -66.999 -25c-26.667 0 -48.834 8.33301 -66.501 25s-26.5 38 -26.5 64c0 25.333 8.83301 46.333 26.5 63s39.834 25 66.501 25zM247.998 801
c27.333 0 49.833 -8.33301 67.5 -25s26.5 -37.667 26.5 -63c0 -26 -8.83301 -47.333 -26.5 -64s-40.167 -25 -67.5 -25c-26.667 0 -48.834 8.33301 -66.501 25s-26.5 38 -26.5 64c0 25.333 8.83301 46.333 26.5 63s39.834 25 66.501 25zM49.998 0v550h170v-550h-170z" />
    <glyph glyph-name="eth" unicode="&#xf0;" horiz-adv-x="654" 
d="M614 657l-62.0039 -52.9971c41.333 -65.333 62 -148.666 62 -249.999c0 -64.667 -8.16699 -121.334 -24.5 -170.001s-38.666 -86.834 -66.999 -114.501s-59.666 -48.334 -93.999 -62.001s-71.166 -20.5 -110.499 -20.5c-80 0 -146.333 26 -199 78s-79 120 -79 204
c0 77.333 22.833 140.166 68.5 188.499s102.167 72.5 169.5 72.5c70 0 123 -25.667 159 -77c-12 61.333 -44 105 -96 131s-127.667 39 -227 39v160c130.667 0 235.334 -21.333 314.001 -64l74 64zM325.996 133.003c33.333 0 61 11.5 83 34.5s33 53.5 33 91.5
c0 37.333 -11 67.666 -33 90.999s-49.667 35 -83 35s-61 -11.667 -83 -35s-33 -53.666 -33 -90.999c0 -38 11 -68.5 33 -91.5s49.667 -34.5 83 -34.5z" />
    <glyph glyph-name="ntilde" unicode="&#xf1;" horiz-adv-x="623" 
d="M256 661c-18 0 -27 -12.333 -27 -37h-100c0 111.333 40 167 120 167c22.667 0 46.667 -8 72 -24c20 -12.667 35.667 -19 47 -19c18 0 27 12.333 27 37h100c0 -111.333 -40 -167 -120 -167c-22.667 0 -46.667 8 -72 24c-20 12.667 -35.667 19 -47 19zM379 563
c62 0 110.668 -19.668 146.001 -59.001s53 -92.666 53 -159.999v-344h-170v306c0 32 -6.33301 55.833 -19 71.5s-35.334 23.5 -68.001 23.5c-67.333 0 -101 -36.333 -101 -109v-292h-170v550h170v-62c40.667 50 93.667 75 159 75z" />
    <glyph glyph-name="ograve" unicode="&#xf2;" horiz-adv-x="656" 
d="M297 838l161 -161l-73 -73l-188 134zM328 563c80 0 148 -27.499 204 -82.499s84 -123.5 84 -205.5c0 -82.667 -27.667 -151.334 -83 -206.001s-123.666 -82 -204.999 -82c-80.667 0 -148.834 27.5 -204.501 82.5s-83.5 123.5 -83.5 205.5s28 150.5 84 205.5
s124 82.5 204 82.5zM328 401.001c-33.333 0 -61 -11.667 -83 -35s-33 -53.666 -33 -90.999c0 -38 11 -68.5 33 -91.5s49.667 -34.5 83 -34.5s61 11.5 83 34.5s33 53.5 33 91.5c0 37.333 -11 67.666 -33 90.999s-49.667 35 -83 35z" />
    <glyph glyph-name="oacute" unicode="&#xf3;" horiz-adv-x="656" 
d="M358 840l100 -100l-188 -134l-73 73zM328 563c80 0 148 -27.499 204 -82.499s84 -123.5 84 -205.5c0 -82.667 -27.667 -151.334 -83 -206.001s-123.666 -82 -204.999 -82c-80.667 0 -148.834 27.5 -204.501 82.5s-83.5 123.5 -83.5 205.5s28 150.5 84 205.5
s124 82.5 204 82.5zM328 401.001c-33.333 0 -61 -11.667 -83 -35s-33 -53.666 -33 -90.999c0 -38 11 -68.5 33 -91.5s49.667 -34.5 83 -34.5s61 11.5 83 34.5s33 53.5 33 91.5c0 37.333 -11 67.666 -33 90.999s-49.667 35 -83 35z" />
    <glyph glyph-name="ocircumflex" unicode="&#xf4;" horiz-adv-x="656" 
d="M489 695l-89 -89l-72 82l-72 -82l-89 89l161 161zM328 563c80 0 148 -27.499 204 -82.499s84 -123.5 84 -205.5c0 -82.667 -27.667 -151.334 -83 -206.001s-123.666 -82 -204.999 -82c-80.667 0 -148.834 27.5 -204.501 82.5s-83.5 123.5 -83.5 205.5s28 150.5 84 205.5
s124 82.5 204 82.5zM328 401.001c-33.333 0 -61 -11.667 -83 -35s-33 -53.666 -33 -90.999c0 -38 11 -68.5 33 -91.5s49.667 -34.5 83 -34.5s61 11.5 83 34.5s33 53.5 33 91.5c0 37.333 -11 67.666 -33 90.999s-49.667 35 -83 35z" />
    <glyph glyph-name="otilde" unicode="&#xf5;" horiz-adv-x="656" 
d="M411 785h100c0 -111.333 -40 -167 -120 -167c-22.667 0 -46.667 8 -72 24c-20 12.667 -35.667 19 -47 19c-18 0 -27 -12.333 -27 -37h-100c0 111.333 40 167 120 167c22.667 0 46.667 -8 72 -24c20 -12.667 35.667 -19 47 -19c18 0 27 12.333 27 37zM328 563
c80 0 148 -27.499 204 -82.499s84 -123.5 84 -205.5c0 -82.667 -27.667 -151.334 -83 -206.001s-123.666 -82 -204.999 -82c-80.667 0 -148.834 27.5 -204.501 82.5s-83.5 123.5 -83.5 205.5s28 150.5 84 205.5s124 82.5 204 82.5zM328 401.001
c-33.333 0 -61 -11.667 -83 -35s-33 -53.666 -33 -90.999c0 -38 11 -68.5 33 -91.5s49.667 -34.5 83 -34.5s61 11.5 83 34.5s33 53.5 33 91.5c0 37.333 -11 67.666 -33 90.999s-49.667 35 -83 35z" />
    <glyph glyph-name="odieresis" unicode="&#xf6;" horiz-adv-x="656" 
d="M214 801c26.667 0 48.832 -8.33301 66.499 -25s26.5 -37.667 26.5 -63c0 -26 -8.66699 -47.333 -26 -64s-39.666 -25 -66.999 -25c-26.667 0 -48.834 8.33301 -66.501 25s-26.5 38 -26.5 64c0 25.333 8.83301 46.333 26.5 63s39.834 25 66.501 25zM440.998 801
c27.333 0 49.833 -8.33301 67.5 -25s26.5 -37.667 26.5 -63c0 -26 -8.83301 -47.333 -26.5 -64s-40.167 -25 -67.5 -25c-26.667 0 -48.834 8.33301 -66.501 25s-26.5 38 -26.5 64c0 25.333 8.83301 46.333 26.5 63s39.834 25 66.501 25zM327.998 563
c80 0 148 -27.499 204 -82.499s84 -123.5 84 -205.5c0 -82.667 -27.667 -151.334 -83 -206.001s-123.666 -82 -204.999 -82c-80.667 0 -148.834 27.5 -204.501 82.5s-83.5 123.5 -83.5 205.5s28 150.5 84 205.5s124 82.5 204 82.5zM327.998 401.001
c-33.333 0 -61 -11.667 -83 -35s-33 -53.666 -33 -90.999c0 -38 11 -68.5 33 -91.5s49.667 -34.5 83 -34.5s61 11.5 83 34.5s33 53.5 33 91.5c0 37.333 -11 67.666 -33 90.999s-49.667 35 -83 35z" />
    <glyph glyph-name="divide" unicode="&#xf7;" horiz-adv-x="641" 
d="M320 602c30 0 54.667 -8.83301 74 -26.5s29 -40.5 29 -68.5s-9.66699 -50.833 -29 -68.5s-44 -26.5 -74 -26.5s-54.667 8.83301 -74 26.5s-29 40.5 -29 68.5s9.66699 50.833 29 68.5s44 26.5 74 26.5zM571 376v-162h-501v162h501zM320 177c30 0 54.667 -8.83301 74 -26.5
s29 -40.5 29 -68.5s-9.66699 -50.833 -29 -68.5s-44 -26.5 -74 -26.5s-54.667 8.83301 -74 26.5s-29 40.5 -29 68.5s9.66699 50.833 29 68.5s44 26.5 74 26.5z" />
    <glyph glyph-name="oslash" unicode="&#xf8;" horiz-adv-x="656" 
d="M535 478c54 -55.333 80.999 -122.999 80.999 -202.999c0 -82.667 -27.667 -151.334 -83 -206.001s-123.666 -82 -204.999 -82c-45.333 0 -86.666 9 -123.999 27l-10 -14h-125l52 72c-54 55.333 -81 123 -81 203c0 82 28 150.5 84 205.5s124 82.5 204 82.5
c43.333 0 84.666 -9 123.999 -27l10 14h125zM211.999 275.001c0 -22 4 -41.668 12 -59.001l130 182c-9.33301 2 -18 3 -26 3c-33.333 0 -61 -11.667 -83 -35s-33 -53.666 -33 -90.999zM327.999 149c33.333 0 61 11.5 83 34.5s33 53.5 33 91.5c0 22 -4 41.667 -12 59
l-130 -182c9.33301 -2 18 -3 26 -3z" />
    <glyph glyph-name="ugrave" unicode="&#xf9;" horiz-adv-x="619" 
d="M437 677l-73 -73l-188 134l100 100zM399 550l170.001 0.000976562v-550h-170v63c-40.667 -50.667 -93.334 -76 -158.001 -76c-60.667 0 -108.5 19.667 -143.5 59s-52.5 92.666 -52.5 159.999v344h170v-306c0 -32 6.16699 -55.833 18.5 -71.5s34.5 -23.5 66.5 -23.5
c66 0 99 36.333 99 109v292z" />
    <glyph glyph-name="uacute" unicode="&#xfa;" horiz-adv-x="619" 
d="M437 740l-188 -134l-73 73l161 161zM399 550l170.001 0.000976562v-550h-170v63c-40.667 -50.667 -93.334 -76 -158.001 -76c-60.667 0 -108.5 19.667 -143.5 59s-52.5 92.666 -52.5 159.999v344h170v-306c0 -32 6.16699 -55.833 18.5 -71.5s34.5 -23.5 66.5 -23.5
c66 0 99 36.333 99 109v292z" />
    <glyph glyph-name="ucircumflex" unicode="&#xfb;" horiz-adv-x="619" 
d="M307 688l-72 -82l-89 89l161 161l161 -161l-89 -89zM399 550l170.001 0.000976562v-550h-170v63c-40.667 -50.667 -93.334 -76 -158.001 -76c-60.667 0 -108.5 19.667 -143.5 59s-52.5 92.666 -52.5 159.999v344h170v-306c0 -32 6.16699 -55.833 18.5 -71.5
s34.5 -23.5 66.5 -23.5c66 0 99 36.333 99 109v292z" />
    <glyph glyph-name="udieresis" unicode="&#xfc;" horiz-adv-x="619" 
d="M193 624c-26.667 0 -48.8359 8.33301 -66.5029 25s-26.5 38 -26.5 64c0 25.333 8.83301 46.333 26.5 63s39.834 25 66.501 25s48.834 -8.33301 66.501 -25s26.5 -37.667 26.5 -63c0 -26 -8.66699 -47.333 -26 -64s-39.666 -25 -66.999 -25zM419.998 624
c-26.667 0 -48.834 8.33301 -66.501 25s-26.5 38 -26.5 64c0 25.333 8.83301 46.333 26.5 63s39.834 25 66.501 25c27.333 0 49.833 -8.33301 67.5 -25s26.5 -37.667 26.5 -63c0 -26 -8.83301 -47.333 -26.5 -64s-40.167 -25 -67.5 -25zM398.998 550l170.001 0.000976562
v-550h-170v63c-40.667 -50.667 -93.334 -76 -158.001 -76c-60.667 0 -108.5 19.667 -143.5 59s-52.5 92.666 -52.5 159.999v344h170v-306c0 -32 6.16699 -55.833 18.5 -71.5s34.5 -23.5 66.5 -23.5c66 0 99 36.333 99 109v292z" />
    <glyph glyph-name="yacute" unicode="&#xfd;" horiz-adv-x="636" 
d="M448 740l-188 -134l-73 73l161 161zM435 550h181l-351 -800h-181l143 326l-207 474h181l116 -287z" />
    <glyph glyph-name="thorn" unicode="&#xfe;" horiz-adv-x="669" 
d="M382 563c69.333 0 127.833 -27 175.5 -81s71.5 -123 71.5 -207s-23.667 -153 -71 -207s-106.333 -81 -177 -81c-64 0 -116 24 -156 72v-309h-170v1020h170v-282c38.667 50 91 75 157 75zM341 149c33.333 0 61 11.5 83 34.5s33 53.5 33 91.5
c0 37.333 -11 67.666 -33 90.999s-49.667 35 -83 35s-61 -11.667 -83 -35s-33 -53.666 -33 -90.999c0 -38 11 -68.5 33 -91.5s49.667 -34.5 83 -34.5z" />
    <glyph glyph-name="ydieresis" unicode="&#xff;" horiz-adv-x="636" 
d="M204 624c-26.667 0 -48.8359 8.33301 -66.5029 25s-26.5 38 -26.5 64c0 25.333 8.83301 46.333 26.5 63s39.834 25 66.501 25s48.834 -8.33301 66.501 -25s26.5 -37.667 26.5 -63c0 -26 -8.66699 -47.333 -26 -64s-39.666 -25 -66.999 -25zM430.998 624
c-26.667 0 -48.834 8.33301 -66.501 25s-26.5 38 -26.5 64c0 25.333 8.83301 46.333 26.5 63s39.834 25 66.501 25c27.333 0 49.833 -8.33301 67.5 -25s26.5 -37.667 26.5 -63c0 -26 -8.83301 -47.333 -26.5 -64s-40.167 -25 -67.5 -25zM434.998 550h181l-351 -800h-181
l143 326l-207 474h181l116 -287z" />
    <glyph glyph-name="Amacron" unicode="&#x100;" horiz-adv-x="772" 
d="M511 934v-122h-250v122h250zM567 0l-50 145h-262l-50 -145h-180l254 700h214l254 -700h-180zM311 307h150l-75 218z" />
    <glyph glyph-name="amacron" unicode="&#x101;" horiz-adv-x="664" 
d="M467 770v-122h-250v122h250zM444 550h170l-1 -550h-170v59c-39.333 -48 -91 -72 -155 -72c-70.667 0 -129.667 27 -177 81s-71 123 -71 207s23.833 153 71.5 207s106.167 81 175.5 81c66 0 118.333 -25 157 -75v62zM328 149c33.333 0 61 11.5 83 34.5s33 53.5 33 91.5
c0 37.333 -11 67.666 -33 90.999s-49.667 35 -83 35s-61 -11.667 -83 -35s-33 -53.666 -33 -90.999c0 -38 11 -68.5 33 -91.5s49.667 -34.5 83 -34.5z" />
    <glyph glyph-name="Abreve" unicode="&#x102;" horiz-adv-x="772" 
d="M386 770c-46.667 0 -86.832 14.667 -120.499 44s-50.5 69 -50.5 119v31h132v-27c0 -12 3.66699 -21.667 11 -29s16.666 -11 27.999 -11s20.5 3.66699 27.5 11s10.5 17 10.5 29v27h132v-31c0 -50 -16.833 -89.667 -50.5 -119s-73.5 -44 -119.5 -44zM567.002 0l-50 145
h-262l-50 -145h-180l254 700h214l254 -700h-180zM311.002 307h150l-75 218z" />
    <glyph glyph-name="abreve" unicode="&#x103;" horiz-adv-x="664" 
d="M342 606c-46.667 0 -86.832 14.667 -120.499 44s-50.5 69 -50.5 119v31h132v-27c0 -12 3.66699 -21.667 11 -29s16.666 -11 27.999 -11s20.5 3.66699 27.5 11s10.5 17 10.5 29v27h132v-31c0 -50 -16.833 -89.667 -50.5 -119s-73.5 -44 -119.5 -44zM444.002 550h170
l-1 -550h-170v59c-39.333 -48 -91 -72 -155 -72c-70.667 0 -129.667 27 -177 81s-71 123 -71 207s23.833 153 71.5 207s106.167 81 175.5 81c66 0 118.333 -25 157 -75v62zM328.002 149c33.333 0 61 11.5 83 34.5s33 53.5 33 91.5c0 37.333 -11 67.666 -33 90.999
s-49.667 35 -83 35s-61 -11.667 -83 -35s-33 -53.666 -33 -90.999c0 -38 11 -68.5 33 -91.5s49.667 -34.5 83 -34.5z" />
    <glyph glyph-name="Aogonek" unicode="&#x104;" horiz-adv-x="772" 
d="M659 -137c0 -23.333 16.667 -35.001 50 -35.001c7.33301 0 20.333 1.33301 39 4v-92c-16 -2 -38.333 -3 -67 -3c-100.667 0 -151 34 -151 102c0 20.667 5.5 40.834 16.5 60.501s22.833 35.834 35.5 48.501s31.667 30 57 52h-72l-50 145h-262l-50 -145h-180l254 700h214
l254 -700h1c-46 -54.667 -72.333 -88.667 -79 -102c-6.66699 -12.667 -10 -24.334 -10 -35.001zM311 306.999h150l-75 218z" />
    <glyph glyph-name="aogonek" unicode="&#x105;" horiz-adv-x="664" 
d="M614 550l-1 -550.001c-46 -54.667 -72.333 -88.667 -79 -102c-6.66699 -12.667 -10 -24.334 -10 -35.001c0 -23.333 16.667 -35 50 -35c7.33301 0 20.333 1.33301 39 4v-92c-16 -2 -38.333 -3 -67 -3c-100.667 0 -151 34 -151 102c0 20.667 5.5 40.834 16.5 60.501
s22.833 35.834 35.5 48.501s31.667 30 57 52h-61v59c-39.333 -48 -91 -72 -155 -72c-70.667 0 -129.667 27 -177 81s-71 123 -71 207s23.833 153 71.5 207s106.167 81 175.5 81c66 0 118.333 -25 157 -75v62h170zM328 148.999c33.333 0 61 11.5 83 34.5s33 53.5 33 91.5
c0 37.333 -11 67.666 -33 90.999s-49.667 35 -83 35s-61 -11.667 -83 -35s-33 -53.666 -33 -90.999c0 -38 11 -68.5 33 -91.5s49.667 -34.5 83 -34.5z" />
    <glyph glyph-name="Cacute" unicode="&#x106;" horiz-adv-x="784" 
d="M422 1004l100 -100l-188 -134l-73 73zM408 -13c-104.667 0 -191.334 34.667 -260.001 104s-103 155.666 -103 258.999s34.333 189.666 103 258.999s155.334 104 260.001 104c84.667 0 157.834 -24 219.501 -72s102.167 -110.667 121.5 -188h-182
c-14 30.667 -34.833 54.667 -62.5 72s-59.834 26 -96.501 26c-57.333 0 -103.5 -18.667 -138.5 -56s-52.5 -85.666 -52.5 -144.999s17.5 -107.666 52.5 -144.999s81.167 -56 138.5 -56c36.667 0 68.834 8.66699 96.501 26s48.5 41.333 62.5 72h182
c-19.333 -77.333 -59.833 -140 -121.5 -188s-134.834 -72 -219.501 -72z" />
    <glyph glyph-name="cacute" unicode="&#x107;" horiz-adv-x="636" 
d="M351 840l100 -100l-188 -134l-73 73zM328 -13c-83.333 0 -152.166 27.501 -206.499 82.501s-81.5 123.5 -81.5 205.5s27.167 150.5 81.5 205.5s123.5 82.5 207.5 82.5c71.333 0 133.333 -20.5 186 -61.5s83 -97.167 91 -168.5h-175c-12 48.667 -46 73 -102 73
c-36.667 0 -65.334 -12 -86.001 -36s-31 -55.667 -31 -95s10.5 -71 31.5 -95s49.167 -36 84.5 -36c24.667 0 46.5 6.16699 65.5 18.5s31.5 30.833 37.5 55.5h175c-8.66699 -72.667 -39.5 -129.334 -92.5 -170.001s-114.833 -61 -185.5 -61z" />
    <glyph glyph-name="Ccaron" unicode="&#x10c;" horiz-adv-x="784" 
d="M553 935l-161 -161l-161 161l89 89l72 -82l72 82zM408 -13c-104.667 0 -191.334 34.667 -260.001 104s-103 155.666 -103 258.999s34.333 189.666 103 258.999s155.334 104 260.001 104c84.667 0 157.834 -24 219.501 -72s102.167 -110.667 121.5 -188h-182
c-14 30.667 -34.833 54.667 -62.5 72s-59.834 26 -96.501 26c-57.333 0 -103.5 -18.667 -138.5 -56s-52.5 -85.666 -52.5 -144.999s17.5 -107.666 52.5 -144.999s81.167 -56 138.5 -56c36.667 0 68.834 8.66699 96.501 26s48.5 41.333 62.5 72h182
c-19.333 -77.333 -59.833 -140 -121.5 -188s-134.834 -72 -219.501 -72z" />
    <glyph glyph-name="ccaron" unicode="&#x10d;" horiz-adv-x="636" 
d="M482 767l-161 -161l-161 161l89 89l72 -82l72 82zM328 -13c-83.333 0 -152.166 27.501 -206.499 82.501s-81.5 123.5 -81.5 205.5s27.167 150.5 81.5 205.5s123.5 82.5 207.5 82.5c71.333 0 133.333 -20.5 186 -61.5s83 -97.167 91 -168.5h-175
c-12 48.667 -46 73 -102 73c-36.667 0 -65.334 -12 -86.001 -36s-31 -55.667 -31 -95s10.5 -71 31.5 -95s49.167 -36 84.5 -36c24.667 0 46.5 6.16699 65.5 18.5s31.5 30.833 37.5 55.5h175c-8.66699 -72.667 -39.5 -129.334 -92.5 -170.001s-114.833 -61 -185.5 -61z" />
    <glyph glyph-name="Dcaron" unicode="&#x10e;" horiz-adv-x="729" 
d="M492 935l-161 -161l-161 161l89 89l72 -82l72 82zM331 700c102 0 187.167 -33.5 255.5 -100.5s102.5 -150.167 102.5 -249.5s-34.167 -182.5 -102.5 -249.5s-153.5 -100.5 -255.5 -100.5h-261v700h261zM331 162c55.333 0 100.5 17.5 135.5 52.5s52.5 80.167 52.5 135.5
c0 56 -17.5 101.333 -52.5 136s-80.167 52 -135.5 52h-91v-376h91z" />
    <glyph glyph-name="dcaron" unicode="&#x10f;" horiz-adv-x="674" 
d="M764 790c20.667 0 38.667 -6.33301 54 -19s23 -29.334 23 -50.001c0 -28 -20.333 -70.667 -61 -128h-89l47 71c-34 6.66699 -51 25.667 -51 57c0 20.667 7.66699 37.334 23 50.001s33.333 19 54 19zM454 488v282h170v-770h-170v59c-40 -48 -92 -72 -156 -72
c-70.667 0 -129.667 27 -177 81s-71 123 -71 207s23.833 153 71.5 207s106.167 81 175.5 81c66 0 118.333 -25 157 -75zM338 149c33.333 0 61 11.5 83 34.5s33 53.5 33 91.5c0 37.333 -11 67.666 -33 90.999s-49.667 35 -83 35s-61 -11.667 -83 -35s-33 -53.666 -33 -90.999
c0 -38 11 -68.5 33 -91.5s49.667 -34.5 83 -34.5z" />
    <glyph glyph-name="Dcroat" unicode="&#x110;" horiz-adv-x="729" 
d="M331 700c102 0 187.167 -33.5 255.5 -100.5s102.5 -150.167 102.5 -249.5s-34.167 -182.5 -102.5 -249.5s-153.5 -100.5 -255.5 -100.5h-261v269h-51v162h51v269h261zM331 162c55.333 0 100.5 17.5 135.5 52.5s52.5 80.167 52.5 135.5c0 56 -17.5 101.333 -52.5 136
s-80.167 52 -135.5 52h-91v-107h90v-162h-90v-107h91z" />
    <glyph glyph-name="dcroat" unicode="&#x111;" horiz-adv-x="674" 
d="M663 745v-162h-39v-583h-170v59c-40 -48 -92 -72 -156 -72c-70.667 0 -129.667 27 -177 81s-71 123 -71 207s23.833 153 71.5 207s106.167 81 175.5 81c66 0 118.333 -25 157 -75v95h-102v162h102v25h170v-25h39zM338 149c33.333 0 61 11.5 83 34.5s33 53.5 33 91.5
c0 37.333 -11 67.666 -33 90.999s-49.667 35 -83 35s-61 -11.667 -83 -35s-33 -53.666 -33 -90.999c0 -38 11 -68.5 33 -91.5s49.667 -34.5 83 -34.5z" />
    <glyph glyph-name="Emacron" unicode="&#x112;" horiz-adv-x="587" 
d="M419 934v-122h-250v122h250zM552 538h-312v-104h284v-162h-284v-110h312v-162h-482v700h482v-162z" />
    <glyph glyph-name="emacron" unicode="&#x113;" horiz-adv-x="646" 
d="M450 770v-122h-250v122h250zM330 563c90 0 162.002 -31.1689 216.002 -93.502s76.667 -139.166 68 -230.499h-401c4 -40 17.167 -70.167 39.5 -90.5s49.5 -30.5 81.5 -30.5c23.333 0 43.666 5.5 60.999 16.5s29.333 26.167 36 45.5h175
c-18 -64.667 -51.833 -113 -101.5 -145s-106.5 -48 -170.5 -48c-86.667 0 -157.334 27.333 -212.001 82s-82 123.334 -82 206.001c0 82 27.167 150.5 81.5 205.5s123.833 82.5 208.5 82.5zM329.002 431.998c-58 0 -95.001 -29.999 -111.001 -89.999h219
c-6 27.333 -18.167 49.166 -36.5 65.499s-42.166 24.5 -71.499 24.5z" />
    <glyph glyph-name="Edotaccent" unicode="&#x116;" horiz-adv-x="587" 
d="M294 790c-26.667 0 -48.8359 8.33301 -66.5029 25s-26.5 38 -26.5 64c0 25.333 8.83301 46.333 26.5 63s39.834 25 66.501 25s48.834 -8.33301 66.501 -25s26.5 -37.667 26.5 -63c0 -26 -8.66699 -47.333 -26 -64s-39.666 -25 -66.999 -25zM551.998 538h-312v-104h284
v-162h-284v-110h312v-162h-482v700h482v-162z" />
    <glyph glyph-name="edotaccent" unicode="&#x117;" horiz-adv-x="646" 
d="M325 615c-29.333 0 -53.833 9.33301 -73.5 28s-29.5 42 -29.5 70s9.83301 51.167 29.5 69.5s44.167 27.5 73.5 27.5c30 0 54.667 -9.16699 74 -27.5s29 -41.5 29 -69.5c0 -28.667 -9.66699 -52.167 -29 -70.5s-44 -27.5 -74 -27.5zM330 563
c90 0 162.002 -31.1689 216.002 -93.502s76.667 -139.166 68 -230.499h-401c4 -40 17.167 -70.167 39.5 -90.5s49.5 -30.5 81.5 -30.5c23.333 0 43.666 5.5 60.999 16.5s29.333 26.167 36 45.5h175c-18 -64.667 -51.833 -113 -101.5 -145s-106.5 -48 -170.5 -48
c-86.667 0 -157.334 27.333 -212.001 82s-82 123.334 -82 206.001c0 82 27.167 150.5 81.5 205.5s123.833 82.5 208.5 82.5zM329.002 431.998c-58 0 -95.001 -29.999 -111.001 -89.999h219c-6 27.333 -18.167 49.166 -36.5 65.499s-42.166 24.5 -71.499 24.5z" />
    <glyph glyph-name="Eogonek" unicode="&#x118;" horiz-adv-x="587" 
d="M463 -137c0 -23.333 16.667 -35.001 50 -35.001c7.33301 0 20.333 1.33301 39 4v-92c-16 -2 -38.333 -3 -67 -3c-100.667 0 -151 34 -151 102c0 20.667 5.5 40.834 16.5 60.501s22.833 35.834 35.5 48.501s31.667 30 57 52h-373v700h482v-162h-312v-104h284v-162h-284
v-110h312v-162c-46 -54.667 -72.333 -88.667 -79 -102c-6.66699 -12.667 -10 -24.334 -10 -35.001z" />
    <glyph glyph-name="eogonek" unicode="&#x119;" horiz-adv-x="646" 
d="M330 563c90 0 162 -31.168 216 -93.501s76.667 -139.166 68 -230.499h-401c4 -40 17.167 -70.167 39.5 -90.5s49.5 -30.5 81.5 -30.5c23.333 0 43.666 5.5 60.999 16.5s29.333 26.167 36 45.5h175c-13.333 -47.333 -35.666 -86.166 -66.999 -116.499
s-68.333 -51.5 -111 -63.5c-46 -54.667 -72.333 -88.667 -79 -102c-6.66699 -12.667 -10 -24.334 -10 -35.001c0 -23.333 16.667 -35 50 -35c7.33301 0 20.333 1.33301 39 4v-92c-16 -2 -38.333 -3 -67 -3c-100.667 0 -151 34 -151 102c0 27.333 7.83301 52 23.5 74
s39.5 47 71.5 75c-79.333 6.66699 -143.333 36.667 -192 90s-73 119 -73 197c0 82 27.167 150.5 81.5 205.5s123.833 82.5 208.5 82.5zM329 431.999c-58 0 -95.001 -29.999 -111.001 -89.999h219c-6 27.333 -18.167 49.166 -36.5 65.499s-42.166 24.5 -71.499 24.5z" />
    <glyph glyph-name="Ecaron" unicode="&#x11a;" horiz-adv-x="587" 
d="M455 935l-161 -161l-161 161l89 89l72 -82l72 82zM552 538h-312v-104h284v-162h-284v-110h312v-162h-482v700h482v-162z" />
    <glyph glyph-name="ecaron" unicode="&#x11b;" horiz-adv-x="646" 
d="M486 767l-161 -161l-161 161l89 89l72 -82l72 82zM330 563c90 0 162.002 -31.1689 216.002 -93.502s76.667 -139.166 68 -230.499h-401c4 -40 17.167 -70.167 39.5 -90.5s49.5 -30.5 81.5 -30.5c23.333 0 43.666 5.5 60.999 16.5s29.333 26.167 36 45.5h175
c-18 -64.667 -51.833 -113 -101.5 -145s-106.5 -48 -170.5 -48c-86.667 0 -157.334 27.333 -212.001 82s-82 123.334 -82 206.001c0 82 27.167 150.5 81.5 205.5s123.833 82.5 208.5 82.5zM329.002 431.998c-58 0 -95.001 -29.999 -111.001 -89.999h219
c-6 27.333 -18.167 49.166 -36.5 65.499s-42.166 24.5 -71.499 24.5z" />
    <glyph glyph-name="Gcommaaccent" unicode="&#x122;" horiz-adv-x="816" 
d="M362 387l389 0.000976562v-387h-145v98c-16 -32.667 -43.5 -59.334 -82.5 -80.001s-84.833 -31 -137.5 -31c-97.333 0 -179.333 34.167 -246 102.5s-100 154.5 -100 258.5c0 105.333 34.333 192.5 103 261.5s155.334 103.5 260.001 103.5
c84.667 0 157.834 -23.167 219.501 -69.5s102.167 -106.833 121.5 -181.5h-182c-14 28 -34.833 49.833 -62.5 65.5s-59.834 23.5 -96.501 23.5c-58 0 -104.333 -18.667 -139 -56s-52 -87 -52 -149c0 -58.667 16.167 -107 48.5 -145s78.5 -57 138.5 -57
c39.333 0 74.166 8.66699 104.499 26s52.5 42.333 66.5 75h-208v142zM408 -52.999c20.667 0 38.667 -6.33301 54 -19s23 -29.334 23 -50.001c0 -28 -20.333 -70.667 -61 -128h-89l47 71c-34 6.66699 -51 25.667 -51 57c0 20.667 7.66699 37.334 23 50.001s33.333 19 54 19z
" />
    <glyph glyph-name="gcommaaccent" unicode="&#x123;" horiz-adv-x="664" 
d="M332 606c-20.667 0 -38.667 6.33301 -54 19s-23 29.334 -23 50.001c0 28 20.333 70.667 61 128h89l-47 -71c34 -6.66699 51 -25.667 51 -57c0 -20.667 -7.66699 -37.334 -23 -50.001s-33.333 -19 -54 -19zM444 550h170.002v-542c0 -81.333 -25.167 -146.833 -75.5 -196.5
s-117.5 -74.5 -201.5 -74.5c-72.667 0 -135.834 18.333 -189.501 55s-84.834 91 -93.501 163h175c10.667 -44.667 45 -67 103 -67c74.667 0 112 38 112 114v67c-40 -48 -92 -72 -156 -72c-70.667 0 -129.667 26.667 -177 80s-71 121 -71 203s23.833 149.667 71.5 203
s106.5 80 176.5 80c64.667 0 116.667 -24.667 156 -74v61zM328.002 159c33.333 0 61 11.333 83 34s33 51.667 33 87s-11 64.333 -33 87s-49.667 34 -83 34s-61 -11.333 -83 -34s-33 -51.667 -33 -87s11.167 -64.333 33.5 -87s49.833 -34 82.5 -34z" />
    <glyph glyph-name="Imacron" unicode="&#x12a;" horiz-adv-x="310" 
d="M280 934v-122h-250v122h250zM70 0v700h170v-700h-170z" />
    <glyph glyph-name="imacron" unicode="&#x12b;" horiz-adv-x="270" 
d="M260 770v-122h-250v122h250zM50 0v550h170v-550h-170z" />
    <glyph glyph-name="Iogonek" unicode="&#x12e;" horiz-adv-x="310" 
d="M240 700v-700.001c-46 -54.667 -72.333 -88.667 -79 -102c-6.66699 -12.667 -10 -24.334 -10 -35.001c0 -23.333 16.667 -35 50 -35c7.33301 0 20.333 1.33301 39 4v-92c-16 -2 -38.333 -3 -67 -3c-100.667 0 -151 34 -151 102c0 20.667 5.5 40.834 16.5 60.501
s22.833 35.834 35.5 48.501s31.667 30 57 52h-61v700h170z" />
    <glyph glyph-name="iogonek" unicode="&#x12f;" horiz-adv-x="270" 
d="M135 615c-29.333 0 -53.833 9.33301 -73.5 28s-29.5 42 -29.5 70s9.83301 51.167 29.5 69.5s44.167 27.5 73.5 27.5c30 0 54.667 -9.16699 74 -27.5s29 -41.5 29 -69.5c0 -28.667 -9.66699 -52.167 -29 -70.5s-44 -27.5 -74 -27.5zM50 0v549.999h170v-550
c-46 -54.667 -72.333 -88.667 -79 -102c-6.66699 -12.667 -10 -24.334 -10 -35.001c0 -23.333 16.667 -35 50 -35c7.33301 0 20.333 1.33301 39 4v-92c-16 -2 -38.333 -3 -67 -3c-100.667 0 -151 34 -151 102c0 20.667 5.5 40.834 16.5 60.501s22.833 35.834 35.5 48.501
s31.667 30 57 52h-61z" />
    <glyph glyph-name="dotlessi" unicode="&#x131;" horiz-adv-x="270" 
d="M50 0v550h170v-550h-170z" />
    <glyph glyph-name="Kcommaaccent" unicode="&#x136;" horiz-adv-x="711" 
d="M416 362l270 -362h-212l-234 317v-317h-170v700h170v-298l219 298h209zM356 -53c20.667 0 38.667 -6.33301 54 -19s23 -29.334 23 -50.001c0 -28 -20.333 -70.667 -61 -128h-89l47 71c-34 6.66699 -51 25.667 -51 57c0 20.667 7.66699 37.334 23 50.001s33.333 19 54 19z
" />
    <glyph glyph-name="kcommaaccent" unicode="&#x137;" horiz-adv-x="654" 
d="M386 288l248 -288h-215l-194 226v-226h-170v770h170v-439l181 219h215zM327 -53c20.667 0 38.667 -6.33301 54 -19s23 -29.334 23 -50.001c0 -28 -20.333 -70.667 -61 -128h-89l47 71c-34 6.66699 -51 25.667 -51 57c0 20.667 7.66699 37.334 23 50.001s33.333 19 54 19z
" />
    <glyph glyph-name="Lacute" unicode="&#x139;" horiz-adv-x="549" 
d="M405 904l-188 -134l-73 73l161 161zM240 162h284v-162h-454v700h170v-538z" />
    <glyph glyph-name="lacute" unicode="&#x13a;" horiz-adv-x="270" 
d="M163 1074l100 -100l-188 -134l-73 73zM50 0v770h170v-770h-170z" />
    <glyph glyph-name="Lcommaaccent" unicode="&#x13b;" horiz-adv-x="549" 
d="M240 162h284v-162h-454v700h170v-538zM275 -53c20.667 0 38.667 -6.33301 54 -19s23 -29.334 23 -50.001c0 -28 -20.333 -70.667 -61 -128h-89l47 71c-34 6.66699 -51 25.667 -51 57c0 20.667 7.66699 37.334 23 50.001s33.333 19 54 19z" />
    <glyph glyph-name="lcommaaccent" unicode="&#x13c;" horiz-adv-x="270" 
d="M50 770h170v-770h-170v770zM133 -53c20.667 0 38.667 -6.33301 54 -19s23 -29.334 23 -50.001c0 -28 -20.333 -70.667 -61 -128h-89l47 71c-34 6.66699 -51 25.667 -51 57c0 20.667 7.66699 37.334 23 50.001s33.333 19 54 19z" />
    <glyph glyph-name="Lcaron" unicode="&#x13d;" horiz-adv-x="549" 
d="M365 587c-34 6.66699 -51 25.667 -51 57c0 20.667 7.66699 37.334 23 50.001s33.333 19 54 19s38.667 -6.33301 54 -19s23 -29.334 23 -50.001c0 -28 -20.333 -70.667 -61 -128h-89zM240 162h284v-162h-454v700h170v-538z" />
    <glyph glyph-name="lcaron" unicode="&#x13e;" horiz-adv-x="265" 
d="M360 790c20.667 0 38.667 -6.33301 54 -19s23 -29.334 23 -50.001c0 -28 -20.333 -70.667 -61 -128h-89l47 71c-34 6.66699 -51 25.667 -51 57c0 20.667 7.66699 37.334 23 50.001s33.333 19 54 19zM50 0v770h170v-770h-170z" />
    <glyph glyph-name="Lslash" unicode="&#x141;" horiz-adv-x="549" 
d="M240 162h284v-162h-454v227l-53 -13v162l53 13v311h170v-269l88 22v-162l-88 -22v-107z" />
    <glyph glyph-name="lslash" unicode="&#x142;" horiz-adv-x="265" 
d="M288 453v-162l-68 -17v-274h-170v232l-73 -18v162l73 18v376h170v-334z" />
    <glyph glyph-name="Nacute" unicode="&#x143;" horiz-adv-x="742" 
d="M501 904l-188 -134l-73 73l161 161zM507 700h170v-700h-193l-263 441l14 -148v-293h-170v700h193l262 -441l-13 148v293z" />
    <glyph glyph-name="nacute" unicode="&#x144;" horiz-adv-x="623" 
d="M442 740l-188 -134l-73 73l161 161zM379 563c62 0 110.668 -19.668 146.001 -59.001s53 -92.666 53 -159.999v-344h-170v306c0 32 -6.33301 55.833 -19 71.5s-35.334 23.5 -68.001 23.5c-67.333 0 -101 -36.333 -101 -109v-292h-170v550h170v-62
c40.667 50 93.667 75 159 75z" />
    <glyph glyph-name="Ncommaaccent" unicode="&#x145;" horiz-adv-x="742" 
d="M507 700h170v-700h-193l-263 441l14 -148v-293h-170v700h193l262 -441l-13 148v293zM371 -53c20.667 0 38.667 -6.33301 54 -19s23 -29.334 23 -50.001c0 -28 -20.333 -70.667 -61 -128h-89l47 71c-34 6.66699 -51 25.667 -51 57c0 20.667 7.66699 37.334 23 50.001
s33.333 19 54 19z" />
    <glyph glyph-name="ncommaaccent" unicode="&#x146;" horiz-adv-x="623" 
d="M379 563c62 0 110.668 -19.668 146.001 -59.001s53 -92.666 53 -159.999v-344h-170v306c0 32 -6.33301 55.833 -19 71.5s-35.334 23.5 -68.001 23.5c-67.333 0 -101 -36.333 -101 -109v-292h-170v550h170v-62c40.667 50 93.667 75 159 75zM312.001 -53.001
c20.667 0 38.667 -6.33301 54 -19s23 -29.334 23 -50.001c0 -28 -20.333 -70.667 -61 -128h-89l47 71c-34 6.66699 -51 25.667 -51 57c0 20.667 7.66699 37.334 23 50.001s33.333 19 54 19z" />
    <glyph glyph-name="Ncaron" unicode="&#x147;" horiz-adv-x="742" 
d="M532 935l-161 -161l-161 161l89 89l72 -82l72 82zM507 700h170v-700h-193l-263 441l14 -148v-293h-170v700h193l262 -441l-13 148v293z" />
    <glyph glyph-name="ncaron" unicode="&#x148;" horiz-adv-x="623" 
d="M473 767l-161 -161l-161 161l89 89l72 -82l72 82zM379 563c62 0 110.668 -19.668 146.001 -59.001s53 -92.666 53 -159.999v-344h-170v306c0 32 -6.33301 55.833 -19 71.5s-35.334 23.5 -68.001 23.5c-67.333 0 -101 -36.333 -101 -109v-292h-170v550h170v-62
c40.667 50 93.667 75 159 75z" />
    <glyph glyph-name="Eng" unicode="&#x14a;" horiz-adv-x="742" 
d="M507 700h169.998v-700v-37c0 -76.667 -20.167 -133.5 -60.5 -170.5s-90.166 -55.5 -149.499 -55.5c-32 0 -64.333 5 -97 15s-57.667 21 -75 33l29 137c56.667 -18 94.334 -27 113.001 -27c46.667 0 70 26 70 78v27h-23l-263 441l14 -148v-293h-170v700h193l262 -441
l-13 148v293z" />
    <glyph glyph-name="eng" unicode="&#x14b;" horiz-adv-x="623" 
d="M379 563c62 0 110.666 -19.668 145.999 -59.001s53 -92.666 53 -159.999v-344v-37c0 -76.667 -20.167 -133.5 -60.5 -170.5s-90.166 -55.5 -149.499 -55.5c-32 0 -64.333 5 -97 15s-57.667 21 -75 33l29 137c56.667 -18 94.334 -27 113.001 -27c46.667 0 70 26 70 78v219
v114c0 32 -6.33301 55.833 -19 71.5s-35.334 23.5 -68.001 23.5c-67.333 0 -101 -36.333 -101 -109v-292h-170v550h170v-62c40.667 50 93.667 75 159 75z" />
    <glyph glyph-name="Omacron" unicode="&#x14c;" horiz-adv-x="812" 
d="M531 934v-122h-250v122h250zM406 713c103.333 0 190.166 -34.833 260.499 -104.5s105.5 -155.834 105.5 -258.501s-35.167 -188.834 -105.5 -258.501s-157.166 -104.5 -260.499 -104.5s-190.166 34.833 -260.499 104.5s-105.5 155.834 -105.5 258.501
s35.167 188.834 105.5 258.501s157.166 104.5 260.499 104.5zM406 551c-56 0 -102.333 -18.833 -139 -56.5s-55 -85.834 -55 -144.501s18.333 -106.834 55 -144.501s83 -56.5 139 -56.5s102.333 18.833 139 56.5s55 85.834 55 144.501s-18.333 106.834 -55 144.501
s-83 56.5 -139 56.5z" />
    <glyph glyph-name="omacron" unicode="&#x14d;" horiz-adv-x="656" 
d="M453 770v-122h-250v122h250zM328 563c80 0 148 -27.499 204 -82.499s84 -123.5 84 -205.5c0 -82.667 -27.667 -151.334 -83 -206.001s-123.666 -82 -204.999 -82c-80.667 0 -148.834 27.5 -204.501 82.5s-83.5 123.5 -83.5 205.5s28 150.5 84 205.5s124 82.5 204 82.5z
M328 401.001c-33.333 0 -61 -11.667 -83 -35s-33 -53.666 -33 -90.999c0 -38 11 -68.5 33 -91.5s49.667 -34.5 83 -34.5s61 11.5 83 34.5s33 53.5 33 91.5c0 37.333 -11 67.666 -33 90.999s-49.667 35 -83 35z" />
    <glyph glyph-name="Ohungarumlaut" unicode="&#x150;" horiz-adv-x="812" 
d="M323 1010l101 -47l-126 -193l-71 33zM483 1010l101 -47l-126 -193l-71 33zM406 713c103.333 0 190.166 -34.833 260.499 -104.5s105.5 -155.834 105.5 -258.501s-35.167 -188.834 -105.5 -258.501s-157.166 -104.5 -260.499 -104.5s-190.166 34.833 -260.499 104.5
s-105.5 155.834 -105.5 258.501s35.167 188.834 105.5 258.501s157.166 104.5 260.499 104.5zM406 551c-56 0 -102.333 -18.833 -139 -56.5s-55 -85.834 -55 -144.501s18.333 -106.834 55 -144.501s83 -56.5 139 -56.5s102.333 18.833 139 56.5s55 85.834 55 144.501
s-18.333 106.834 -55 144.501s-83 56.5 -139 56.5z" />
    <glyph glyph-name="ohungarumlaut" unicode="&#x151;" horiz-adv-x="656" 
d="M245 846l101 -47l-126 -193l-71 33zM405 846l101 -47l-126 -193l-71 33zM328 563c80 0 148 -27.499 204 -82.499s84 -123.5 84 -205.5c0 -82.667 -27.667 -151.334 -83 -206.001s-123.666 -82 -204.999 -82c-80.667 0 -148.834 27.5 -204.501 82.5
s-83.5 123.5 -83.5 205.5s28 150.5 84 205.5s124 82.5 204 82.5zM328 401.001c-33.333 0 -61 -11.667 -83 -35s-33 -53.666 -33 -90.999c0 -38 11 -68.5 33 -91.5s49.667 -34.5 83 -34.5s61 11.5 83 34.5s33 53.5 33 91.5c0 37.333 -11 67.666 -33 90.999s-49.667 35 -83 35
z" />
    <glyph glyph-name="OE" unicode="&#x152;" horiz-adv-x="1117" 
d="M1082 538l-312 -0.00195312v-104h284v-162h-284v-110h312v-162h-482v40c-58 -35.333 -122.667 -53 -194 -53c-103.333 0 -190.166 34.833 -260.499 104.5s-105.5 155.834 -105.5 258.501s35.167 188.834 105.5 258.501s157.166 104.5 260.499 104.5
c71.333 0 136 -17.667 194 -53v40h482v-162zM406 148.998c56 0 102.333 18.833 139 56.5s55 85.834 55 144.501s-18.333 106.834 -55 144.501s-83 56.5 -139 56.5s-102.333 -18.833 -139 -56.5s-55 -85.834 -55 -144.501s18.333 -106.834 55 -144.501s83 -56.5 139 -56.5z
" />
    <glyph glyph-name="oe" unicode="&#x153;" horiz-adv-x="1050" 
d="M734 563c90 0 162.001 -31.168 216.001 -93.501s76.667 -139.166 68 -230.499h-401c4 -40 17.167 -70.167 39.5 -90.5s49.5 -30.5 81.5 -30.5c23.333 0 43.666 5.5 60.999 16.5s29.333 26.167 36 45.5h175c-18 -64.667 -51.833 -113 -101.5 -145s-106.5 -48 -170.5 -48
c-84.667 0 -154 26 -208 78c-56 -52.667 -123.333 -79 -202 -79c-80.667 0 -148.834 27.5 -204.501 82.5s-83.5 123.5 -83.5 205.5s28 150.5 84 205.5s124 82.5 204 82.5c79.333 0 146 -26 200 -78c54.667 52.667 123.334 79 206.001 79zM733.001 431.999
c-58 0 -95.001 -29.999 -111.001 -89.999h219c-6 27.333 -18.167 49.166 -36.5 65.499s-42.166 24.5 -71.499 24.5zM328 148c33.333 0 61 11.5 83 34.5s33 53.5 33 91.5c0 37.333 -11 67.666 -33 90.999s-49.667 35 -83 35s-61 -11.667 -83 -35s-33 -53.666 -33 -90.999
c0 -38 11 -68.5 33 -91.5s49.667 -34.5 83 -34.5z" />
    <glyph glyph-name="Racute" unicode="&#x154;" horiz-adv-x="691" 
d="M476 904l-188 -134l-73 73l161 161zM458 0l-165 243.001h-53v-243h-170v700h312c74 0 132.5 -20.833 175.5 -62.5s64.5 -98.834 64.5 -171.501c0 -107.333 -46.667 -176.333 -140 -207l184 -259h-208zM450 464.001c0 49.333 -29 74 -87 74h-123v-146h123
c58 0 87 24 87 72z" />
    <glyph glyph-name="racute" unicode="&#x155;" horiz-adv-x="431" 
d="M346 740l-188 -134l-73 73l161 161zM380 563c12.667 0 23.001 -1.00098 31.001 -3.00098v-175c-14.667 1.33301 -26 2 -34 2c-22 0 -41.5 -2 -58.5 -6s-33.5 -11.167 -49.5 -21.5s-28.167 -25.666 -36.5 -45.999s-12.5 -45.5 -12.5 -75.5v-238h-170v550h170v-85
c33.333 65.333 86.666 98 159.999 98z" />
    <glyph glyph-name="Rcommaaccent" unicode="&#x156;" horiz-adv-x="691" 
d="M482 259l184 -258.999h-208l-165 243h-53v-243h-170v700h312c74 0 132.5 -20.833 175.5 -62.5s64.5 -98.834 64.5 -171.501c0 -107.333 -46.667 -176.333 -140 -207zM450 464.001c0 49.333 -29 74 -87 74h-123v-146h123c58 0 87 24 87 72zM346 -52.999
c20.667 0 38.667 -6.33301 54 -19s23 -29.334 23 -50.001c0 -28 -20.333 -70.667 -61 -128h-89l47 71c-34 6.66699 -51 25.667 -51 57c0 20.667 7.66699 37.334 23 50.001s33.333 19 54 19z" />
    <glyph glyph-name="rcommaaccent" unicode="&#x157;" horiz-adv-x="431" 
d="M380 563c12.667 0 23.001 -1.00098 31.001 -3.00098v-175c-14.667 1.33301 -26 2 -34 2c-22 0 -41.5 -2 -58.5 -6s-33.5 -11.167 -49.5 -21.5s-28.167 -25.666 -36.5 -45.999s-12.5 -45.5 -12.5 -75.5v-238h-170v550h170v-85c33.333 65.333 86.666 98 159.999 98z
M216.001 -53.001c20.667 0 38.667 -6.33301 54 -19s23 -29.334 23 -50.001c0 -28 -20.333 -70.667 -61 -128h-89l47 71c-34 6.66699 -51 25.667 -51 57c0 20.667 7.66699 37.334 23 50.001s33.333 19 54 19z" />
    <glyph glyph-name="Rcaron" unicode="&#x158;" horiz-adv-x="691" 
d="M507 935l-161 -161l-161 161l89 89l72 -82l72 82zM458 0l-165 243.001h-53v-243h-170v700h312c74 0 132.5 -20.833 175.5 -62.5s64.5 -98.834 64.5 -171.501c0 -107.333 -46.667 -176.333 -140 -207l184 -259h-208zM450 464.001c0 49.333 -29 74 -87 74h-123v-146h123
c58 0 87 24 87 72z" />
    <glyph glyph-name="rcaron" unicode="&#x159;" horiz-adv-x="431" 
d="M377 767l-161 -161l-161 161l89 89l72 -82l72 82zM380 563c12.667 0 23.001 -1.00098 31.001 -3.00098v-175c-14.667 1.33301 -26 2 -34 2c-22 0 -41.5 -2 -58.5 -6s-33.5 -11.167 -49.5 -21.5s-28.167 -25.666 -36.5 -45.999s-12.5 -45.5 -12.5 -75.5v-238h-170v550h170
v-85c33.333 65.333 86.666 98 159.999 98z" />
    <glyph glyph-name="Sacute" unicode="&#x15a;" horiz-adv-x="649" 
d="M355 1004l100 -100l-188 -134l-73 73zM325 441c105.333 -22.667 179.83 -49.5049 223.497 -80.5049s65.5 -80.5 65.5 -148.5c0 -32.667 -5.83301 -62.167 -17.5 -88.5s-26.667 -47.833 -45 -64.5s-39.666 -30.667 -63.999 -42s-48.333 -19.166 -72 -23.499
s-47.5 -6.5 -71.5 -6.5c-51.333 0 -96.666 7 -135.999 21s-70.666 33 -93.999 57s-41.333 49.667 -54 77s-21 57 -25 89h172c8.66699 -30 22.834 -51.667 42.501 -65s50.834 -20 93.501 -20c66.667 0 100 19.667 100 59c0 16.667 -7.83301 28.5 -23.5 35.5
s-47.834 15.5 -96.501 25.5c-5.33301 0.666992 -9.5 1.33398 -12.5 2.00098s-7 1.66699 -12 3s-9.83301 2.33301 -14.5 3c-33.333 6.66699 -61.833 14.334 -85.5 23.001s-47.5 20.834 -71.5 36.501s-42.333 36.167 -55 61.5s-19 55.333 -19 90
c0 48.667 13.5 90.834 40.5 126.501s60.5 61.5 100.5 77.5s83 24 129 24c92 0 160.833 -21.667 206.5 -65s71.834 -99 78.501 -167h-172c-6 23.333 -17.167 41.333 -33.5 54s-42.833 19 -79.5 19c-34.667 0 -59.834 -5.83301 -75.501 -17.5s-23.5 -26.167 -23.5 -43.5
c0 -14 6.16699 -24 18.5 -30s34.5 -12.333 66.5 -19c3.33301 -0.666992 6.16602 -1.16699 8.49902 -1.5s4.83301 -0.833008 7.5 -1.5z" />
    <glyph glyph-name="sacute" unicode="&#x15b;" horiz-adv-x="590" 
d="M322 840l100 -100l-188 -134l-73 73zM303 -13c-74.667 0 -137.168 16.6689 -187.501 50.002s-80.5 79 -90.5 137h172c9.33301 -39.333 45.333 -59 108 -59c50 0 75 12.667 75 38c0 10.667 -6.33301 18.5 -19 23.5s-43.334 12.833 -92.001 23.5
c-80.667 17.333 -137.667 38.666 -171 63.999s-50 61.666 -50 108.999c0 59.333 22.5 105.666 67.5 138.999s107.167 50 186.5 50c146.667 0 229.334 -57.333 248.001 -172h-172c-8 29.333 -35.667 44 -83 44c-50 0 -75 -13 -75 -39c0 -8.66699 3.83301 -14.5 11.5 -17.5
s26.834 -7.83301 57.501 -14.5c6 -1.33301 10.333 -2.33301 13 -3c91.333 -20 156.333 -42.167 195 -66.5s58 -63.166 58 -116.499c0 -61.333 -23.5 -108.333 -70.5 -141s-107.5 -49 -181.5 -49z" />
    <glyph glyph-name="Scedilla" unicode="&#x15e;" horiz-adv-x="649" 
d="M614 212c0 -36.667 -7.16504 -69.3359 -21.498 -98.0029s-33.333 -51.334 -57 -68.001s-48.667 -29.667 -75 -39s-53.833 -15.333 -82.5 -18l-35 -65c50.667 -15.333 76 -45.333 76 -90c0 -32.667 -14.167 -57 -42.5 -73s-67.5 -24 -117.5 -24c-23.333 0 -43 1 -59 3v81
c18.667 -2.66699 31.667 -4 39 -4c34 0 51 9 51 27s-23.333 31.333 -70 40l47 109c-72.667 12 -127.834 40 -165.501 84s-59.834 95.333 -66.501 154h172c8.66699 -30 22.834 -51.667 42.501 -65s50.834 -20 93.501 -20c66.667 0 100 19.667 100 59
c0 16.667 -7.83301 28.5 -23.5 35.5s-47.834 15.5 -96.501 25.5c-5.33301 0.666992 -9.5 1.33398 -12.5 2.00098s-7 1.66699 -12 3s-9.83301 2.33301 -14.5 3c-33.333 6.66699 -61.833 14.334 -85.5 23.001s-47.5 20.834 -71.5 36.501s-42.333 36.167 -55 61.5
s-19 55.333 -19 90c0 48.667 13.5 90.834 40.5 126.501s60.5 61.5 100.5 77.5s83 24 129 24c92 0 160.833 -21.667 206.5 -65s71.834 -99 78.501 -167h-172c-6 23.333 -17.167 41.333 -33.5 54s-42.833 19 -79.5 19c-34.667 0 -59.834 -5.83301 -75.501 -17.5
s-23.5 -26.167 -23.5 -43.5c0 -14 6.16699 -24 18.5 -30s34.5 -12.333 66.5 -19c3.33301 -0.666992 6.16602 -1.16699 8.49902 -1.5s4.83301 -0.833008 7.5 -1.5c105.333 -22.667 179.833 -49.5 223.5 -80.5s65.5 -80.5 65.5 -148.5z" />
    <glyph glyph-name="scedilla" unicode="&#x15f;" horiz-adv-x="590" 
d="M555 177c0 -54.667 -19.333 -98.165 -58 -130.498s-89.334 -51.5 -152.001 -57.5l-35 -65c50.667 -15.333 76 -45.333 76 -90c0 -32.667 -14.167 -57 -42.5 -73s-67.5 -24 -117.5 -24c-23.333 0 -43 1 -59 3v81c18.667 -2.66699 31.667 -4 39 -4c34 0 51 9 51 27
s-23.333 31.333 -70 40l47 109c-56.667 9.33301 -103.5 29.833 -140.5 61.5s-59.833 71.5 -68.5 119.5h172c9.33301 -39.333 45.333 -59 108 -59c50 0 75 12.667 75 38c0 10.667 -6.33301 18.5 -19 23.5s-43.334 12.833 -92.001 23.5
c-80.667 17.333 -137.667 38.666 -171 63.999s-50 61.666 -50 108.999c0 59.333 22.5 105.666 67.5 138.999s107.167 50 186.5 50c146.667 0 229.334 -57.333 248.001 -172h-172c-8 29.333 -35.667 44 -83 44c-50 0 -75 -13 -75 -39c0 -8.66699 3.83301 -14.5 11.5 -17.5
s26.834 -7.83301 57.501 -14.5c6 -1.33301 10.333 -2.33301 13 -3c91.333 -20 156.333 -42.167 195 -66.5s58 -63.166 58 -116.499z" />
    <glyph glyph-name="Scaron" unicode="&#x160;" horiz-adv-x="649" 
d="M486 935l-161 -161l-161 161l89 89l72 -82l72 82zM325 441c105.333 -22.667 179.83 -49.5049 223.497 -80.5049s65.5 -80.5 65.5 -148.5c0 -32.667 -5.83301 -62.167 -17.5 -88.5s-26.667 -47.833 -45 -64.5s-39.666 -30.667 -63.999 -42s-48.333 -19.166 -72 -23.499
s-47.5 -6.5 -71.5 -6.5c-51.333 0 -96.666 7 -135.999 21s-70.666 33 -93.999 57s-41.333 49.667 -54 77s-21 57 -25 89h172c8.66699 -30 22.834 -51.667 42.501 -65s50.834 -20 93.501 -20c66.667 0 100 19.667 100 59c0 16.667 -7.83301 28.5 -23.5 35.5
s-47.834 15.5 -96.501 25.5c-5.33301 0.666992 -9.5 1.33398 -12.5 2.00098s-7 1.66699 -12 3s-9.83301 2.33301 -14.5 3c-33.333 6.66699 -61.833 14.334 -85.5 23.001s-47.5 20.834 -71.5 36.501s-42.333 36.167 -55 61.5s-19 55.333 -19 90
c0 48.667 13.5 90.834 40.5 126.501s60.5 61.5 100.5 77.5s83 24 129 24c92 0 160.833 -21.667 206.5 -65s71.834 -99 78.501 -167h-172c-6 23.333 -17.167 41.333 -33.5 54s-42.833 19 -79.5 19c-34.667 0 -59.834 -5.83301 -75.501 -17.5s-23.5 -26.167 -23.5 -43.5
c0 -14 6.16699 -24 18.5 -30s34.5 -12.333 66.5 -19c3.33301 -0.666992 6.16602 -1.16699 8.49902 -1.5s4.83301 -0.833008 7.5 -1.5z" />
    <glyph glyph-name="scaron" unicode="&#x161;" horiz-adv-x="590" 
d="M453 767l-161 -161l-161 161l89 89l72 -82l72 82zM303 -13c-74.667 0 -137.168 16.6689 -187.501 50.002s-80.5 79 -90.5 137h172c9.33301 -39.333 45.333 -59 108 -59c50 0 75 12.667 75 38c0 10.667 -6.33301 18.5 -19 23.5s-43.334 12.833 -92.001 23.5
c-80.667 17.333 -137.667 38.666 -171 63.999s-50 61.666 -50 108.999c0 59.333 22.5 105.666 67.5 138.999s107.167 50 186.5 50c146.667 0 229.334 -57.333 248.001 -172h-172c-8 29.333 -35.667 44 -83 44c-50 0 -75 -13 -75 -39c0 -8.66699 3.83301 -14.5 11.5 -17.5
s26.834 -7.83301 57.501 -14.5c6 -1.33301 10.333 -2.33301 13 -3c91.333 -20 156.333 -42.167 195 -66.5s58 -63.166 58 -116.499c0 -61.333 -23.5 -108.333 -70.5 -141s-107.5 -49 -181.5 -49z" />
    <glyph glyph-name="uni0162" unicode="&#x162;" horiz-adv-x="601" 
d="M385 0h-25l-41 -76c50.667 -15.333 76 -45.333 76 -90c0 -32.667 -14.167 -57 -42.5 -73s-67.5 -24 -117.5 -24c-23.333 0 -43 1 -59 3v81c18.667 -2.66699 31.667 -4 39 -4c34 0 51 9 51 27s-23.333 31.333 -70 40l50 116h-31v538h-190v162h551v-162h-191v-538z" />
    <glyph glyph-name="uni0163" unicode="&#x163;" horiz-adv-x="531" 
d="M342 -76c50.667 -15.333 75.999 -45.332 75.999 -89.999c0 -32.667 -14.167 -57 -42.5 -73s-67.5 -24 -117.5 -24c-23.333 0 -43 1 -59 3v81c18.667 -2.66699 31.667 -4 39 -4c34 0 51 9 51 27s-23.333 31.333 -70 40l47 110c-45.333 10 -82 33.167 -110 69.5
s-42 86.166 -42 149.499v177h-94v160h94v113l170 37v-150h185v-160h-185v-167c0 -52 23.333 -78 70 -78c18.667 0 56.334 9 113.001 27l29 -137c-30 -20.667 -69 -35 -117 -43z" />
    <glyph glyph-name="Tcaron" unicode="&#x164;" horiz-adv-x="601" 
d="M462 935l-161 -161l-161 161l89 89l72 -82l72 82zM576 700v-162h-191v-538h-170v538h-190v162h551z" />
    <glyph glyph-name="tcaron" unicode="&#x165;" horiz-adv-x="536" 
d="M374 664c-34 6.66699 -51 25.667 -51 57c0 20.667 7.66699 37.334 23 50.001s33.333 19 54 19s38.667 -6.33301 54 -19s23 -29.334 23 -50.001c0 -28 -20.333 -70.667 -61 -128h-89zM467 172l28.998 -137c-17.333 -12 -42.333 -23 -75 -33s-65 -15 -97 -15
c-59.333 0 -109.166 18.5 -149.499 55.5s-60.5 93.833 -60.5 170.5v177h-94v160h94v113l170 37v-150h185v-160h-185v-167c0 -52 23.333 -78 70 -78c18.667 0 56.334 9 113.001 27z" />
    <glyph glyph-name="Tbar" unicode="&#x166;" horiz-adv-x="601" 
d="M576 538h-191v-107h71v-162h-71v-269h-170v269h-70v162h70v107h-190v162h551v-162z" />
    <glyph glyph-name="tbar" unicode="&#x167;" horiz-adv-x="531" 
d="M467 172l29 -137c-17.333 -12 -42.333 -23 -75 -33s-65 -15 -97 -15c-56.667 0 -104.834 17 -144.501 51s-61.5 86 -65.5 156h-94v162h94v34h-94v160h94v113l170 37v-150h185v-160h-185v-34h47v-162h-44c8.66699 -32.667 31 -49 67 -49c18.667 0 56.334 9 113.001 27z
" />
    <glyph glyph-name="Umacron" unicode="&#x16a;" horiz-adv-x="725" 
d="M488 934v-122h-250v122h250zM487 700h172.998l-1 -414c0 -96 -27.167 -169.833 -81.5 -221.5s-125.166 -77.5 -212.499 -77.5s-158.166 25.833 -212.499 77.5s-81.5 125.5 -81.5 221.5l-1 414h173v-404c0 -98 40.667 -147 122 -147s122 49 122 147v404z" />
    <glyph glyph-name="umacron" unicode="&#x16b;" horiz-adv-x="619" 
d="M432 770v-122h-250v122h250zM399 550l170.001 0.000976562v-550h-170v63c-40.667 -50.667 -93.334 -76 -158.001 -76c-60.667 0 -108.5 19.667 -143.5 59s-52.5 92.666 -52.5 159.999v344h170v-306c0 -32 6.16699 -55.833 18.5 -71.5s34.5 -23.5 66.5 -23.5
c66 0 99 36.333 99 109v292z" />
    <glyph glyph-name="Uring" unicode="&#x16e;" horiz-adv-x="725" 
d="M362 1039c37.333 0 69.166 -13 95.499 -39s39.5 -57.667 39.5 -95s-13.167 -69.166 -39.5 -95.499s-58.166 -39.5 -95.499 -39.5c-36.667 0 -68.167 13.167 -94.5 39.5s-39.5 58.166 -39.5 95.499c0 36.667 13 68.167 39 94.5s57.667 39.5 95 39.5zM362 945
c-11.333 0 -20.833 -3.83301 -28.5 -11.5s-11.167 -17.5 -10.5 -29.5c-0.666992 -12 2.83301 -21.833 10.5 -29.5s17.167 -11.5 28.5 -11.5s20.833 3.83301 28.5 11.5s11.5 17.5 11.5 29.5s-3.83301 21.833 -11.5 29.5s-17.167 11.5 -28.5 11.5zM487 700h172.998l-1 -414
c0 -96 -27.167 -169.833 -81.5 -221.5s-125.166 -77.5 -212.499 -77.5s-158.166 25.833 -212.499 77.5s-81.5 125.5 -81.5 221.5l-1 414h173v-404c0 -98 40.667 -147 122 -147s122 49 122 147v404z" />
    <glyph glyph-name="uring" unicode="&#x16f;" horiz-adv-x="619" 
d="M306 606c-36.667 0 -68.167 13.167 -94.5 39.5s-39.5 58.166 -39.5 95.499c0 36.667 13 68.167 39 94.5s57.667 39.5 95 39.5s69.166 -13 95.499 -39s39.5 -57.667 39.5 -95s-13.167 -69.166 -39.5 -95.499s-58.166 -39.5 -95.499 -39.5zM306 781
c-11.333 0 -20.833 -3.83301 -28.5 -11.5s-11.167 -17.5 -10.5 -29.5c-0.666992 -12 2.83301 -21.833 10.5 -29.5s17.167 -11.5 28.5 -11.5s20.833 3.83301 28.5 11.5s11.5 17.5 11.5 29.5s-3.83301 21.833 -11.5 29.5s-17.167 11.5 -28.5 11.5zM399 550
l170.001 0.000976562v-550h-170v63c-40.667 -50.667 -93.334 -76 -158.001 -76c-60.667 0 -108.5 19.667 -143.5 59s-52.5 92.666 -52.5 159.999v344h170v-306c0 -32 6.16699 -55.833 18.5 -71.5s34.5 -23.5 66.5 -23.5c66 0 99 36.333 99 109v292z" />
    <glyph glyph-name="Uhungarumlaut" unicode="&#x170;" horiz-adv-x="725" 
d="M280 1010l101 -47l-126 -193l-71 33zM440 1010l101 -47l-126 -193l-71 33zM487 700h172.998l-1 -414c0 -96 -27.167 -169.833 -81.5 -221.5s-125.166 -77.5 -212.499 -77.5s-158.166 25.833 -212.499 77.5s-81.5 125.5 -81.5 221.5l-1 414h173v-404
c0 -98 40.667 -147 122 -147s122 49 122 147v404z" />
    <glyph glyph-name="uhungarumlaut" unicode="&#x171;" horiz-adv-x="619" 
d="M325 799l-126 -193l-71 33l96 207zM359 606l-71 33l96 207l101 -47zM399 550l170.001 0.000976562v-550h-170v63c-40.667 -50.667 -93.334 -76 -158.001 -76c-60.667 0 -108.5 19.667 -143.5 59s-52.5 92.666 -52.5 159.999v344h170v-306
c0 -32 6.16699 -55.833 18.5 -71.5s34.5 -23.5 66.5 -23.5c66 0 99 36.333 99 109v292z" />
    <glyph glyph-name="Uogonek" unicode="&#x172;" horiz-adv-x="725" 
d="M487 700l172.999 0.000976562l-1 -414c0 -76.667 -17.5 -139.167 -52.5 -187.5s-82.5 -81.166 -142.5 -98.499c-46 -54.667 -72.333 -88.667 -79 -102c-6.66699 -12.667 -10 -24.334 -10 -35.001c0 -23.333 16.667 -35 50 -35c7.33301 0 20.333 1.33301 39 4v-92
c-16 -2 -38.333 -3 -67 -3c-100.667 0 -151 34 -151 102c0 27.333 7.83301 52 23.5 74s39.5 47 71.5 75c-81.333 4.66699 -146.666 32.667 -195.999 84s-74 122.666 -74 213.999l-1 414h173v-404c0 -98 40.667 -147 122 -147s122 49 122 147v404z" />
    <glyph glyph-name="uogonek" unicode="&#x173;" horiz-adv-x="619" 
d="M569 550l0.000976562 -550c-46 -54.667 -72.333 -88.667 -79 -102c-6.66699 -12.667 -10 -24.334 -10 -35.001c0 -23.333 16.667 -35 50 -35c7.33301 0 20.333 1.33301 39 4v-92c-16 -2 -38.333 -3 -67 -3c-100.667 0 -151 34 -151 102c0 20.667 5.5 40.834 16.5 60.501
s22.833 35.834 35.5 48.501s31.667 30 57 52h-61v63c-40.667 -50.667 -93.334 -76 -158.001 -76c-60.667 0 -108.5 19.667 -143.5 59s-52.5 92.666 -52.5 159.999v344h170v-306c0 -32 6.16699 -55.833 18.5 -71.5s34.5 -23.5 66.5 -23.5c66 0 99 36.333 99 109v292h170z" />
    <glyph glyph-name="Wcircumflex" unicode="&#x174;" horiz-adv-x="1017" 
d="M509 852l-72 -82l-89 89l161 161l161 -161l-89 -89zM818 700h174l-169 -700h-209l-61 253l-36 247l-17 1l-35 -248l-61 -253h-210l-169 700h175l80 -335l21 -163l21 163l80 335h213l80 -335l22 -167l21 167z" />
    <glyph glyph-name="wcircumflex" unicode="&#x175;" horiz-adv-x="893" 
d="M447 688l-72 -82l-89 89l161 161l161 -161l-89 -89zM705 550h168l-146 -550h-195l-49 185l-28 198h-17l-28 -198l-49 -185h-195l-146 550h168l44 -173l35 -182l34 182l45 173h201l44 -173l35 -180l34 180z" />
    <glyph glyph-name="Ycircumflex" unicode="&#x176;" horiz-adv-x="705" 
d="M353 852l-72 -82l-89 89l161 161l161 -161l-89 -89zM680 700l-242 -476v-224h-170v222l-243 478h191l137 -285l137 285h190z" />
    <glyph glyph-name="ycircumflex" unicode="&#x177;" horiz-adv-x="636" 
d="M318 688l-72 -82l-89 89l161 161l161 -161l-89 -89zM435 550h181l-351 -800h-181l143 326l-207 474h181l116 -287z" />
    <glyph glyph-name="Ydieresis" unicode="&#x178;" horiz-adv-x="705" 
d="M239 790c-26.667 0 -48.8359 8.33301 -66.5029 25s-26.5 38 -26.5 64c0 25.333 8.83301 46.333 26.5 63s39.834 25 66.501 25s48.834 -8.33301 66.501 -25s26.5 -37.667 26.5 -63c0 -26 -8.66699 -47.333 -26 -64s-39.666 -25 -66.999 -25zM465.998 790
c-26.667 0 -48.834 8.33301 -66.501 25s-26.5 38 -26.5 64c0 25.333 8.83301 46.333 26.5 63s39.834 25 66.501 25c27.333 0 49.833 -8.33301 67.5 -25s26.5 -37.667 26.5 -63c0 -26 -8.83301 -47.333 -26.5 -64s-40.167 -25 -67.5 -25zM679.998 700l-242 -476v-224h-170
v222l-243 478h191l137 -285l137 285h190z" />
    <glyph glyph-name="Zacute" unicode="&#x179;" horiz-adv-x="598" 
d="M429 904l-188 -134l-73 73l161 161zM250 162h313v-162h-528v162l311 376h-295v162h509l1 -162z" />
    <glyph glyph-name="zacute" unicode="&#x17a;" horiz-adv-x="548" 
d="M404 740l-188 -134l-73 73l161 161zM259 160h254v-160h-478v160l245 230h-230v160h454v-160z" />
    <glyph glyph-name="Zdotaccent" unicode="&#x17b;" horiz-adv-x="598" 
d="M299 790c-26.667 0 -48.8359 8.33301 -66.5029 25s-26.5 38 -26.5 64c0 25.333 8.83301 46.333 26.5 63s39.834 25 66.501 25s48.834 -8.33301 66.501 -25s26.5 -37.667 26.5 -63c0 -26 -8.66699 -47.333 -26 -64s-39.666 -25 -66.999 -25zM249.998 162h313v-162h-528
v162l311 376h-295v162h509l1 -162z" />
    <glyph glyph-name="zdotaccent" unicode="&#x17c;" horiz-adv-x="548" 
d="M274 615c-29.333 0 -53.833 9.33301 -73.5 28s-29.5 42 -29.5 70s9.83301 51.167 29.5 69.5s44.167 27.5 73.5 27.5c30 0 54.667 -9.16699 74 -27.5s29 -41.5 29 -69.5c0 -28.667 -9.66699 -52.167 -29 -70.5s-44 -27.5 -74 -27.5zM259 160h254v-160h-478v160l245 230
h-230v160h454v-160z" />
    <glyph glyph-name="Zcaron" unicode="&#x17d;" horiz-adv-x="598" 
d="M460 935l-161 -161l-161 161l89 89l72 -82l72 82zM250 162h313v-162h-528v162l311 376h-295v162h509l1 -162z" />
    <glyph glyph-name="zcaron" unicode="&#x17e;" horiz-adv-x="548" 
d="M435 767l-161 -161l-161 161l89 89l72 -82l72 82zM259 160h254v-160h-478v160l245 230h-230v160h454v-160z" />
    <glyph glyph-name="uni0237" unicode="&#x237;" horiz-adv-x="270" 
d="M50 -250v800h170v-800h-170z" />
    <glyph glyph-name="circumflex" unicode="&#x2c6;" horiz-adv-x="462" 
d="M392 695l-89 -89l-72 82l-72 -82l-89 89l161 161z" />
    <glyph glyph-name="caron" unicode="&#x2c7;" horiz-adv-x="462" 
d="M392 767l-161 -161l-161 161l89 89l72 -82l72 82z" />
    <glyph glyph-name="breve" unicode="&#x2d8;" horiz-adv-x="471" 
d="M406 800l0.00195312 -31c0 -50 -16.833 -89.667 -50.5 -119s-73.5 -44 -119.5 -44c-46.667 0 -86.834 14.667 -120.501 44s-50.5 69 -50.5 119v31h132v-27c0 -12 3.66699 -21.667 11 -29s16.666 -11 27.999 -11s20.5 3.66699 27.5 11s10.5 17 10.5 29v27h132z" />
    <glyph glyph-name="dotaccent" unicode="&#x2d9;" horiz-adv-x="326" 
d="M163 810c30 0 54.667 -9.16699 74 -27.5s29 -41.5 29 -69.5c0 -28.667 -9.66699 -52.167 -29 -70.5s-44 -27.5 -74 -27.5c-29.333 0 -53.833 9.33301 -73.5 28s-29.5 42 -29.5 70s9.83301 51.167 29.5 69.5s44.167 27.5 73.5 27.5z" />
    <glyph glyph-name="ring" unicode="&#x2da;" horiz-adv-x="409" 
d="M204 875c37.333 0 69.166 -13 95.499 -39s39.5 -57.667 39.5 -95s-13.167 -69.166 -39.5 -95.499s-58.166 -39.5 -95.499 -39.5c-36.667 0 -68.167 13.167 -94.5 39.5s-39.5 58.166 -39.5 95.499c0 36.667 13 68.167 39 94.5s57.667 39.5 95 39.5zM204 781
c-11.333 0 -20.833 -3.83301 -28.5 -11.5s-11.167 -17.5 -10.5 -29.5c-0.666992 -12 2.83301 -21.833 10.5 -29.5s17.167 -11.5 28.5 -11.5s20.833 3.83301 28.5 11.5s11.5 17.5 11.5 29.5s-3.83301 21.833 -11.5 29.5s-17.167 11.5 -28.5 11.5z" />
    <glyph glyph-name="ogonek" unicode="&#x2db;" horiz-adv-x="339" 
d="M288 -260c-16 -2 -38.333 -3.00098 -67 -3.00098c-100.667 0 -151 34 -151 102c0 20.667 5.5 40.834 16.5 60.501s22.833 35.834 35.5 48.501s31.667 30 57 52h109c-46 -54.667 -72.333 -88.667 -79 -102c-6.66699 -12.667 -10 -24.334 -10 -35.001
c0 -23.333 16.667 -35 50 -35c7.33301 0 20.333 1.33301 39 4v-92z" />
    <glyph glyph-name="tilde" unicode="&#x2dc;" horiz-adv-x="492" 
d="M336 785h100c0 -111.333 -40 -167 -120 -167c-22.667 0 -46.667 8 -72 24c-20 12.667 -35.667 19 -47 19c-18 0 -27 -12.333 -27 -37h-100c0 111.333 40 167 120 167c22.667 0 46.667 -8 72 -24c20 -12.667 35.667 -19 47 -19c18 0 27 12.333 27 37z" />
    <glyph glyph-name="hungarumlaut" unicode="&#x2dd;" horiz-adv-x="497" 
d="M166 846l101 -47l-126 -193l-71 33zM326 846l101 -47l-126 -193l-71 33z" />
    <glyph glyph-name="gravecomb" unicode="&#x300;" 
d="M-231 838l161 -161l-73 -73l-188 134z" />
    <glyph glyph-name="acutecomb" unicode="&#x301;" 
d="M-170 840l100 -100l-188 -134l-73 73z" />
    <glyph glyph-name="uni0302" unicode="&#x302;" 
d="M-70 695l-89 -89l-72 82l-72 -82l-89 89l161 161z" />
    <glyph glyph-name="tildecomb" unicode="&#x303;" 
d="M-170 785h100c0 -111.333 -40 -167 -120 -167c-22.667 0 -46.667 8 -72 24c-20 12.667 -35.667 19 -47 19c-18 0 -27 -12.333 -27 -37h-100c0 111.333 40 167 120 167c22.667 0 46.667 -8 72 -24c20 -12.667 35.667 -19 47 -19c18 0 27 12.333 27 37z" />
    <glyph glyph-name="uni0304" unicode="&#x304;" 
d="M-70 770v-122h-250v122h250z" />
    <glyph glyph-name="uni0306" unicode="&#x306;" 
d="M-65 800l0.00195312 -31c0 -50 -16.833 -89.667 -50.5 -119s-73.5 -44 -119.5 -44c-46.667 0 -86.834 14.667 -120.501 44s-50.5 69 -50.5 119v31h132v-27c0 -12 3.66699 -21.667 11 -29s16.666 -11 27.999 -11s20.5 3.66699 27.5 11s10.5 17 10.5 29v27h132z" />
    <glyph glyph-name="uni0307" unicode="&#x307;" 
d="M-163 810c30 0 54.667 -9.16699 74 -27.5s29 -41.5 29 -69.5c0 -28.667 -9.66699 -52.167 -29 -70.5s-44 -27.5 -74 -27.5c-29.333 0 -53.833 9.33301 -73.5 28s-29.5 42 -29.5 70s9.83301 51.167 29.5 69.5s44.167 27.5 73.5 27.5z" />
    <glyph glyph-name="uni0308" unicode="&#x308;" 
d="M-391 801c26.667 0 48.832 -8.33301 66.499 -25s26.5 -37.667 26.5 -63c0 -26 -8.66699 -47.333 -26 -64s-39.666 -25 -66.999 -25c-26.667 0 -48.834 8.33301 -66.501 25s-26.5 38 -26.5 64c0 25.333 8.83301 46.333 26.5 63s39.834 25 66.501 25zM-164.002 801
c27.333 0 49.833 -8.33301 67.5 -25s26.5 -37.667 26.5 -63c0 -26 -8.83301 -47.333 -26.5 -64s-40.167 -25 -67.5 -25c-26.667 0 -48.834 8.33301 -66.501 25s-26.5 38 -26.5 64c0 25.333 8.83301 46.333 26.5 63s39.834 25 66.501 25z" />
    <glyph glyph-name="uni030A" unicode="&#x30a;" 
d="M-205 875c37.333 0 69.166 -13 95.499 -39s39.5 -57.667 39.5 -95s-13.167 -69.166 -39.5 -95.499s-58.166 -39.5 -95.499 -39.5c-36.667 0 -68.167 13.167 -94.5 39.5s-39.5 58.166 -39.5 95.499c0 36.667 13.167 68.167 39.5 94.5s57.833 39.5 94.5 39.5zM-205 781
c-11.333 0 -20.833 -3.83301 -28.5 -11.5s-11.167 -17.5 -10.5 -29.5c-0.666992 -12 2.83301 -21.833 10.5 -29.5s17.167 -11.5 28.5 -11.5s20.833 3.83301 28.5 11.5s11.5 17.5 11.5 29.5s-3.83301 21.833 -11.5 29.5s-17.167 11.5 -28.5 11.5z" />
    <glyph glyph-name="uni030B" unicode="&#x30b;" 
d="M-331 846l101 -47l-126 -193l-71 33zM-171 846l101 -47l-126 -193l-71 33z" />
    <glyph glyph-name="uni030C" unicode="&#x30c;" 
d="M-70 767l-161 -161l-161 161l89 89l72 -82l72 82z" />
    <glyph glyph-name="uni0312" unicode="&#x312;" 
d="M-121 732c34 -6.66699 51 -25.667 51 -57c0 -20.667 -7.66699 -37.334 -23 -50.001s-33.333 -19 -54 -19s-38.667 6.33301 -54 19s-23 29.334 -23 50.001c0 28 20.333 70.667 61 128h89z" />
    <glyph glyph-name="uni0326" unicode="&#x326;" 
d="M-147 -53c20.667 0 38.667 -6.33301 54 -19s23 -29.334 23 -50.001c0 -28 -20.333 -70.667 -61 -128h-89l47 71c-34 6.66699 -51 25.667 -51 57c0 20.667 7.66699 37.334 23 50.001s33.333 19 54 19z" />
    <glyph glyph-name="uni0327" unicode="&#x327;" 
d="M-146 -76c50.667 -15.333 76 -45.333 76 -90c0 -32.667 -14.167 -57 -42.5 -73s-67.5 -24 -117.5 -24c-23.333 0 -43 1 -59 3v81c18.667 -2.66699 31.667 -4 39 -4c34 0 51 9 51 27s-23.333 31.333 -70 40l50 116h114z" />
    <glyph glyph-name="uni0328" unicode="&#x328;" 
d="M-70 -260c-16 -2 -38.333 -3.00098 -67 -3.00098c-100.667 0 -151 34 -151 102c0 20.667 5.5 40.834 16.5 60.501s22.833 35.834 35.5 48.501s31.667 30 57 52h109c-46 -54.667 -72.333 -88.667 -79 -102c-6.66699 -12.667 -10 -24.334 -10 -35.001
c0 -23.333 16.667 -35 50 -35c7.33301 0 20.333 1.33301 39 4v-92z" />
    <glyph glyph-name="uni0335" unicode="&#x335;" 
d="M-70 376v-162h-311v162h311z" />
    <glyph glyph-name="uni0337" unicode="&#x337;" 
d="M-70 550l-393 -550h-125l393 550h125z" />
    <glyph glyph-name="uni0338" unicode="&#x338;" 
d="M-70 770l-345 -770h-172l345 770h172z" />
    <glyph glyph-name="uni0401" unicode="&#x401;" horiz-adv-x="587" 
d="M194 790c-26.667 0 -48.8359 8.33301 -66.5029 25s-26.5 38 -26.5 64c0 25.333 8.83301 46.333 26.5 63s39.834 25 66.501 25s48.834 -8.33301 66.501 -25s26.5 -37.667 26.5 -63c0 -26 -8.66699 -47.333 -26 -64s-39.666 -25 -66.999 -25zM420.998 790
c-26.667 0 -48.834 8.33301 -66.501 25s-26.5 38 -26.5 64c0 25.333 8.83301 46.333 26.5 63s39.834 25 66.501 25c27.333 0 49.833 -8.33301 67.5 -25s26.5 -37.667 26.5 -63c0 -26 -8.83301 -47.333 -26.5 -64s-40.167 -25 -67.5 -25zM551.998 538h-312v-104h284v-162
h-284v-110h312v-162h-482v700h482v-162z" />
    <glyph glyph-name="uni0404" unicode="&#x404;" horiz-adv-x="784" 
d="M408 149c36.667 0 68.835 8.66895 96.502 26.002s48.5 41.333 62.5 72h182c-19.333 -77.333 -59.833 -140 -121.5 -188s-134.834 -72 -219.501 -72c-104.667 0 -191.334 34.667 -260.001 104s-103 155.666 -103 258.999s34.333 189.666 103 258.999
s155.334 104 260.001 104c84.667 0 157.834 -24 219.501 -72s102.167 -110.667 121.5 -188h-182c-14 30.667 -34.833 54.667 -62.5 72s-59.834 26 -96.501 26c-42 0 -78.333 -10.5 -109 -31.5s-53 -49.5 -67 -85.5h238v-162h-240c12.667 -38 34.667 -68 66 -90
s68.666 -33 111.999 -33z" />
    <glyph glyph-name="uni0406" unicode="&#x406;" horiz-adv-x="310" 
d="M70 0v700h170v-700h-170z" />
    <glyph glyph-name="uni0407" unicode="&#x407;" horiz-adv-x="310" 
d="M41 967c26.667 0 48.832 -8.33301 66.499 -25s26.5 -37.667 26.5 -63c0 -26 -8.66699 -47.333 -26 -64s-39.666 -25 -66.999 -25c-26.667 0 -48.834 8.33301 -66.501 25s-26.5 38 -26.5 64c0 25.333 8.83301 46.333 26.5 63s39.834 25 66.501 25zM267.998 967
c27.333 0 49.833 -8.33301 67.5 -25s26.5 -37.667 26.5 -63c0 -26 -8.83301 -47.333 -26.5 -64s-40.167 -25 -67.5 -25c-26.667 0 -48.834 8.33301 -66.501 25s-26.5 38 -26.5 64c0 25.333 8.83301 46.333 26.5 63s39.834 25 66.501 25zM69.998 0v700h170v-700h-170z" />
    <glyph glyph-name="uni040E" unicode="&#x40e;" horiz-adv-x="730" 
d="M548 964l0.00195312 -31c0 -50 -16.833 -89.667 -50.5 -119s-73.5 -44 -119.5 -44c-46.667 0 -86.834 14.667 -120.501 44s-50.5 69 -50.5 119v31h132v-27c0 -12 3.66699 -21.667 11 -29s16.666 -11 27.999 -11s20.5 3.66699 27.5 11s10.5 17 10.5 29v27h132z
M705.002 700l-347 -700h-190l118 237l-236 463h191l139 -278l136 278h189z" />
    <glyph glyph-name="uni0410" unicode="&#x410;" horiz-adv-x="772" 
d="M567 0l-50 145h-262l-50 -145h-180l254 700h214l254 -700h-180zM311 307h150l-75 218z" />
    <glyph glyph-name="uni0411" unicode="&#x411;" horiz-adv-x="655" 
d="M386 441c156 0 234 -72.667 234 -218c0 -72.667 -21.5 -128 -64.5 -166s-102.167 -57 -177.5 -57h-308v700h170h326v-162h-326v-97h146zM371 162c51.333 0 76.999 20.999 76.999 62.999c0 22.667 -5.16699 38.334 -15.5 47.001s-28.166 13 -53.499 13h-139v-123h131z" />
    <glyph glyph-name="uni0412" unicode="&#x412;" horiz-adv-x="660" 
d="M519 379c34.667 -12.667 61 -34.499 79 -65.499s27 -67.167 27 -108.5c0 -64.667 -21.833 -115 -65.5 -151s-101.5 -54 -173.5 -54h-316v700h316c64 0 115.833 -15.667 155.5 -47s59.5 -77 59.5 -137c0 -62.667 -27.333 -108.334 -82 -137.001zM429 486.001
c0 20 -5.33203 33.667 -15.999 41s-27.334 11 -50.001 11h-123v-105h130c39.333 0 59 17.667 59 53zM382.001 162.001c26.667 0 45.167 4.83301 55.5 14.5s15.5 24.167 15.5 43.5c0 20.667 -5 35.5 -15 44.5s-28.667 13.5 -56 13.5h-142v-116h142z" />
    <glyph glyph-name="uni0413" unicode="&#x413;" horiz-adv-x="549" 
d="M524 700v-162h-284v-538h-170v700h454z" />
    <glyph glyph-name="uni0414" unicode="&#x414;" horiz-adv-x="815" 
d="M690 162l100 -0.000976562v-297h-170v135h-425v-135h-170v297h98c11.333 12.667 20 36.334 26 71.001l74 467h467v-538zM316 215.999c-2 -14.667 -5.66699 -32.667 -11 -54h215v376h-153z" />
    <glyph glyph-name="uni0415" unicode="&#x415;" horiz-adv-x="587" 
d="M552 538h-312v-104h284v-162h-284v-110h312v-162h-482v700h482v-162z" />
    <glyph glyph-name="uni0416" unicode="&#x416;" horiz-adv-x="1072" 
d="M1047 0h-208l-218 314v-314h-170v314l-218 -314h-208l252 362l-235 338h205l204 -294v294h170v-294l204 294h205l-235 -338z" />
    <glyph glyph-name="uni0417" unicode="&#x417;" horiz-adv-x="632" 
d="M498 366c66 -30 99 -83.668 99 -161.001c0 -68 -24.167 -121.333 -72.5 -160s-114.5 -58 -198.5 -58c-83.333 0 -151.666 20.5 -204.999 61.5s-82 100.167 -86 177.5h172c4 -28 15.167 -47.833 33.5 -59.5s45.5 -17.5 81.5 -17.5c38 0 64.667 6.16699 80 18.5
s23 30.5 23 54.5c0 20.667 -6.83301 35.5 -20.5 44.5s-38.167 13.5 -73.5 13.5h-97v148h81c29.333 0 51.666 3.83301 66.999 11.5s23 21.834 23 42.501c0 46 -31.667 69 -95 69c-30 0 -52.667 -5.16699 -68 -15.5s-25.333 -28.5 -30 -54.5h-172
c4.66699 74 32.167 131.167 82.5 171.5s114.5 60.5 192.5 60.5c78.667 0 142 -19.5 190 -58.5s72 -88.833 72 -149.5c0 -29.333 -7.16699 -56.333 -21.5 -81s-33.5 -44 -57.5 -58z" />
    <glyph glyph-name="uni0418" unicode="&#x418;" horiz-adv-x="742" 
d="M484 700h193v-700h-170v293l14 148l-263 -441h-193v700h170v-293l-13 -148z" />
    <glyph glyph-name="uni0419" unicode="&#x419;" horiz-adv-x="742" 
d="M371 770c-46.667 0 -86.832 14.667 -120.499 44s-50.5 69 -50.5 119v31h132v-27c0 -12 3.66699 -21.667 11 -29s16.666 -11 27.999 -11s20.5 3.66699 27.5 11s10.5 17 10.5 29v27h132v-31c0 -50 -16.833 -89.667 -50.5 -119s-73.5 -44 -119.5 -44zM484.002 700h193v-700
h-170v293l14 148l-263 -441h-193v700h170v-293l-13 -148z" />
    <glyph glyph-name="uni041A" unicode="&#x41a;" horiz-adv-x="711" 
d="M686 0h-212l-234 317v-317h-170v700h170v-298l219 298h209l-252 -338z" />
    <glyph glyph-name="uni041B" unicode="&#x41b;" horiz-adv-x="755" 
d="M217 700h468.002v-700h-170v538h-154l-51 -322c-24.667 -152.667 -94 -229 -208 -229c-21.333 0 -47 3 -77 9v153c20 -2.66699 33.667 -4 41 -4c23.333 0 40.666 6.16699 51.999 18.5s19.666 35.5 24.999 69.5z" />
    <glyph glyph-name="uni041C" unicode="&#x41c;" horiz-adv-x="841" 
d="M578 700h193v-700h-170v462l-175 -267h-16l-175 267v-462h-170v700h193l160 -240z" />
    <glyph glyph-name="uni041D" unicode="&#x41d;" horiz-adv-x="749" 
d="M509 700h170v-700h-170v276h-269v-276h-170v700h170v-262h269v262z" />
    <glyph glyph-name="uni041E" unicode="&#x41e;" horiz-adv-x="812" 
d="M406 713c103.333 0 190.166 -34.833 260.499 -104.5s105.5 -155.834 105.5 -258.501s-35.167 -188.834 -105.5 -258.501s-157.166 -104.5 -260.499 -104.5s-190.166 34.833 -260.499 104.5s-105.5 155.834 -105.5 258.501s35.167 188.834 105.5 258.501
s157.166 104.5 260.499 104.5zM406 551c-56 0 -102.333 -18.833 -139 -56.5s-55 -85.834 -55 -144.501s18.333 -106.834 55 -144.501s83 -56.5 139 -56.5s102.333 18.833 139 56.5s55 85.834 55 144.501s-18.333 106.834 -55 144.501s-83 56.5 -139 56.5z" />
    <glyph glyph-name="uni041F" unicode="&#x41f;" horiz-adv-x="749" 
d="M679 700v-700h-170v538h-269v-538h-170v700h170h439z" />
    <glyph glyph-name="uni0420" unicode="&#x420;" horiz-adv-x="662" 
d="M370 700c76 0 136.999 -21 182.999 -63s69 -101 69 -177s-23.167 -135.667 -69.5 -179s-107.166 -65 -182.499 -65h-130v-216h-170v700h300zM362.999 378c58 0 87 26.667 87 80s-29 80 -87 80h-123v-160h123z" />
    <glyph glyph-name="uni0421" unicode="&#x421;" horiz-adv-x="784" 
d="M408 -13c-104.667 0 -191.334 34.667 -260.001 104s-103 155.666 -103 258.999s34.333 189.666 103 258.999s155.334 104 260.001 104c84.667 0 157.834 -24 219.501 -72s102.167 -110.667 121.5 -188h-182c-14 30.667 -34.833 54.667 -62.5 72s-59.834 26 -96.501 26
c-57.333 0 -103.5 -18.667 -138.5 -56s-52.5 -85.666 -52.5 -144.999s17.5 -107.666 52.5 -144.999s81.167 -56 138.5 -56c36.667 0 68.834 8.66699 96.501 26s48.5 41.333 62.5 72h182c-19.333 -77.333 -59.833 -140 -121.5 -188s-134.834 -72 -219.501 -72z" />
    <glyph glyph-name="uni0422" unicode="&#x422;" horiz-adv-x="601" 
d="M576 700v-162h-191v-538h-170v538h-190v162h551z" />
    <glyph glyph-name="uni0423" unicode="&#x423;" horiz-adv-x="730" 
d="M705 700l-347 -700h-190l118 237l-236 463h191l139 -278l136 278h189z" />
    <glyph glyph-name="uni0424" unicode="&#x424;" horiz-adv-x="934" 
d="M606 626c82 0 150.502 -24.667 205.502 -74s82.5 -114.666 82.5 -195.999s-27.333 -146.666 -82 -195.999s-123.334 -74 -206.001 -74h-39v-86h-170v86h-39c-82.667 0 -151.334 24.667 -206.001 74s-82 114.666 -82 195.999s27.5 146.666 82.5 195.999s123.5 74 205.5 74
h39v74h170v-74h39zM358.002 248l39 0.000976562v216h-39c-35.333 0 -63.5 -9 -84.5 -27s-31.5 -45 -31.5 -81c0 -36.667 10.5 -63.834 31.5 -81.501s49.167 -26.5 84.5 -26.5zM606.002 248.001c35.333 0 63.5 8.83203 84.5 26.499s31.5 44.834 31.5 81.501
c0 36 -10.5 63 -31.5 81s-49.167 27 -84.5 27h-39v-216h39z" />
    <glyph glyph-name="uni0425" unicode="&#x425;" horiz-adv-x="706" 
d="M681 0h-202l-128 218l-124 -218h-202l224 364l-213 336h202l118 -201l118 201h202l-217 -349z" />
    <glyph glyph-name="uni0426" unicode="&#x426;" horiz-adv-x="771" 
d="M646 162h100v-297h-170v135h-506v162v538h170v-538h236v538h170v-538z" />
    <glyph glyph-name="uni0427" unicode="&#x427;" horiz-adv-x="665" 
d="M425 700h170.001v-700h-170v237c-40.667 -17.333 -85.334 -26 -134.001 -26c-78 0 -139.333 20.333 -184 61s-67 101.667 -67 183v245h172v-223c0 -38.667 9.5 -65.667 28.5 -81s48.167 -23 87.5 -23c44 0 76.333 7.33301 97 22v305z" />
    <glyph glyph-name="uni0428" unicode="&#x428;" horiz-adv-x="1018" 
d="M778 700h170v-567v-133h-878v162v538h170v-538h184v538h170v-538h184v538z" />
    <glyph glyph-name="uni0429" unicode="&#x429;" horiz-adv-x="1073" 
d="M948 162h100v-297h-170v135h-808v162v538h170v-538h184v538h170v-538h184v538h170v-538z" />
    <glyph glyph-name="uni042A" unicode="&#x42a;" horiz-adv-x="739" 
d="M460 444c76.667 0 135.667 -18.667 177 -56s62 -92.333 62 -165s-21.5 -128 -64.5 -166s-102.167 -57 -177.5 -57h-303v538h-129v162h223h76v-256h136zM450 162c51.333 0 77 21 77 63c0 22 -6 37.5 -18 46.5s-30.667 13.5 -56 13.5h-129v-123h126z" />
    <glyph glyph-name="uni042B" unicode="&#x42b;" horiz-adv-x="906" 
d="M376 444c76.667 0 135.667 -18.667 177 -56s62 -92.333 62 -165s-21.5 -128 -64.5 -166s-102.167 -57 -177.5 -57h-303v700h170v-256h136zM691 700h170v-700h-170v700zM366 162c51.333 0 77 21 77 63c0 22 -6 37.5 -18 46.5s-30.667 13.5 -56 13.5h-129v-123h126z" />
    <glyph glyph-name="uni042C" unicode="&#x42c;" horiz-adv-x="655" 
d="M376 444c76.667 0 135.667 -18.667 177 -56s62 -92.333 62 -165s-21.5 -128 -64.5 -166s-102.167 -57 -177.5 -57h-303v700h170v-256h136zM366 162c51.333 0 77 21 77 63c0 22 -6 37.5 -18 46.5s-30.667 13.5 -56 13.5h-129v-123h126z" />
    <glyph glyph-name="uni042D" unicode="&#x42d;" horiz-adv-x="782" 
d="M377 713c104.667 0 190.83 -34.501 258.497 -103.501s101.5 -155.5 101.5 -259.5c0 -103.333 -33.833 -189.666 -101.5 -258.999s-153.5 -104 -257.5 -104c-85.333 0 -159.333 24.167 -222 72.5s-103 110.833 -121 187.5h182c13.333 -31.333 34.333 -55.5 63 -72.5
s61.334 -25.5 98.001 -25.5c42.667 0 79.334 11.167 110.001 33.5s52.334 52.5 65.001 90.5h-241v162h238c-14 36 -35.833 64.333 -65.5 85s-65.5 31 -107.5 31c-37.333 0 -70.166 -8.33301 -98.499 -25s-48.833 -41 -61.5 -73h-182
c17.333 76.667 57.166 139.167 119.499 187.5s136.5 72.5 222.5 72.5z" />
    <glyph glyph-name="uni042E" unicode="&#x42e;" horiz-adv-x="1089" 
d="M683 713c103.333 0 190.167 -34.8311 260.5 -104.498s105.5 -155.834 105.5 -258.501s-35.167 -188.834 -105.5 -258.501s-157.166 -104.5 -260.499 -104.5c-88.667 0 -165.834 26.167 -231.501 78.5s-107.5 119.833 -125.5 202.5h-86v-268h-170v700h170v-270h85
c18 83.333 60 151.333 126 204s143.333 79 232 79zM683.001 149.002c56 0 102.333 18.833 139 56.5s55 85.834 55 144.501s-18.333 106.834 -55 144.501s-83 56.5 -139 56.5s-102.333 -18.833 -139 -56.5s-55 -85.834 -55 -144.501s18.333 -106.834 55 -144.501
s83 -56.5 139 -56.5z" />
    <glyph glyph-name="uni042F" unicode="&#x42f;" horiz-adv-x="691" 
d="M309 700h311.999v-700h-170v230h-61l-157 -230h-208l178 250c-89.333 35.333 -134 107 -134 215c0 73.333 21.333 130.833 64 172.5s101.334 62.5 176.001 62.5zM327.999 538c-58 0 -87 -26 -87 -78c0 -50.667 29 -76 87 -76h123v154h-123z" />
    <glyph glyph-name="uni0430" unicode="&#x430;" horiz-adv-x="664" 
d="M444 550h170l-1 -550h-170v59c-39.333 -48 -91 -72 -155 -72c-70.667 0 -129.667 27 -177 81s-71 123 -71 207s23.833 153 71.5 207s106.167 81 175.5 81c66 0 118.333 -25 157 -75v62zM328 149c33.333 0 61 11.5 83 34.5s33 53.5 33 91.5
c0 37.333 -11 67.666 -33 90.999s-49.667 35 -83 35s-61 -11.667 -83 -35s-33 -53.666 -33 -90.999c0 -38 11 -68.5 33 -91.5s49.667 -34.5 83 -34.5z" />
    <glyph glyph-name="uni0431" unicode="&#x431;" horiz-adv-x="654" 
d="M376 530c67.333 0 123.829 -24.1719 169.496 -72.5049s68.5 -111.166 68.5 -188.499c0 -84 -26.333 -152 -79 -204s-119 -78 -199 -78c-39.333 0 -76.166 6.83301 -110.499 20.5s-65.666 34.334 -93.999 62.001s-50.666 65.834 -66.999 114.501
s-24.5 105.334 -24.5 170.001c0 72 8.66699 134.167 26 186.5s40.166 93.833 68.499 124.5s64.833 55 109.5 73s89.834 30 135.501 36s99.167 9 160.5 9v-160c-46.667 0 -85.5 -1.16699 -116.5 -3.5s-60.667 -7 -89 -14s-50.5 -17.167 -66.5 -30.5
s-29.167 -30.666 -39.5 -51.999s-16.166 -47.333 -17.499 -78c36 56.667 91 85 165 85zM327.996 132.995c33.333 0 61 11.5 83 34.5s33 53.5 33 91.5c0 37.333 -11 67.666 -33 90.999s-49.667 35 -83 35s-61 -11.667 -83 -35s-33 -53.666 -33 -90.999
c0 -38 11 -68.5 33 -91.5s49.667 -34.5 83 -34.5z" />
    <glyph glyph-name="uni0432" unicode="&#x432;" horiz-adv-x="587" 
d="M457 299c63.333 -20 95 -66.332 95 -138.999c0 -56 -19 -96.667 -57 -122s-86.667 -38 -146 -38h-299v550h275c28 0 52.833 -1.83301 74.5 -5.5s42.5 -10.167 62.5 -19.5s35.333 -23.5 46 -42.5s16 -42.5 16 -70.5c0 -26.667 -5.66699 -48.334 -17 -65.001
s-28 -32.667 -50 -48zM352 378.001c0 14.667 -3.16797 25 -9.50098 31s-17.166 9 -32.499 9h-90v-78h91c15.333 0 26 2.83301 32 8.5s9 15.5 9 29.5zM335.999 132.001c16 0 27.333 3.16699 34 9.5s10 17.833 10 34.5s-3.33301 28.167 -10 34.5s-18 9.5 -34 9.5h-116v-88h116
z" />
    <glyph glyph-name="uni0433" unicode="&#x433;" horiz-adv-x="451" 
d="M431 550v-160h-211v-390h-170v550h381z" />
    <glyph glyph-name="uni0434" unicode="&#x434;" horiz-adv-x="746" 
d="M626 160h100v-295h-170v135h-366v-135h-170v295h100c12.667 12.667 22 37 28 73l51 317h427v-390zM297 160h159v230h-112l-27 -166c-3.33301 -22.667 -10 -44 -20 -64z" />
    <glyph glyph-name="uni0435" unicode="&#x435;" horiz-adv-x="646" 
d="M330 563c90 0 162.002 -31.1689 216.002 -93.502s76.667 -139.166 68 -230.499h-401c4 -40 17.167 -70.167 39.5 -90.5s49.5 -30.5 81.5 -30.5c23.333 0 43.666 5.5 60.999 16.5s29.333 26.167 36 45.5h175c-18 -64.667 -51.833 -113 -101.5 -145s-106.5 -48 -170.5 -48
c-86.667 0 -157.334 27.333 -212.001 82s-82 123.334 -82 206.001c0 82 27.167 150.5 81.5 205.5s123.833 82.5 208.5 82.5zM329.002 431.998c-58 0 -95.001 -29.999 -111.001 -89.999h219c-6 27.333 -18.167 49.166 -36.5 65.499s-42.166 24.5 -71.499 24.5z" />
    <glyph glyph-name="uni0436" unicode="&#x436;" horiz-adv-x="1028" 
d="M1008 0h-215l-194 226v-226h-170v226l-194 -226h-215l248 288l-235 262h215l181 -219v219h170v-219l181 219h215l-235 -262z" />
    <glyph glyph-name="uni0437" unicode="&#x437;" horiz-adv-x="590" 
d="M474 290c54 -23.333 81 -66.666 81 -129.999c0 -57.333 -23 -100.5 -69 -129.5s-107 -43.5 -183 -43.5c-158 0 -249 67 -273 201h172c4 -26.667 13.5 -45.334 28.5 -56.001s37.833 -16 68.5 -16c30 0 51.5 4.33301 64.5 13s19.5 22.667 19.5 42
c0 15.333 -4.66699 26.666 -14 33.999s-26 11 -50 11h-84v129h72c22 0 37.333 3.33301 46 10s13 17.334 13 32.001c0 16.667 -5.66699 29.167 -17 37.5s-30.333 12.5 -57 12.5c-48.667 0 -75.667 -20 -81 -60h-172c20.667 124 105.667 186 255 186c72 0 130.667 -14 176 -42
s68 -68.333 68 -121c0 -48 -21.333 -84.667 -64 -110z" />
    <glyph glyph-name="uni0438" unicode="&#x438;" horiz-adv-x="639" 
d="M396 550h193v-550h-170v164l9 149l-185 -313h-193v550h170v-164l-9 -147z" />
    <glyph glyph-name="uni0439" unicode="&#x439;" horiz-adv-x="639" 
d="M320 606c-46.667 0 -86.832 14.667 -120.499 44s-50.5 69 -50.5 119v31h132v-27c0 -12 3.66699 -21.667 11 -29s16.666 -11 27.999 -11s20.5 3.66699 27.5 11s10.5 17 10.5 29v27h132v-31c0 -50 -16.833 -89.667 -50.5 -119s-73.5 -44 -119.5 -44zM396.002 550h193v-550
h-170v164l9 149l-185 -313h-193v550h170v-164l-9 -147z" />
    <glyph glyph-name="uni043A" unicode="&#x43a;" horiz-adv-x="649" 
d="M629 0h-215l-194 226v-226h-170v550h170v-219l181 219h215l-235 -262z" />
    <glyph glyph-name="uni043B" unicode="&#x43b;" horiz-adv-x="660" 
d="M188 550h422v-550h-170v390h-107l-28 -174c-24.667 -152.667 -94 -229 -208 -229c-21.333 0 -47 3 -77 9v153c20 -2.66699 33.667 -4 41 -4c23.333 0 40.5 6.16699 51.5 18.5s19.167 35.5 24.5 69.5z" />
    <glyph glyph-name="uni043C" unicode="&#x43c;" horiz-adv-x="732" 
d="M489 550h193v-550h-170v164l12 185l-156 -226h-4l-156 226l12 -185v-164h-170v550h193l123 -169z" />
    <glyph glyph-name="uni043D" unicode="&#x43d;" horiz-adv-x="645" 
d="M425 550h170v-550h-170v199h-205v-199h-170v550h170v-191h205v191z" />
    <glyph glyph-name="uni043E" unicode="&#x43e;" horiz-adv-x="656" 
d="M328 563c80 0 148 -27.499 204 -82.499s84 -123.5 84 -205.5c0 -82.667 -27.667 -151.334 -83 -206.001s-123.666 -82 -204.999 -82c-80.667 0 -148.834 27.5 -204.501 82.5s-83.5 123.5 -83.5 205.5s28 150.5 84 205.5s124 82.5 204 82.5zM328 401.001
c-33.333 0 -61 -11.667 -83 -35s-33 -53.666 -33 -90.999c0 -38 11 -68.5 33 -91.5s49.667 -34.5 83 -34.5s61 11.5 83 34.5s33 53.5 33 91.5c0 37.333 -11 67.666 -33 90.999s-49.667 35 -83 35z" />
    <glyph glyph-name="uni043F" unicode="&#x43f;" horiz-adv-x="632" 
d="M582 550v-550h-170v390h-192v-390h-170v550h170h362z" />
    <glyph glyph-name="uni0440" unicode="&#x440;" horiz-adv-x="669" 
d="M382 563c69.333 0 127.833 -27 175.5 -81s71.5 -123 71.5 -207s-23.667 -153 -71 -207s-106.333 -81 -177 -81c-64 0 -116 24 -156 72v-309h-170v800h170v-62c38.667 50 91 75 157 75zM341 149c33.333 0 61 11.5 83 34.5s33 53.5 33 91.5c0 37.333 -11 67.666 -33 90.999
s-49.667 35 -83 35s-61 -11.667 -83 -35s-33 -53.666 -33 -90.999c0 -38 11 -68.5 33 -91.5s49.667 -34.5 83 -34.5z" />
    <glyph glyph-name="uni0441" unicode="&#x441;" horiz-adv-x="636" 
d="M328 -13c-83.333 0 -152.166 27.501 -206.499 82.501s-81.5 123.5 -81.5 205.5s27.167 150.5 81.5 205.5s123.5 82.5 207.5 82.5c71.333 0 133.333 -20.5 186 -61.5s83 -97.167 91 -168.5h-175c-12 48.667 -46 73 -102 73c-36.667 0 -65.334 -12 -86.001 -36
s-31 -55.667 -31 -95s10.5 -71 31.5 -95s49.167 -36 84.5 -36c24.667 0 46.5 6.16699 65.5 18.5s31.5 30.833 37.5 55.5h175c-8.66699 -72.667 -39.5 -129.334 -92.5 -170.001s-114.833 -61 -185.5 -61z" />
    <glyph glyph-name="uni0442" unicode="&#x442;" horiz-adv-x="530" 
d="M510 550v-160h-160v-390h-170v390h-160v160h330h160z" />
    <glyph glyph-name="uni0443" unicode="&#x443;" horiz-adv-x="636" 
d="M435 550h181l-351 -800h-181l143 326l-207 474h181l116 -287z" />
    <glyph glyph-name="uni0444" unicode="&#x444;" horiz-adv-x="1058" 
d="M771 563c69.333 0 127.835 -27 175.502 -81s71.5 -123 71.5 -207s-23.667 -153 -71 -207s-106.333 -81 -177 -81c-64 0 -116 24 -156 72v-289h-170v289c-40 -48 -92 -72 -156 -72c-70.667 0 -129.667 27 -177 81s-71 123 -71 207s23.833 153 71.5 207
s106.167 81 175.5 81c65.333 0 117.666 -24.667 156.999 -74v281h170v-281c39.333 49.333 91.666 74 156.999 74zM328.002 149c33.333 0 61 11.5 83 34.5s33 53.5 33 91.5c0 37.333 -11 67.666 -33 90.999s-49.667 35 -83 35s-61 -11.667 -83 -35s-33 -53.666 -33 -90.999
c0 -38 11 -68.5 33 -91.5s49.667 -34.5 83 -34.5zM730.002 149c33.333 0 61 11.5 83 34.5s33 53.5 33 91.5c0 37.333 -11 67.666 -33 90.999s-49.667 35 -83 35s-61 -11.667 -83 -35s-33 -53.666 -33 -90.999c0 -38 11 -68.5 33 -91.5s49.667 -34.5 83 -34.5z" />
    <glyph glyph-name="uni0445" unicode="&#x445;" horiz-adv-x="629" 
d="M609 0h-202l-95 151l-88 -151h-204l191 284l-181 266h202l86 -139l79 139h204l-182 -271z" />
    <glyph glyph-name="uni0446" unicode="&#x446;" horiz-adv-x="687" 
d="M567 160h100v-295h-170v135h-277h-170v550h170v-390h177v390h170v-390z" />
    <glyph glyph-name="uni0447" unicode="&#x447;" horiz-adv-x="601" 
d="M381 550l169.999 -0.000976562v-550h-170v166c-34.667 -12.667 -72 -19 -112 -19c-30 0 -57.5 3.16699 -82.5 9.5s-48.5 16.5 -70.5 30.5s-39.333 34.333 -52 61s-19 58.667 -19 96v206h170v-161c0 -33.333 5.83301 -56.666 17.5 -69.999s35.5 -20 71.5 -20
c32.667 0 58.334 5.33301 77.001 16v235z" />
    <glyph glyph-name="uni0448" unicode="&#x448;" horiz-adv-x="872" 
d="M652 550h170v-550h-170h-301h-212h-89v550h170v-390h131v390h170v-390h131v390z" />
    <glyph glyph-name="uni0449" unicode="&#x449;" horiz-adv-x="942" 
d="M822 160h100v-295h-170v135h-231h-301h-170v550h170v-390h131v390h170v-390h131v390h170v-390z" />
    <glyph glyph-name="uni044A" unicode="&#x44a;" horiz-adv-x="676" 
d="M433 398c25.333 0 49 -2.99707 71 -8.99707s43.5 -15.833 64.5 -29.5s37.5 -33.834 49.5 -60.501s18 -58.334 18 -95.001s-6.33301 -68.834 -19 -96.501s-29.667 -49 -51 -64s-43.5 -26 -66.5 -33s-46.833 -10.5 -71.5 -10.5h-287l-1 390h-120v160h290v-152h123z
M422 162.003c28 0 42 14 42 42c0 30 -14 45 -42 45h-111v-87h111z" />
    <glyph glyph-name="uni044B" unicode="&#x44b;" horiz-adv-x="833" 
d="M342 398c25.333 0 49 -2.99707 71 -8.99707s43.5 -15.833 64.5 -29.5s37.5 -33.834 49.5 -60.501s18 -58.334 18 -95.001s-6.33301 -68.834 -19 -96.501s-29.667 -49 -51 -64s-43.5 -26 -66.5 -33s-46.833 -10.5 -71.5 -10.5h-287v550h170v-152h122zM613 550.003h170
v-550h-170v550zM331 162.003c28 0 42 14 42 42c0 30 -14 45 -42 45h-111v-87h111z" />
    <glyph glyph-name="uni044C" unicode="&#x44c;" horiz-adv-x="587" 
d="M344 398c25.333 0 49 -2.99707 71 -8.99707s43.5 -15.833 64.5 -29.5s37.5 -33.834 49.5 -60.501s18 -58.334 18 -95.001s-6.33301 -68.834 -19 -96.501s-29.667 -49 -51 -64s-43.5 -26 -66.5 -33s-46.833 -10.5 -71.5 -10.5h-288l-1 550h170v-152h124zM333 162.003
c28 0 42 14 42 42c0 30 -14 45 -42 45h-112v-87h112z" />
    <glyph glyph-name="uni044D" unicode="&#x44d;" horiz-adv-x="639" 
d="M311 563c84 0 153 -27.5 207 -82.5s81 -123.5 81 -205.5c0 -82.667 -26.833 -151.334 -80.5 -206.001s-122.5 -82 -206.5 -82c-71.333 0 -134 20.333 -188 61s-85.333 97.334 -94 170.001h175c6 -27.333 19 -47.333 39 -60s42.667 -19 68 -19
c53.333 0 88.333 24.333 105 73h-141v131h140c-18 45.333 -53 68 -105 68c-26.667 0 -49.5 -6.5 -68.5 -19.5s-31.5 -32.5 -37.5 -58.5h-175c8 71.333 38.667 127.5 92 168.5s116.333 61.5 189 61.5z" />
    <glyph glyph-name="uni044E" unicode="&#x44e;" horiz-adv-x="910" 
d="M582 563c80 0 147.999 -27.499 203.999 -82.499s84 -123.5 84 -205.5c0 -82.667 -27.667 -151.334 -83 -206.001s-123.666 -82 -204.999 -82c-66 0 -124.333 19 -175 57s-84.667 88 -102 150h-85v-194h-170v550h170v-196h84c17.333 62 51.5 112.333 102.5 151
s109.5 58 175.5 58zM581.999 149.001c33.333 0 61 11.5 83 34.5s33 53.5 33 91.5c0 37.333 -11 67.666 -33 90.999s-49.667 35 -83 35s-61 -11.667 -83 -35s-33 -53.666 -33 -90.999c0 -38 11 -68.5 33 -91.5s49.667 -34.5 83 -34.5z" />
    <glyph glyph-name="uni044F" unicode="&#x44f;" horiz-adv-x="602" 
d="M260 550l292 -0.00195312v-550h-170v181h-41l-113 -181h-208l143 200c-74 26.667 -111 79.334 -111 158.001c0 34.667 6.33301 65.167 19 91.5s29.667 46.333 51 60s43.5 23.834 66.5 30.501s46.833 10 71.5 10zM271 397.998c-31.333 0 -47 -12.333 -47 -37
c0 -27.333 15.667 -41 47 -41h111v78h-111z" />
    <glyph glyph-name="uni0451" unicode="&#x451;" horiz-adv-x="646" 
d="M211 624c-26.667 0 -48.8359 8.33301 -66.5029 25s-26.5 38 -26.5 64c0 25.333 8.83301 46.333 26.5 63s39.834 25 66.501 25s48.834 -8.33301 66.501 -25s26.5 -37.667 26.5 -63c0 -26 -8.66699 -47.333 -26 -64s-39.666 -25 -66.999 -25zM437.998 624
c-26.667 0 -48.834 8.33301 -66.501 25s-26.5 38 -26.5 64c0 25.333 8.83301 46.333 26.5 63s39.834 25 66.501 25c27.333 0 49.833 -8.33301 67.5 -25s26.5 -37.667 26.5 -63c0 -26 -8.83301 -47.333 -26.5 -64s-40.167 -25 -67.5 -25zM329.998 563
c90 0 162.002 -31.1689 216.002 -93.502s76.667 -139.166 68 -230.499h-401c4 -40 17.167 -70.167 39.5 -90.5s49.5 -30.5 81.5 -30.5c23.333 0 43.666 5.5 60.999 16.5s29.333 26.167 36 45.5h175c-18 -64.667 -51.833 -113 -101.5 -145s-106.5 -48 -170.5 -48
c-86.667 0 -157.334 27.333 -212.001 82s-82 123.334 -82 206.001c0 82 27.167 150.5 81.5 205.5s123.833 82.5 208.5 82.5zM329 431.998c-58 0 -95.001 -29.999 -111.001 -89.999h219c-6 27.333 -18.167 49.166 -36.5 65.499s-42.166 24.5 -71.499 24.5z" />
    <glyph glyph-name="uni0454" unicode="&#x454;" horiz-adv-x="636" 
d="M328 139c24.667 0 46.5 6.50098 65.5 19.501s31.5 32.833 37.5 59.5h175c-8.66699 -72.667 -39.5 -129.334 -92.5 -170.001s-114.833 -61 -185.5 -61c-83.333 0 -152.166 27.5 -206.499 82.5s-81.5 123.5 -81.5 205.5s27.167 150.5 81.5 205.5s123.5 82.5 207.5 82.5
c71.333 0 133.333 -20.5 186 -61.5s83 -97.167 91 -168.5h-175c-11.333 52 -45.333 78 -102 78c-51.333 0 -86.333 -22.667 -105 -68h139v-131h-141c19.333 -48.667 54.666 -73 105.999 -73z" />
    <glyph glyph-name="uni0456" unicode="&#x456;" horiz-adv-x="270" 
d="M135 810c30 0 54.667 -9.16699 74 -27.5s29 -41.5 29 -69.5c0 -28.667 -9.66699 -52.167 -29 -70.5s-44 -27.5 -74 -27.5c-29.333 0 -53.833 9.33301 -73.5 28s-29.5 42 -29.5 70s9.83301 51.167 29.5 69.5s44.167 27.5 73.5 27.5zM50 0v550h170v-550h-170z" />
    <glyph glyph-name="uni0457" unicode="&#x457;" horiz-adv-x="270" 
d="M21 801c26.667 0 48.832 -8.33301 66.499 -25s26.5 -37.667 26.5 -63c0 -26 -8.66699 -47.333 -26 -64s-39.666 -25 -66.999 -25c-26.667 0 -48.834 8.33301 -66.501 25s-26.5 38 -26.5 64c0 25.333 8.83301 46.333 26.5 63s39.834 25 66.501 25zM247.998 801
c27.333 0 49.833 -8.33301 67.5 -25s26.5 -37.667 26.5 -63c0 -26 -8.83301 -47.333 -26.5 -64s-40.167 -25 -67.5 -25c-26.667 0 -48.834 8.33301 -66.501 25s-26.5 38 -26.5 64c0 25.333 8.83301 46.333 26.5 63s39.834 25 66.501 25zM49.998 0v550h170v-550h-170z" />
    <glyph glyph-name="uni045E" unicode="&#x45e;" horiz-adv-x="636" 
d="M318 606c-46.667 0 -86.832 14.667 -120.499 44s-50.5 69 -50.5 119v31h132v-27c0 -12 3.66699 -21.667 11 -29s16.666 -11 27.999 -11s20.5 3.66699 27.5 11s10.5 17 10.5 29v27h132v-31c0 -50 -16.833 -89.667 -50.5 -119s-73.5 -44 -119.5 -44zM435.002 550h181
l-351 -800h-181l143 326l-207 474h181l116 -287z" />
    <glyph glyph-name="uni0490" unicode="&#x490;" horiz-adv-x="549" 
d="M524 770v-232h-284v-538h-170v700h284v70h170z" />
    <glyph glyph-name="uni0491" unicode="&#x491;" horiz-adv-x="451" 
d="M431 624v-234h-211v-390h-170v550h211v74h170z" />
    <glyph glyph-name="Wgrave" unicode="&#x1e80;" horiz-adv-x="1017" 
d="M639 843l-73 -73l-188 134l100 100zM818 700h174l-169 -700h-209l-61 253l-36 247l-17 1l-35 -248l-61 -253h-210l-169 700h175l80 -335l21 -163l21 163l80 335h213l80 -335l22 -167l21 167z" />
    <glyph glyph-name="wgrave" unicode="&#x1e81;" horiz-adv-x="893" 
d="M577 677l-73 -73l-188 134l100 100zM705 550h168l-146 -550h-195l-49 185l-28 198h-17l-28 -198l-49 -185h-195l-146 550h168l44 -173l35 -182l34 182l45 173h201l44 -173l35 -180l34 180z" />
    <glyph glyph-name="Wacute" unicode="&#x1e82;" horiz-adv-x="1017" 
d="M639 904l-188 -134l-73 73l161 161zM818 700h174l-169 -700h-209l-61 253l-36 247l-17 1l-35 -248l-61 -253h-210l-169 700h175l80 -335l21 -163l21 163l80 335h213l80 -335l22 -167l21 167z" />
    <glyph glyph-name="wacute" unicode="&#x1e83;" horiz-adv-x="893" 
d="M577 740l-188 -134l-73 73l161 161zM705 550h168l-146 -550h-195l-49 185l-28 198h-17l-28 -198l-49 -185h-195l-146 550h168l44 -173l35 -182l34 182l45 173h201l44 -173l35 -180l34 180z" />
    <glyph glyph-name="Wdieresis" unicode="&#x1e84;" horiz-adv-x="1017" 
d="M395 790c-26.667 0 -48.8359 8.33301 -66.5029 25s-26.5 38 -26.5 64c0 25.333 8.83301 46.333 26.5 63s39.834 25 66.501 25s48.834 -8.33301 66.501 -25s26.5 -37.667 26.5 -63c0 -26 -8.66699 -47.333 -26 -64s-39.666 -25 -66.999 -25zM621.998 790
c-26.667 0 -48.834 8.33301 -66.501 25s-26.5 38 -26.5 64c0 25.333 8.83301 46.333 26.5 63s39.834 25 66.501 25c27.333 0 49.833 -8.33301 67.5 -25s26.5 -37.667 26.5 -63c0 -26 -8.83301 -47.333 -26.5 -64s-40.167 -25 -67.5 -25zM817.998 700h174l-169 -700h-209
l-61 253l-36 247l-17 1l-35 -248l-61 -253h-210l-169 700h175l80 -335l21 -163l21 163l80 335h213l80 -335l22 -167l21 167z" />
    <glyph glyph-name="wdieresis" unicode="&#x1e85;" horiz-adv-x="893" 
d="M333 624c-26.667 0 -48.8359 8.33301 -66.5029 25s-26.5 38 -26.5 64c0 25.333 8.83301 46.333 26.5 63s39.834 25 66.501 25s48.834 -8.33301 66.501 -25s26.5 -37.667 26.5 -63c0 -26 -8.66699 -47.333 -26 -64s-39.666 -25 -66.999 -25zM559.998 624
c-26.667 0 -48.834 8.33301 -66.501 25s-26.5 38 -26.5 64c0 25.333 8.83301 46.333 26.5 63s39.834 25 66.501 25c27.333 0 49.833 -8.33301 67.5 -25s26.5 -37.667 26.5 -63c0 -26 -8.83301 -47.333 -26.5 -64s-40.167 -25 -67.5 -25zM704.998 550h168l-146 -550h-195
l-49 185l-28 198h-17l-28 -198l-49 -185h-195l-146 550h168l44 -173l35 -182l34 182l45 173h201l44 -173l35 -180l34 180z" />
    <glyph glyph-name="Ygrave" unicode="&#x1ef2;" horiz-adv-x="705" 
d="M483 843l-73 -73l-188 134l100 100zM680 700l-242 -476v-224h-170v222l-243 478h191l137 -285l137 285h190z" />
    <glyph glyph-name="ygrave" unicode="&#x1ef3;" horiz-adv-x="636" 
d="M448 677l-73 -73l-188 134l100 100zM435 550h181l-351 -800h-181l143 326l-207 474h181l116 -287z" />
    <glyph glyph-name="uni2009" unicode="&#x2009;" horiz-adv-x="150" 
 />
    <glyph glyph-name="endash" unicode="&#x2013;" horiz-adv-x="654" 
d="M584 376v-162h-514v162h514z" />
    <glyph glyph-name="emdash" unicode="&#x2014;" horiz-adv-x="730" 
d="M660 376v-162h-590v162h590z" />
    <glyph glyph-name="quoteleft" unicode="&#x2018;" horiz-adv-x="368" 
d="M217 533c39.333 -14 58.999 -43.334 58.999 -88.001c0 -29.333 -9.66699 -53.333 -29 -72s-43.666 -28 -72.999 -28c-26.667 0 -50.667 8.16699 -72 24.5s-32 43.833 -32 82.5s40 121.334 120 248.001h108z" />
    <glyph glyph-name="quoteright" unicode="&#x2019;" horiz-adv-x="368" 
d="M194 713c26.667 0 50.668 -8.16602 72.001 -24.499s32 -43.833 32 -82.5s-40 -121.334 -120 -248.001h-108l81 167c-39.333 14 -59 43.333 -59 88c0 29.333 9.66699 53.333 29 72s43.666 28 72.999 28z" />
    <glyph glyph-name="quotesinglbase" unicode="&#x201a;" horiz-adv-x="368" 
d="M194 183c26.667 0 50.668 -8.16602 72.001 -24.499s32 -43.833 32 -82.5s-40 -121.334 -120 -248.001h-108l81 167c-39.333 14 -59 43.333 -59 88c0 29.333 9.66699 53.333 29 72s43.666 28 72.999 28z" />
    <glyph glyph-name="quotedblleft" unicode="&#x201c;" horiz-adv-x="613" 
d="M190 700l107.999 -0.000976562l-81 -167c39.333 -14 59 -43.333 59 -88c0 -29.333 -9.66699 -53.333 -29 -72s-43.666 -28 -72.999 -28c-26.667 0 -50.667 8.16699 -72 24.5s-32 43.833 -32 82.5s40 121.334 120 248.001zM461.999 532.999
c39.333 -14 58.999 -43.334 58.999 -88.001c0 -29.333 -9.66699 -53.333 -29 -72s-43.666 -28 -72.999 -28c-26.667 0 -50.667 8.16699 -72 24.5s-32 43.833 -32 82.5s40 121.334 120 248.001h108z" />
    <glyph glyph-name="quotedblright" unicode="&#x201d;" horiz-adv-x="613" 
d="M194 713c26.667 0 50.668 -8.16602 72.001 -24.499s32 -43.833 32 -82.5s-40 -121.334 -120 -248.001h-108l81 167c-39.333 14 -59 43.333 -59 88c0 29.333 9.66699 53.333 29 72s43.666 28 72.999 28zM439.001 713.001c26.667 0 50.668 -8.16602 72.001 -24.499
s32 -43.833 32 -82.5s-40 -121.334 -120 -248.001h-108l81 167c-39.333 14 -59 43.333 -59 88c0 29.333 9.66699 53.333 29 72s43.666 28 72.999 28z" />
    <glyph glyph-name="quotedblbase" unicode="&#x201e;" horiz-adv-x="613" 
d="M194 183c26.667 0 50.668 -8.16602 72.001 -24.499s32 -43.833 32 -82.5s-40 -121.334 -120 -248.001h-108l81 167c-39.333 14 -59 43.333 -59 88c0 29.333 9.66699 53.333 29 72s43.666 28 72.999 28zM439.001 183.001c26.667 0 50.668 -8.16602 72.001 -24.499
s32 -43.833 32 -82.5s-40 -121.334 -120 -248.001h-108l81 167c-39.333 14 -59 43.333 -59 88c0 29.333 9.66699 53.333 29 72s43.666 28 72.999 28z" />
    <glyph glyph-name="dagger" unicode="&#x2020;" horiz-adv-x="570" 
d="M370 700v-193h130v-162h-130v-446h-170v446h-130v162h130v193h170z" />
    <glyph glyph-name="daggerdbl" unicode="&#x2021;" horiz-adv-x="570" 
d="M370 700v-145h130v-162h-130v-119h130v-162h-130v-213h-170v213h-130v162h130v119h-130v162h130v145h170z" />
    <glyph glyph-name="bullet" unicode="&#x2022;" horiz-adv-x="484" 
d="M242 458c47.333 0 87.833 -16.833 121.5 -50.5s50.5 -74.167 50.5 -121.5s-16.833 -87.833 -50.5 -121.5s-74.167 -50.5 -121.5 -50.5s-87.833 16.833 -121.5 50.5s-50.5 74.167 -50.5 121.5s16.833 87.833 50.5 121.5s74.167 50.5 121.5 50.5z" />
    <glyph glyph-name="ellipsis" unicode="&#x2026;" horiz-adv-x="908" 
d="M173 183c29.333 0 53.833 -9.16699 73.5 -27.5s29.5 -41.833 29.5 -70.5s-9.83301 -52.167 -29.5 -70.5s-44.167 -27.5 -73.5 -27.5s-53.833 9.16699 -73.5 27.5s-29.5 41.833 -29.5 70.5s9.83301 52.167 29.5 70.5s44.167 27.5 73.5 27.5zM454 183
c29.333 0 53.833 -9.16699 73.5 -27.5s29.5 -41.833 29.5 -70.5s-9.83301 -52.167 -29.5 -70.5s-44.167 -27.5 -73.5 -27.5s-53.833 9.16699 -73.5 27.5s-29.5 41.833 -29.5 70.5s9.83301 52.167 29.5 70.5s44.167 27.5 73.5 27.5zM735 183
c29.333 0 53.833 -9.16699 73.5 -27.5s29.5 -41.833 29.5 -70.5s-9.83301 -52.167 -29.5 -70.5s-44.167 -27.5 -73.5 -27.5s-53.833 9.16699 -73.5 27.5s-29.5 41.833 -29.5 70.5s9.83301 52.167 29.5 70.5s44.167 27.5 73.5 27.5z" />
    <glyph glyph-name="perthousand" unicode="&#x2030;" horiz-adv-x="1568" 
d="M271 291c-60.667 0 -109.334 18.833 -146.001 56.5s-55 89.167 -55 154.5s18.333 116.833 55 154.5s85.334 56.5 146.001 56.5s109.334 -18.833 146.001 -56.5s55 -89.167 55 -154.5s-18.333 -116.833 -55 -154.5s-85.334 -56.5 -146.001 -56.5zM841 700l-400 -700h-160
l400 700h160zM271 422c20 0 34 6.5 42 19.5s12 33.167 12 60.5s-4 47.5 -12 60.5s-22 19.5 -42 19.5s-34 -6.5 -42 -19.5s-12 -33.167 -12 -60.5s4 -47.5 12 -60.5s22 -19.5 42 -19.5zM851 409c60.667 0 109.334 -18.833 146.001 -56.5s55 -89.167 55 -154.5
s-18.333 -116.833 -55 -154.5s-85.334 -56.5 -146.001 -56.5s-109.334 18.833 -146.001 56.5s-55 89.167 -55 154.5s18.333 116.833 55 154.5s85.334 56.5 146.001 56.5zM1297 409c60.667 0 109.334 -18.833 146.001 -56.5s55 -89.167 55 -154.5
s-18.333 -116.833 -55 -154.5s-85.334 -56.5 -146.001 -56.5s-109.334 18.833 -146.001 56.5s-55 89.167 -55 154.5s18.333 116.833 55 154.5s85.334 56.5 146.001 56.5zM851 278c-20 0 -34 -6.5 -42 -19.5s-12 -33.167 -12 -60.5s4 -47.5 12 -60.5s22 -19.5 42 -19.5
s34 6.5 42 19.5s12 33.167 12 60.5s-4 47.5 -12 60.5s-22 19.5 -42 19.5zM1297 278c-20 0 -34 -6.5 -42 -19.5s-12 -33.167 -12 -60.5s4 -47.5 12 -60.5s22 -19.5 42 -19.5s34 6.5 42 19.5s12 33.167 12 60.5s-4 47.5 -12 60.5s-22 19.5 -42 19.5z" />
    <glyph glyph-name="guilsinglleft" unicode="&#x2039;" horiz-adv-x="504" 
d="M318 31l-248 248l248 248l116 -117l-132 -131l132 -131z" />
    <glyph glyph-name="guilsinglright" unicode="&#x203a;" horiz-adv-x="504" 
d="M186 31l-116 117l132 131l-132 131l116 117l248 -248z" />
    <glyph glyph-name="fraction" unicode="&#x2044;" horiz-adv-x="280" 
d="M-140 0l400 700h160l-400 -700h-160z" />
    <glyph glyph-name="uni2070" unicode="&#x2070;" horiz-adv-x="462" 
d="M231 361c-60.667 0 -109.334 18.833 -146.001 56.5s-55 89.167 -55 154.5s18.333 116.833 55 154.5s85.334 56.5 146.001 56.5s109.334 -18.833 146.001 -56.5s55 -89.167 55 -154.5s-18.333 -116.833 -55 -154.5s-85.334 -56.5 -146.001 -56.5zM231 492
c20 0 34 6.5 42 19.5s12 33.167 12 60.5s-4 47.5 -12 60.5s-22 19.5 -42 19.5s-34 -6.5 -42 -19.5s-12 -33.167 -12 -60.5s4 -47.5 12 -60.5s22 -19.5 42 -19.5z" />
    <glyph glyph-name="uni2074" unicode="&#x2074;" horiz-adv-x="463" 
d="M433 557v-115h-69v-68h-145v68h-189v115l158 213h176v-213h69zM143 557h76v106z" />
    <glyph glyph-name="uni2075" unicode="&#x2075;" horiz-adv-x="424" 
d="M246 636c46.667 0 82.999 -11.999 108.999 -35.999s39 -55.333 39 -94c0 -40.667 -14.5 -75 -43.5 -103s-73.167 -42 -132.5 -42c-60 0 -104.833 13.667 -134.5 41s-47.5 58.666 -53.5 93.999h147c5.33301 -20 17.333 -30 36 -30c24.667 0 37 13.667 37 41
c0 26.667 -12.667 40 -38 40c-13.333 0 -24 -6 -32 -18h-136l51 241h271v-110h-185l-9 -43c20.667 12.667 45.334 19 74.001 19z" />
    <glyph glyph-name="uni2076" unicode="&#x2076;" horiz-adv-x="416" 
d="M250 632c42.667 0 76 -13 100 -39s36 -56 36 -90c0 -37.333 -15 -70.333 -45 -99s-73.333 -43 -130 -43c-59.333 0 -104.333 15.667 -135 47s-46 68.333 -46 111c0 36 12 72.333 36 109s64 84 120 142h153l-138 -143c20 3.33301 36.333 5 49 5zM208 472
c22.667 0 34 11.333 34 34s-11.333 34 -34 34s-34 -11.333 -34 -34s11.333 -34 34 -34z" />
    <glyph glyph-name="uni2077" unicode="&#x2077;" horiz-adv-x="377" 
d="M30 770h317v-89l-152 -307h-134l141 281h-172v115z" />
    <glyph glyph-name="uni2078" unicode="&#x2078;" horiz-adv-x="434" 
d="M339 582c43.333 -20.667 64.998 -53.334 64.998 -98.001c0 -36 -15.5 -65.5 -46.5 -88.5s-77.833 -34.5 -140.5 -34.5s-109.5 11.5 -140.5 34.5s-46.5 52.5 -46.5 88.5c0 44.667 21.667 77.334 65 98.001c-36.667 18 -55 46 -55 84c0 34 14.833 62 44.5 84
s73.834 33 132.501 33s102.834 -11 132.501 -33s44.5 -50 44.5 -84c0 -38 -18.333 -66 -55 -84zM216.998 678c-20 0 -30 -10 -30 -30c0 -19.333 10 -29 30 -29s30 9.66699 30 29c0 20 -10 30 -30 30zM216.998 466c26.667 0 40 10.333 40 31c0 21.333 -13.333 32 -40 32
s-40 -10.667 -40 -32c0 -20.667 13.333 -31 40 -31z" />
    <glyph glyph-name="uni2079" unicode="&#x2079;" horiz-adv-x="416" 
d="M205 783c59.333 0 104.333 -15.667 135 -47s46 -68.333 46 -111c0 -36 -12 -72.333 -36 -109s-64 -84 -120 -142h-153l138 143c-20 -3.33301 -36.333 -5 -49 -5c-42.667 0 -76 13 -100 39s-36 56 -36 90c0 37.333 15 70.333 45 99s73.333 43 130 43zM174 638
c0 -22.667 11.333 -34 34 -34s34 11.333 34 34s-11.333 34 -34 34s-34 -11.333 -34 -34z" />
    <glyph glyph-name="Euro" unicode="&#x20ac;" horiz-adv-x="875" 
d="M499 149c36.667 0 68.834 8.66699 96.501 26s48.5 41.333 62.5 72h182c-19.333 -77.333 -59.833 -140 -121.5 -188s-134.834 -72 -219.501 -72c-77.333 0 -145.833 19.833 -205.5 59.5s-102.834 92.5 -129.501 158.5h-119v126h91v19v16h-91v126h118
c26.667 67.333 69.834 121 129.501 161s128.5 60 206.5 60c84.667 0 157.834 -24 219.501 -72s102.167 -110.667 121.5 -188h-182c-14 30.667 -34.833 54.667 -62.5 72s-59.834 26 -96.501 26c-58.667 0 -105.667 -19.667 -141 -59h196v-126h-246v-16
c0 -8.66699 0.333008 -15 1 -19h245v-126h-193c35.333 -37.333 81.333 -56 138 -56z" />
    <glyph glyph-name="uni2116" unicode="&#x2116;" horiz-adv-x="1216" 
d="M948 323c-56 0 -102.999 18.499 -140.999 55.499s-57 83.5 -57 139.5s19 102.5 57 139.5s85 55.5 141 55.5c55.333 0 102.166 -18.667 140.499 -56s57.5 -83.666 57.5 -138.999c0 -56 -19 -102.5 -57 -139.5s-85 -55.5 -141 -55.5zM512.001 406.999v293h170v-700h-193
l-263 441l14 -148v-293h-170v700h193l262 -441zM948.001 573.999c-16.667 0 -30.167 -5.33105 -40.5 -15.998s-15.5 -24 -15.5 -40c0 -16.667 5.16699 -30.334 15.5 -41.001s23.833 -16 40.5 -16s30 5.16699 40 15.5s15 24.166 15 41.499c0 16 -5.16699 29.333 -15.5 40
s-23.5 16 -39.5 16zM763.001 161.001v126h370v-126h-370zM763.001 0.000976562v126h370v-126h-370z" />
    <glyph glyph-name="trademark" unicode="&#x2122;" horiz-adv-x="843" 
d="M70 680v90h284v-90h-94v-216h-97v216h-93zM665 770h108v-306h-97v175l-85 -115h-6l-85 115v-175h-97v306h108l77 -105z" />
    <glyph glyph-name="oneeighth" unicode="&#x215b;" horiz-adv-x="1054" 
d="M280 304h-145v250l-105 -32v129l173 49h77v-396zM600 700h160l-400 -700h-160zM959 208c43.333 -20.667 64.998 -53.334 64.998 -98.001c0 -36 -15.5 -65.5 -46.5 -88.5s-77.833 -34.5 -140.5 -34.5s-109.5 11.5 -140.5 34.5s-46.5 52.5 -46.5 88.5
c0 44.667 21.667 77.334 65 98.001c-36.667 18 -55 46 -55 84c0 34 14.833 62 44.5 84s73.834 33 132.501 33s102.834 -11 132.501 -33s44.5 -50 44.5 -84c0 -38 -18.333 -66 -55 -84zM836.998 304c-20 0 -30 -10 -30 -30c0 -19.333 10 -29 30 -29s30 9.66699 30 29
c0 20 -10 30 -30 30zM836.998 92c26.667 0 40 10.333 40 31c0 21.333 -13.333 32 -40 32s-40 -10.667 -40 -32c0 -20.667 13.333 -31 40 -31z" />
    <glyph glyph-name="threeeighths" unicode="&#x215c;" horiz-adv-x="1144" 
d="M400 421c0 -34.667 -14.6699 -65 -44.0029 -91s-74 -39 -134 -39c-62 0 -109.167 13.667 -141.5 41s-49.166 61 -50.499 101h147c2.66699 -14 6.83398 -23.667 12.501 -29s14.5 -8 26.5 -8c24.667 0 37 10.333 37 31c0 21.333 -10.667 32 -32 32h-44v90h44
c14.667 0 22 10.667 22 32c0 18 -9.66699 27 -29 27s-30 -12.333 -32 -37h-147c1.33301 40.667 17.833 74.5 49.5 101.5s75.5 40.5 131.5 40.5c56.667 0 99.834 -13.167 129.501 -39.5s44.5 -56.5 44.5 -90.5c0 -32 -14.667 -56 -44 -72c36 -21.333 54 -51.333 54 -90z
M689.997 700h160l-400 -700h-160zM1049 208c43.333 -20.667 64.998 -53.334 64.998 -98.001c0 -36 -15.5 -65.5 -46.5 -88.5s-77.833 -34.5 -140.5 -34.5s-109.5 11.5 -140.5 34.5s-46.5 52.5 -46.5 88.5c0 44.667 21.667 77.334 65 98.001c-36.667 18 -55 46 -55 84
c0 34 14.833 62 44.5 84s73.834 33 132.501 33s102.834 -11 132.501 -33s44.5 -50 44.5 -84c0 -38 -18.333 -66 -55 -84zM926.995 304c-20 0 -30 -10 -30 -30c0 -19.333 10 -29 30 -29s30 9.66699 30 29c0 20 -10 30 -30 30zM926.995 92c26.667 0 40 10.333 40 31
c0 21.333 -13.333 32 -40 32s-40 -10.667 -40 -32c0 -20.667 13.333 -31 40 -31z" />
    <glyph glyph-name="fiveeighths" unicode="&#x215d;" horiz-adv-x="1138" 
d="M394 436c0 -40.667 -14.501 -74.999 -43.501 -102.999s-73.167 -42 -132.5 -42c-60 0 -104.833 13.667 -134.5 41s-47.5 58.666 -53.5 93.999h147c5.33301 -20 17.333 -30 36 -30c24.667 0 37 13.667 37 41c0 26.667 -12.667 40 -38 40c-13.333 0 -24 -6 -32 -18h-136
l51 241h271v-110h-185l-9 -43c20.667 12.667 45.334 19 74.001 19c46.667 0 83 -12 109 -36s39 -55.333 39 -94zM683.999 700.001h160l-400 -700h-160zM1043 208.001c43.333 -20.667 64.998 -53.334 64.998 -98.001c0 -36 -15.5 -65.5 -46.5 -88.5
s-77.833 -34.5 -140.5 -34.5s-109.5 11.5 -140.5 34.5s-46.5 52.5 -46.5 88.5c0 44.667 21.667 77.334 65 98.001c-36.667 18 -55 46 -55 84c0 34 14.833 62 44.5 84s73.834 33 132.501 33s102.834 -11 132.501 -33s44.5 -50 44.5 -84c0 -38 -18.333 -66 -55 -84z
M920.997 304.001c-20 0 -30 -10 -30 -30c0 -19.333 10 -29 30 -29s30 9.66699 30 29c0 20 -10 30 -30 30zM920.997 92.001c26.667 0 40 10.333 40 31c0 21.333 -13.333 32 -40 32s-40 -10.667 -40 -32c0 -20.667 13.333 -31 40 -31z" />
    <glyph glyph-name="seveneighths" unicode="&#x215e;" horiz-adv-x="1031" 
d="M195 304h-134l141 281h-172v115h317v-89zM577 700h160l-400 -700h-160zM936 208c43.333 -20.667 64.998 -53.334 64.998 -98.001c0 -36 -15.5 -65.5 -46.5 -88.5s-77.833 -34.5 -140.5 -34.5s-109.5 11.5 -140.5 34.5s-46.5 52.5 -46.5 88.5
c0 44.667 21.667 77.334 65 98.001c-36.667 18 -55 46 -55 84c0 34 14.833 62 44.5 84s73.834 33 132.501 33s102.834 -11 132.501 -33s44.5 -50 44.5 -84c0 -38 -18.333 -66 -55 -84zM813.998 304c-20 0 -30 -10 -30 -30c0 -19.333 10 -29 30 -29s30 9.66699 30 29
c0 20 -10 30 -30 30zM813.998 92c26.667 0 40 10.333 40 31c0 21.333 -13.333 32 -40 32s-40 -10.667 -40 -32c0 -20.667 13.333 -31 40 -31z" />
    <glyph glyph-name="arrowleft" unicode="&#x2190;" horiz-adv-x="853" 
d="M411 3l-341 341l341 342l120 -120l-146 -137h398v-170h-397l144 -136z" />
    <glyph glyph-name="arrowup" unicode="&#x2191;" horiz-adv-x="823" 
d="M326 0v397l-136 -144l-120 119l341 341l342 -341l-120 -120l-137 146v-398h-170z" />
    <glyph glyph-name="arrowright" unicode="&#x2192;" horiz-adv-x="853" 
d="M442 -15l-120 120l146 137h-398v170h397l-144 136l119 120l341 -341z" />
    <glyph glyph-name="arrowdown" unicode="&#x2193;" horiz-adv-x="823" 
d="M412 -13l-342 341l120 120l137 -146v398h170v-397l136 144l120 -119z" />
    <glyph glyph-name="arrowboth" unicode="&#x2194;" horiz-adv-x="1243" 
d="M832 3l-119 120l144 136h-471l144 -136l-119 -120l-341 341l341 342l120 -120l-146 -137h473l-146 137l120 120l341 -342z" />
    <glyph glyph-name="arrowupdn" unicode="&#x2195;" horiz-adv-x="823" 
d="M412 -207l-342 341l120 120l137 -146v473l-137 -146l-120 120l342 341l341 -341l-120 -119l-136 144v-471l136 144l120 -119z" />
    <glyph glyph-name="uni2196" unicode="&#x2196;" horiz-adv-x="704" 
d="M514 44l-281 281l6 -198l-169 -1v482l483 1v-170l-200 7l281 -282z" />
    <glyph glyph-name="uni2197" unicode="&#x2197;" horiz-adv-x="705" 
d="M190 15l-120 120l281 281l-198 -6l-1 169h482l1 -483h-170l7 200z" />
    <glyph glyph-name="uni2198" unicode="&#x2198;" horiz-adv-x="704" 
d="M151 74v170l200 -7l-281 282l120 120l281 -281l-6 198l169 1v-482z" />
    <glyph glyph-name="uni2199" unicode="&#x2199;" horiz-adv-x="705" 
d="M71 62l-1 483h170l-6 -200l281 281l120 -120l-281 -281l198 6l1 -169h-482z" />
    <glyph glyph-name="partialdiff" unicode="&#x2202;" horiz-adv-x="691" 
d="M409 713c38.667 0 71.666 -4.50098 98.999 -13.501s48.833 -23 64.5 -42s27.5 -40 35.5 -63s12.167 -52.5 12.5 -88.5s-1.16699 -70.833 -4.5 -104.5s-9 -74.834 -17 -123.501c-15.333 -93.333 -49.166 -165.166 -101.499 -215.499s-120.5 -75.5 -204.5 -75.5
c-77.333 0 -136.333 25.833 -177 77.5s-54.667 117.834 -42 198.501c12 72 41 126 87 162s98.667 54 158 54c58.667 0 103.667 -16 135 -48l3 17c6 40 1.66699 69.333 -13 88s-42 28 -82 28c-45.333 0 -99 -10.333 -161 -31l-29 131c72 32.667 151 49 237 49z
M421.999 251.999c10.667 66 -13.001 99 -71.001 99c-59.333 0 -94.333 -33 -105 -99c-4.66699 -32 -0.833984 -57.167 11.499 -75.5s32.833 -27.5 61.5 -27.5s51.834 9.16699 69.501 27.5s28.834 43.5 33.501 75.5z" />
    <glyph glyph-name="emptyset" unicode="&#x2205;" horiz-adv-x="816" 
d="M746 538l-99 -98.999c32.667 -48.667 49 -103.334 49 -164.001c0 -82.667 -27.667 -151.334 -83 -206.001s-123.666 -82 -204.999 -82c-60.667 0 -115.334 16.333 -164.001 49l-99 -99l-75 75l99 99c-32.667 48.667 -49 103.334 -49 164.001c0 82 28 150.5 84 205.5
s124 82.5 204 82.5c60 0 114.667 -16.333 164 -49l99 99zM292 275.001c0 -14 1.33301 -26.334 4 -37.001l155 155c-14 5.33301 -28.333 8 -43 8c-33.333 0 -61 -11.667 -83 -35s-33 -53.666 -33 -90.999zM524 275c0 14 -1.33301 26.333 -4 37l-155 -155
c14 -5.33301 28.333 -8 43 -8c33.333 0 61 11.5 83 34.5s33 53.5 33 91.5z" />
    <glyph glyph-name="product" unicode="&#x220f;" horiz-adv-x="834" 
d="M764 700v-162h-89v-538h-170v538h-175v-538h-170v538h-90v162h694z" />
    <glyph glyph-name="summation" unicode="&#x2211;" horiz-adv-x="619" 
d="M549 700v-162h-237l182 -175v-26l-182 -175h237v-162h-479v151l207 199l-207 200v150h479z" />
    <glyph glyph-name="minus" unicode="&#x2212;" horiz-adv-x="641" 
d="M571 376v-162h-501v162h501z" />
    <glyph glyph-name="radical" unicode="&#x221a;" horiz-adv-x="818" 
d="M572 700h176l-224 -700h-202l-124 388h-128v162h252l102 -347z" />
    <glyph glyph-name="infinity" unicode="&#x221e;" horiz-adv-x="868" 
d="M604 455c54.667 0 100.667 -18.167 138 -54.5s56 -81.5 56 -135.5c0 -54.667 -18.833 -100.167 -56.5 -136.5s-83.834 -54.5 -138.501 -54.5c-61.333 0 -117.666 27.333 -168.999 82c-51.333 -54.667 -108 -82 -170 -82c-54.667 0 -100.667 18.167 -138 54.5
s-56 81.833 -56 136.5c0 54 18.667 99.167 56 135.5s83.333 54.5 138 54.5c61.333 0 118 -27 170 -81c52 54 108.667 81 170 81zM264 209c19.333 0 35.333 4.66797 48 14.001s25.667 23.666 39 42.999c-13.333 18.667 -26.333 32.5 -39 41.5s-28.667 13.5 -48 13.5
c-16 0 -29.167 -5.33301 -39.5 -16s-15.5 -24 -15.5 -40c0 -16.667 5 -30.167 15 -40.5s23.333 -15.5 40 -15.5zM603 209.001c16.667 0 30.166 5.16699 40.499 15.5s15.5 23.833 15.5 40.5s-5.16699 30.167 -15.5 40.5s-23.5 15.5 -39.5 15.5c-32 0 -61 -18.667 -87 -56
c13.333 -18.667 26.333 -32.667 39 -42s28.334 -14 47.001 -14z" />
    <glyph glyph-name="integral" unicode="&#x222b;" horiz-adv-x="794" 
d="M545 783c56 0 99.833 -16.667 131.5 -50s47.5 -82.666 47.5 -147.999h-114c0 32.667 -16.667 49 -50 49c-34 0 -52.333 -19.667 -55 -59l-45 -615c-5.33301 -74.667 -27.166 -130.5 -65.499 -167.5s-86.833 -55.5 -145.5 -55.5c-56 0 -99.833 16.667 -131.5 50
s-47.5 82.666 -47.5 147.999h114c0 -32.667 16.667 -49 50 -49c34 0 52.333 19.667 55 59l45 615c5.33301 74.667 27.166 130.5 65.499 167.5s86.833 55.5 145.5 55.5z" />
    <glyph glyph-name="approxequal" unicode="&#x2248;" horiz-adv-x="601" 
d="M412 332c-26 0 -65.333 11.333 -118 34c-42.667 18.667 -68 28 -76 28c-10.667 0 -18.167 -3.83301 -22.5 -11.5s-6.5 -21.5 -6.5 -41.5h-119c0 115.333 39.667 173 119 173c26 0 65.333 -11.333 118 -34c42.667 -18.667 68 -28 76 -28
c10.667 0 18.167 3.83301 22.5 11.5s6.5 21.5 6.5 41.5h119c0 -115.333 -39.667 -173 -119 -173zM412 129c-26 0 -65.333 11.333 -118 34c-42.667 18.667 -68 28 -76 28c-10.667 0 -18.167 -3.83301 -22.5 -11.5s-6.5 -21.5 -6.5 -41.5h-119c0 115.333 39.667 173 119 173
c26 0 65.333 -11.333 118 -34c42.667 -18.667 68 -28 76 -28c10.667 0 18.167 3.83301 22.5 11.5s6.5 21.5 6.5 41.5h119c0 -115.333 -39.667 -173 -119 -173z" />
    <glyph glyph-name="notequal" unicode="&#x2260;" horiz-adv-x="641" 
d="M484 603l-31 -119h118v-155h-159l-15 -55h174v-156h-215l-31 -118h-172l31 118h-114v156h155l15 55h-170v155h211l31 119h172z" />
    <glyph glyph-name="lessequal" unicode="&#x2264;" horiz-adv-x="641" 
d="M571 520v-134l-209 -38l209 -37v-135l-501 118v108zM571 151v-128h-501v128h501z" />
    <glyph glyph-name="greaterequal" unicode="&#x2265;" horiz-adv-x="641" 
d="M70 520l501 -118v-108l-501 -118v135l209 37l-209 38v134zM571 151v-128h-501v128h501z" />
    <glyph glyph-name="lozenge" unicode="&#x25ca;" horiz-adv-x="807" 
d="M404 654l333 -334l-333 -333l-334 333zM404 414l-94 -94l94 -93l93 93z" />
    <glyph glyph-name=".null" 
 />
    <glyph glyph-name="nonmarkingreturn" horiz-adv-x="333" 
 />
    <glyph glyph-name="A.001" horiz-adv-x="772" 
d="M567 0l-50 145h-262l-50 -145h-180l254 700h214l254 -700h-180zM311 307h150l-75 218z" />
    <glyph glyph-name="zero.subs" horiz-adv-x="462" 
d="M231 361c-60.667 0 -109.334 18.833 -146.001 56.5s-55 89.167 -55 154.5s18.333 116.833 55 154.5s85.334 56.5 146.001 56.5s109.334 -18.833 146.001 -56.5s55 -89.167 55 -154.5s-18.333 -116.833 -55 -154.5s-85.334 -56.5 -146.001 -56.5zM231 492
c20 0 34 6.5 42 19.5s12 33.167 12 60.5s-4 47.5 -12 60.5s-22 19.5 -42 19.5s-34 -6.5 -42 -19.5s-12 -33.167 -12 -60.5s4 -47.5 12 -60.5s22 -19.5 42 -19.5z" />
    <glyph glyph-name="one.subs" horiz-adv-x="310" 
d="M203 770h77v-396h-145v250l-105 -32v129z" />
    <glyph glyph-name="two.subs" horiz-adv-x="428" 
d="M228 489l170 -0.000976562v-115h-368v104l147 112c26 19.333 42.333 32.833 49 40.5s10 16.167 10 25.5c0 14.667 -8 22 -24 22c-10.667 0 -18.667 -3.16699 -24 -9.5s-8.33301 -17.5 -9 -33.5h-147c2 39.333 18.333 73.833 49 103.5s75.334 44.5 134.001 44.5
c55.333 0 97.166 -13.333 125.499 -40s42.5 -58.334 42.5 -95.001c0 -29.333 -10.5 -55.166 -31.5 -77.499s-53.833 -45.166 -98.5 -68.499z" />
    <glyph glyph-name="three.subs" horiz-adv-x="430" 
d="M346 581c36 -21.333 53.9971 -51.333 53.9971 -90c0 -34.667 -14.667 -65 -44 -91s-74 -39 -134 -39c-62 0 -109.167 13.667 -141.5 41s-49.166 61 -50.499 101h147c2.66699 -14 6.83398 -23.667 12.501 -29s14.5 -8 26.5 -8c24.667 0 37 10.333 37 31
c0 21.333 -10.667 32 -32 32h-44v90h44c14.667 0 22 10.667 22 32c0 18 -9.66699 27 -29 27s-30 -12.333 -32 -37h-147c1.33301 40.667 17.833 74.5 49.5 101.5s75.5 40.5 131.5 40.5c56.667 0 99.834 -13.167 129.501 -39.5s44.5 -56.5 44.5 -90.5
c0 -32 -14.667 -56 -44 -72z" />
    <glyph glyph-name="four.subs" horiz-adv-x="463" 
d="M433 557v-115h-69v-68h-145v68h-189v115l158 213h176v-213h69zM143 557h76v106z" />
    <glyph glyph-name="five.subs" horiz-adv-x="424" 
d="M246 636c46.667 0 82.999 -11.999 108.999 -35.999s39 -55.333 39 -94c0 -40.667 -14.5 -75 -43.5 -103s-73.167 -42 -132.5 -42c-60 0 -104.833 13.667 -134.5 41s-47.5 58.666 -53.5 93.999h147c5.33301 -20 17.333 -30 36 -30c24.667 0 37 13.667 37 41
c0 26.667 -12.667 40 -38 40c-13.333 0 -24 -6 -32 -18h-136l51 241h271v-110h-185l-9 -43c20.667 12.667 45.334 19 74.001 19z" />
    <glyph glyph-name="six.subs" horiz-adv-x="416" 
d="M250 632c42.667 0 76 -13 100 -39s36 -56 36 -90c0 -37.333 -15 -70.333 -45 -99s-73.333 -43 -130 -43c-59.333 0 -104.333 15.667 -135 47s-46 68.333 -46 111c0 36 12 72.333 36 109s64 84 120 142h153l-138 -143c20 3.33301 36.333 5 49 5zM208 472
c22.667 0 34 11.333 34 34s-11.333 34 -34 34s-34 -11.333 -34 -34s11.333 -34 34 -34z" />
    <glyph glyph-name="seven.subs" horiz-adv-x="377" 
d="M30 770h317v-89l-152 -307h-134l141 281h-172v115z" />
    <glyph glyph-name="eight.subs" horiz-adv-x="434" 
d="M339 582c43.333 -20.667 64.998 -53.334 64.998 -98.001c0 -36 -15.5 -65.5 -46.5 -88.5s-77.833 -34.5 -140.5 -34.5s-109.5 11.5 -140.5 34.5s-46.5 52.5 -46.5 88.5c0 44.667 21.667 77.334 65 98.001c-36.667 18 -55 46 -55 84c0 34 14.833 62 44.5 84
s73.834 33 132.501 33s102.834 -11 132.501 -33s44.5 -50 44.5 -84c0 -38 -18.333 -66 -55 -84zM216.998 678c-20 0 -30 -10 -30 -30c0 -19.333 10 -29 30 -29s30 9.66699 30 29c0 20 -10 30 -30 30zM216.998 466c26.667 0 40 10.333 40 31c0 21.333 -13.333 32 -40 32
s-40 -10.667 -40 -32c0 -20.667 13.333 -31 40 -31z" />
    <glyph glyph-name="nine.subs" horiz-adv-x="416" 
d="M205 783c59.333 0 104.333 -15.667 135 -47s46 -68.333 46 -111c0 -36 -12 -72.333 -36 -109s-64 -84 -120 -142h-153l138 143c-20 -3.33301 -36.333 -5 -49 -5c-42.667 0 -76 13 -100 39s-36 56 -36 90c0 37.333 15 70.333 45 99s73.333 43 130 43zM174 638
c0 -22.667 11.333 -34 34 -34s34 11.333 34 34s-11.333 34 -34 34s-34 -11.333 -34 -34z" />
    <glyph glyph-name="zero.dnom" horiz-adv-x="462" 
d="M231 -13c-60.667 0 -109.334 18.833 -146.001 56.5s-55 89.167 -55 154.5s18.333 116.833 55 154.5s85.334 56.5 146.001 56.5s109.334 -18.833 146.001 -56.5s55 -89.167 55 -154.5s-18.333 -116.833 -55 -154.5s-85.334 -56.5 -146.001 -56.5zM231 118
c20 0 34 6.5 42 19.5s12 33.167 12 60.5s-4 47.5 -12 60.5s-22 19.5 -42 19.5s-34 -6.5 -42 -19.5s-12 -33.167 -12 -60.5s4 -47.5 12 -60.5s22 -19.5 42 -19.5z" />
    <glyph glyph-name="one.dnom" horiz-adv-x="310" 
d="M203 396h77v-396h-145v250l-105 -32v129z" />
    <glyph glyph-name="two.dnom" horiz-adv-x="428" 
d="M228 115l170 -0.000976562v-115h-368v104l147 112c26 19.333 42.333 32.833 49 40.5s10 16.167 10 25.5c0 14.667 -8 22 -24 22c-10.667 0 -18.667 -3.16699 -24 -9.5s-8.33301 -17.5 -9 -33.5h-147c2 39.333 18.333 73.833 49 103.5s75.334 44.5 134.001 44.5
c55.333 0 97.166 -13.333 125.499 -40s42.5 -58.334 42.5 -95.001c0 -29.333 -10.5 -55.166 -31.5 -77.499s-53.833 -45.166 -98.5 -68.499z" />
    <glyph glyph-name="three.dnom" horiz-adv-x="430" 
d="M346 207c36 -21.333 53.9971 -51.333 53.9971 -90c0 -34.667 -14.667 -65 -44 -91s-74 -39 -134 -39c-62 0 -109.167 13.667 -141.5 41s-49.166 61 -50.499 101h147c2.66699 -14 6.83398 -23.667 12.501 -29s14.5 -8 26.5 -8c24.667 0 37 10.333 37 31
c0 21.333 -10.667 32 -32 32h-44v90h44c14.667 0 22 10.667 22 32c0 18 -9.66699 27 -29 27s-30 -12.333 -32 -37h-147c1.33301 40.667 17.833 74.5 49.5 101.5s75.5 40.5 131.5 40.5c56.667 0 99.834 -13.167 129.501 -39.5s44.5 -56.5 44.5 -90.5
c0 -32 -14.667 -56 -44 -72z" />
    <glyph glyph-name="four.dnom" horiz-adv-x="463" 
d="M433 183v-115h-69v-68h-145v68h-189v115l158 213h176v-213h69zM143 183h76v106z" />
    <glyph glyph-name="five.dnom" horiz-adv-x="424" 
d="M246 262c46.667 0 82.999 -11.999 108.999 -35.999s39 -55.333 39 -94c0 -40.667 -14.5 -75 -43.5 -103s-73.167 -42 -132.5 -42c-60 0 -104.833 13.667 -134.5 41s-47.5 58.666 -53.5 93.999h147c5.33301 -20 17.333 -30 36 -30c24.667 0 37 13.667 37 41
c0 26.667 -12.667 40 -38 40c-13.333 0 -24 -6 -32 -18h-136l51 241h271v-110h-185l-9 -43c20.667 12.667 45.334 19 74.001 19z" />
    <glyph glyph-name="six.dnom" horiz-adv-x="416" 
d="M250 258c42.667 0 76 -13 100 -39s36 -56 36 -90c0 -37.333 -15 -70.333 -45 -99s-73.333 -43 -130 -43c-59.333 0 -104.333 15.667 -135 47s-46 68.333 -46 111c0 36 12 72.333 36 109s64 84 120 142h153l-138 -143c20 3.33301 36.333 5 49 5zM208 98
c22.667 0 34 11.333 34 34s-11.333 34 -34 34s-34 -11.333 -34 -34s11.333 -34 34 -34z" />
    <glyph glyph-name="seven.dnom" horiz-adv-x="377" 
d="M30 396h317v-89l-152 -307h-134l141 281h-172v115z" />
    <glyph glyph-name="eight.dnom" horiz-adv-x="434" 
d="M339 208c43.333 -20.667 64.998 -53.334 64.998 -98.001c0 -36 -15.5 -65.5 -46.5 -88.5s-77.833 -34.5 -140.5 -34.5s-109.5 11.5 -140.5 34.5s-46.5 52.5 -46.5 88.5c0 44.667 21.667 77.334 65 98.001c-36.667 18 -55 46 -55 84c0 34 14.833 62 44.5 84
s73.834 33 132.501 33s102.834 -11 132.501 -33s44.5 -50 44.5 -84c0 -38 -18.333 -66 -55 -84zM216.998 304c-20 0 -30 -10 -30 -30c0 -19.333 10 -29 30 -29s30 9.66699 30 29c0 20 -10 30 -30 30zM216.998 92c26.667 0 40 10.333 40 31c0 21.333 -13.333 32 -40 32
s-40 -10.667 -40 -32c0 -20.667 13.333 -31 40 -31z" />
    <glyph glyph-name="nine.dnom" horiz-adv-x="416" 
d="M205 409c59.333 0 104.333 -15.667 135 -47s46 -68.333 46 -111c0 -36 -12 -72.333 -36 -109s-64 -84 -120 -142h-153l138 143c-20 -3.33301 -36.333 -5 -49 -5c-42.667 0 -76 13 -100 39s-36 56 -36 90c0 37.333 15 70.333 45 99s73.333 43 130 43zM174 264
c0 -22.667 11.333 -34 34 -34s34 11.333 34 34s-11.333 34 -34 34s-34 -11.333 -34 -34z" />
    <glyph glyph-name="zero.numr" horiz-adv-x="462" 
d="M231 291c-60.667 0 -109.334 18.833 -146.001 56.5s-55 89.167 -55 154.5s18.333 116.833 55 154.5s85.334 56.5 146.001 56.5s109.334 -18.833 146.001 -56.5s55 -89.167 55 -154.5s-18.333 -116.833 -55 -154.5s-85.334 -56.5 -146.001 -56.5zM231 422
c20 0 34 6.5 42 19.5s12 33.167 12 60.5s-4 47.5 -12 60.5s-22 19.5 -42 19.5s-34 -6.5 -42 -19.5s-12 -33.167 -12 -60.5s4 -47.5 12 -60.5s22 -19.5 42 -19.5z" />
    <glyph glyph-name="one.numr" horiz-adv-x="310" 
d="M203 700h77v-396h-145v250l-105 -32v129z" />
    <glyph glyph-name="two.numr" horiz-adv-x="428" 
d="M228 419l170 -0.000976562v-115h-368v104l147 112c26 19.333 42.333 32.833 49 40.5s10 16.167 10 25.5c0 14.667 -8 22 -24 22c-10.667 0 -18.667 -3.16699 -24 -9.5s-8.33301 -17.5 -9 -33.5h-147c2 39.333 18.333 73.833 49 103.5s75.334 44.5 134.001 44.5
c55.333 0 97.166 -13.333 125.499 -40s42.5 -58.334 42.5 -95.001c0 -29.333 -10.5 -55.166 -31.5 -77.499s-53.833 -45.166 -98.5 -68.499z" />
    <glyph glyph-name="three.numr" horiz-adv-x="430" 
d="M346 511c36 -21.333 53.9971 -51.333 53.9971 -90c0 -34.667 -14.667 -65 -44 -91s-74 -39 -134 -39c-62 0 -109.167 13.667 -141.5 41s-49.166 61 -50.499 101h147c2.66699 -14 6.83398 -23.667 12.501 -29s14.5 -8 26.5 -8c24.667 0 37 10.333 37 31
c0 21.333 -10.667 32 -32 32h-44v90h44c14.667 0 22 10.667 22 32c0 18 -9.66699 27 -29 27s-30 -12.333 -32 -37h-147c1.33301 40.667 17.833 74.5 49.5 101.5s75.5 40.5 131.5 40.5c56.667 0 99.834 -13.167 129.501 -39.5s44.5 -56.5 44.5 -90.5
c0 -32 -14.667 -56 -44 -72z" />
    <glyph glyph-name="four.numr" horiz-adv-x="463" 
d="M433 487v-115h-69v-68h-145v68h-189v115l158 213h176v-213h69zM143 487h76v106z" />
    <glyph glyph-name="five.numr" horiz-adv-x="424" 
d="M246 566c46.667 0 82.999 -11.999 108.999 -35.999s39 -55.333 39 -94c0 -40.667 -14.5 -75 -43.5 -103s-73.167 -42 -132.5 -42c-60 0 -104.833 13.667 -134.5 41s-47.5 58.666 -53.5 93.999h147c5.33301 -20 17.333 -30 36 -30c24.667 0 37 13.667 37 41
c0 26.667 -12.667 40 -38 40c-13.333 0 -24 -6 -32 -18h-136l51 241h271v-110h-185l-9 -43c20.667 12.667 45.334 19 74.001 19z" />
    <glyph glyph-name="six.numr" horiz-adv-x="416" 
d="M250 562c42.667 0 76 -13 100 -39s36 -56 36 -90c0 -37.333 -15 -70.333 -45 -99s-73.333 -43 -130 -43c-59.333 0 -104.333 15.667 -135 47s-46 68.333 -46 111c0 36 12 72.333 36 109s64 84 120 142h153l-138 -143c20 3.33301 36.333 5 49 5zM208 402
c22.667 0 34 11.333 34 34s-11.333 34 -34 34s-34 -11.333 -34 -34s11.333 -34 34 -34z" />
    <glyph glyph-name="seven.numr" horiz-adv-x="377" 
d="M30 700h317v-89l-152 -307h-134l141 281h-172v115z" />
    <glyph glyph-name="eight.numr" horiz-adv-x="434" 
d="M339 512c43.333 -20.667 64.998 -53.334 64.998 -98.001c0 -36 -15.5 -65.5 -46.5 -88.5s-77.833 -34.5 -140.5 -34.5s-109.5 11.5 -140.5 34.5s-46.5 52.5 -46.5 88.5c0 44.667 21.667 77.334 65 98.001c-36.667 18 -55 46 -55 84c0 34 14.833 62 44.5 84
s73.834 33 132.501 33s102.834 -11 132.501 -33s44.5 -50 44.5 -84c0 -38 -18.333 -66 -55 -84zM216.998 608c-20 0 -30 -10 -30 -30c0 -19.333 10 -29 30 -29s30 9.66699 30 29c0 20 -10 30 -30 30zM216.998 396c26.667 0 40 10.333 40 31c0 21.333 -13.333 32 -40 32
s-40 -10.667 -40 -32c0 -20.667 13.333 -31 40 -31z" />
    <glyph glyph-name="nine.numr" horiz-adv-x="416" 
d="M205 713c59.333 0 104.333 -15.667 135 -47s46 -68.333 46 -111c0 -36 -12 -72.333 -36 -109s-64 -84 -120 -142h-153l138 143c-20 -3.33301 -36.333 -5 -49 -5c-42.667 0 -76 13 -100 39s-36 56 -36 90c0 37.333 15 70.333 45 99s73.333 43 130 43zM174 568
c0 -22.667 11.333 -34 34 -34s34 11.333 34 34s-11.333 34 -34 34s-34 -11.333 -34 -34z" />
    <glyph glyph-name="uni0308.case" 
d="M-391 967c26.667 0 48.832 -8.33301 66.499 -25s26.5 -37.667 26.5 -63c0 -26 -8.66699 -47.333 -26 -64s-39.666 -25 -66.999 -25c-26.667 0 -48.834 8.33301 -66.501 25s-26.5 38 -26.5 64c0 25.333 8.83301 46.333 26.5 63s39.834 25 66.501 25zM-164.002 967
c27.333 0 49.833 -8.33301 67.5 -25s26.5 -37.667 26.5 -63c0 -26 -8.83301 -47.333 -26.5 -64s-40.167 -25 -67.5 -25c-26.667 0 -48.834 8.33301 -66.501 25s-26.5 38 -26.5 64c0 25.333 8.83301 46.333 26.5 63s39.834 25 66.501 25z" />
    <glyph glyph-name="uni0307.case" 
d="M-163 967c26.667 0 48.832 -8.33301 66.499 -25s26.5 -37.667 26.5 -63c0 -26 -8.66699 -47.333 -26 -64s-39.666 -25 -66.999 -25c-26.667 0 -48.834 8.33301 -66.501 25s-26.5 38 -26.5 64c0 25.333 8.83301 46.333 26.5 63s39.834 25 66.501 25z" />
    <glyph glyph-name="gravecomb.case" 
d="M-231 1004l161 -161l-73 -73l-188 134z" />
    <glyph glyph-name="acutecomb.case" 
d="M-170 1004l100 -100l-188 -134l-73 73z" />
    <glyph glyph-name="uni030B.case" 
d="M-331 1010l101 -47l-126 -193l-71 33zM-171 1010l101 -47l-126 -193l-71 33z" />
    <glyph glyph-name="uni0302.case" 
d="M-70 859l-89 -89l-72 82l-72 -82l-89 89l161 161z" />
    <glyph glyph-name="uni030C.case" 
d="M-70 935l-161 -161l-161 161l89 89l72 -82l72 82z" />
    <glyph glyph-name="uni0306.case" 
d="M-65 964l0.00195312 -31c0 -50 -16.833 -89.667 -50.5 -119s-73.5 -44 -119.5 -44c-46.667 0 -86.834 14.667 -120.501 44s-50.5 69 -50.5 119v31h132v-27c0 -12 3.66699 -21.667 11 -29s16.666 -11 27.999 -11s20.5 3.66699 27.5 11s10.5 17 10.5 29v27h132z" />
    <glyph glyph-name="uni030A.case" 
d="M-205 1039c37.333 0 69.166 -13 95.499 -39s39.5 -57.667 39.5 -95s-13.167 -69.166 -39.5 -95.499s-58.166 -39.5 -95.499 -39.5c-36.667 0 -68.167 13.167 -94.5 39.5s-39.5 58.166 -39.5 95.499c0 36.667 13.167 68.167 39.5 94.5s57.833 39.5 94.5 39.5zM-205 945
c-11.333 0 -20.833 -3.83301 -28.5 -11.5s-11.167 -17.5 -10.5 -29.5c-0.666992 -12 2.83301 -21.833 10.5 -29.5s17.167 -11.5 28.5 -11.5s20.833 3.83301 28.5 11.5s11.5 17.5 11.5 29.5s-3.83301 21.833 -11.5 29.5s-17.167 11.5 -28.5 11.5z" />
    <glyph glyph-name="tildecomb.case" 
d="M-170 940h100c0 -111.333 -40 -167 -120 -167c-22.667 0 -46.667 8 -72 24c-20 12.667 -35.667 19 -47 19c-18 0 -27 -12.333 -27 -37h-100c0 111.333 40 167 120 167c22.667 0 46.667 -8 72 -24c20 -12.667 35.667 -19 47 -19c18 0 27 12.333 27 37z" />
    <glyph glyph-name="uni0304.case" 
d="M-70 934v-122h-250v122h250z" />
    <glyph glyph-name="uni0327.case" 
d="M-146 -76c50.667 -15.333 76 -45.333 76 -90c0 -32.667 -14.167 -57 -42.5 -73s-67.5 -24 -117.5 -24c-23.333 0 -43 1 -59 3v81c18.667 -2.66699 31.667 -4 39 -4c34 0 51 9 51 27s-23.333 31.333 -70 40l50 116h114z" />
    <glyph glyph-name="uni0328.case" 
d="M-70 -260c-16 -2 -38.333 -3.00098 -67 -3.00098c-100.667 0 -151 34 -151 102c0 20.667 5.5 40.834 16.5 60.501s22.833 35.834 35.5 48.501s31.667 30 57 52h109c-46 -54.667 -72.333 -88.667 -79 -102c-6.66699 -12.667 -10 -24.334 -10 -35.001
c0 -23.333 16.667 -35 50 -35c7.33301 0 20.333 1.33301 39 4v-92z" />
    <glyph glyph-name="newGlyph" horiz-adv-x="600" 
 />
    <glyph glyph-name="Bitcoinsymbol" horiz-adv-x="660" 
d="M625 205c0 -48 -12.333 -88.167 -37 -120.5s-58.667 -55.5 -102 -69.5v-140h-149v125h-56v-125h-149v125h-62v700h62v124h149v-124h56v124h149v-140c76.667 -28.667 115 -84.667 115 -168c0 -64 -27.333 -110.333 -82 -139c34.667 -12.667 61 -34.5 79 -65.5
s27 -66.5 27 -106.5zM429 486c0 20 -5.33203 33.667 -15.999 41s-27.334 11 -50.001 11h-123v-107h130c39.333 0 59 18.333 59 55zM240.001 276v-114h142c26.667 0 45.167 4.83301 55.5 14.5s15.5 24.167 15.5 43.5s-5 33.5 -15 42.5s-28.667 13.5 -56 13.5h-142z" />
    </font>
</defs>
</svg>
